<?xml version="1.0" encoding="utf-8"?>
<!-- Generator: Adobe Illustrator 26.2.1, SVG Export Plug-In . SVG Version: 6.00 Build 0)  -->
<svg version="1.1" id="Layer_1" xmlns="http://www.w3.org/2000/svg" xmlns:xlink="http://www.w3.org/1999/xlink" x="0px" y="0px"
	 viewBox="0 0 600 600" style="enable-background:new 0 0 600 600;" xml:space="preserve">
<style type="text/css">
	.st0{clip-path:url(#SVGID_00000141417969167562653790000012693919322472504972_);}
	.st1{fill:#FFFFFF;}
	.st2{fill:#371A45;}
	.st3{opacity:0.35;}
	.st4{clip-path:url(#SVGID_00000003082603599890021650000013793824839794850216_);}
	.st5{clip-path:url(#SVGID_00000036962413725425766160000001578684627217604745_);}
	.st6{clip-path:url(#SVGID_00000042735178552237271770000006418696853484444820_);}
	.st7{clip-path:url(#SVGID_00000178190401312065704120000006166744288856439451_);}
	.st8{clip-path:url(#SVGID_00000003094315185627823690000011802273983193811641_);}
	.st9{fill:#FF9ED5;}
	.st10{opacity:0.5;}
	.st11{clip-path:url(#SVGID_00000045613913056612563200000012284705124987810693_);}
	.st12{clip-path:url(#SVGID_00000067200197136687550840000017430648352251263127_);}
	.st13{clip-path:url(#SVGID_00000164511665135553699030000017124100252342765204_);}
	.st14{clip-path:url(#SVGID_00000116207518374446807650000016901430097217581969_);}
	.st15{clip-path:url(#SVGID_00000077281973100746100290000016886342558311049871_);}
	.st16{clip-path:url(#SVGID_00000127750333827434447760000010869687550042230428_);}
	.st17{clip-path:url(#SVGID_00000173159874941673402750000007725079531711262622_);}
	.st18{clip-path:url(#SVGID_00000039845451007085276280000009456638464300071845_);}
	.st19{clip-path:url(#SVGID_00000041288456336333453530000008424740802085543297_);}
	.st20{clip-path:url(#SVGID_00000113345074724863113770000016030979591614040727_);}
	.st21{clip-path:url(#SVGID_00000018939266033433230660000000928323742945799347_);}
	.st22{clip-path:url(#SVGID_00000120533317223360105150000004790517941769293962_);}
	.st23{clip-path:url(#SVGID_00000060743991501594487310000017742070263312166555_);}
	.st24{clip-path:url(#SVGID_00000007410495922434665180000015369318427563618442_);}
	.st25{clip-path:url(#SVGID_00000080927333579143348910000017048176600505253541_);}
	.st26{clip-path:url(#SVGID_00000138572808688079917540000011593974928341360042_);}
	.st27{fill:#111A28;}
	.st28{clip-path:url(#SVGID_00000080179394740236757530000003434547802919270786_);}
	.st29{fill:#EC1F94;}
	.st30{clip-path:url(#SVGID_00000033342323244749170320000006073733485565913486_);}
	.st31{clip-path:url(#SVGID_00000159454774199163442410000002517020708487342991_);}
</style>
<g>
	<defs>
		<rect id="SVGID_1_" x="0.5" y="-0.5" width="600" height="600"/>
	</defs>
	<clipPath id="SVGID_00000125582602497681217010000001538576217002137735_">
		<use xlink:href="#SVGID_1_"  style="overflow:visible;"/>
	</clipPath>
</g>
<g id="Group_3863">
	<g id="Group_3862" transform="translate(0 0)">
		<g>
			<defs>
				<rect id="SVGID_00000092430004938172304890000002297929929709661348_" x="178.3" y="109.7" width="243.4" height="380.5"/>
			</defs>
			<clipPath id="SVGID_00000076584787387484986280000008736666854011994507_">
				<use xlink:href="#SVGID_00000092430004938172304890000002297929929709661348_"  style="overflow:visible;"/>
			</clipPath>
			<g id="Group_3861" style="clip-path:url(#SVGID_00000076584787387484986280000008736666854011994507_);">
				<path id="Path_2983" class="st1" d="M362.7,424.5h-46.6c-10.7,0-19.3-8.7-19.3-19.3v-53.5c0-10.7,8.7-19.3,19.3-19.3h46.6
					c10.7,0,19.3,8.7,19.3,19.3v53.5C382,415.9,373.3,424.5,362.7,424.5"/>
				<path id="Path_2984" class="st2" d="M362.7,332.4c10.7,0,19.3,8.7,19.3,19.3v53.5c0,10.7-8.7,19.3-19.3,19.3h-46.6
					c-10.7,0-19.3-8.7-19.3-19.3v-53.5c0-10.7,8.7-19.3,19.3-19.3H362.7z M362.7,328.5h-46.6c-12.8,0-23.2,10.4-23.2,23.2v53.5
					c0,12.8,10.4,23.2,23.2,23.2h46.6c12.8,0,23.2-10.4,23.2-23.2v-53.5C385.9,338.9,375.5,328.5,362.7,328.5"/>
				<path id="Path_2985" class="st1" d="M327.6,322.4l-9.7,19.7l-5.8,11.7l-3,6c0,0-1.7-1.4-4.3-4.1c-10.9-11.2-38.5-45-32-94.7
					c3.4-26.3,13.4-29.5,23.1-30.4c16.3-1.5,11.9,13.2,11.9,20.1c0,3.4,1.4,13.7,3.9,25.9C315.1,292.8,320.6,312.2,327.6,322.4"/>
				<path id="Path_2986" class="st2" d="M309.1,361.7c-0.5,0-0.9-0.2-1.2-0.5c-0.5-0.4-11.5-9.7-21.6-26.8
					c-13.3-22.2-18.7-48.1-15.4-73.8c3.6-27.9,14.7-31.2,24.8-32.1c5.2-0.5,8.9,0.5,11.3,3c3.9,3.9,3.3,10.2,2.9,15.3
					c-0.1,1.4-0.2,2.7-0.2,3.8c0,8.5,7.6,53.4,19.4,70.7c0.6,0.9,0.4,2.1-0.5,2.7c-0.9,0.6-2.1,0.4-2.7-0.5
					c-12.2-17.9-20.1-64.1-20.1-72.8c0-1.2,0.1-2.6,0.2-4.1c0.4-4.3,0.8-9.6-1.8-12.2c-1.6-1.6-4.4-2.2-8.3-1.9
					c-9,0.8-18,3.7-21.3,28.7c-4.4,36.2,8.9,72.3,35.6,97.1c0.8,0.7,0.9,1.9,0.2,2.7C310.2,361.4,309.7,361.6,309.1,361.7"/>
				<path id="Path_2987" class="st1" d="M374.6,355c-1.6,1.7-3.2,3.2-4.9,4.7l-2.4-4.8l-6.4-12.9l-9.7-19.7
					c7.2-10.6,12.8-30.8,16.1-47.3c2.4-11.5,3.6-21.2,3.6-24.4c0-6.9-4.5-21.6,11.9-20.1c9.7,0.9,19.6,4.1,23.1,30.4
					C412.3,309.7,385.9,343.1,374.6,355"/>
				<path id="Path_2988" class="st2" d="M369.7,361.6c-1.1,0-1.9-0.9-1.9-1.9c0-0.6,0.3-1.1,0.7-1.5c26.7-24.8,40-60.9,35.6-97.1
					c-3.3-25-12.3-27.9-21.3-28.7c-3.9-0.3-6.7,0.3-8.3,1.9c-2.6,2.6-2.2,7.9-1.8,12.2c0.1,1.5,0.3,2.9,0.2,4.1
					c0,8.7-7.9,55-20.1,72.8c-0.6,0.9-1.8,1.1-2.7,0.5c-0.9-0.6-1.1-1.8-0.5-2.7l0,0c11.8-17.3,19.4-62.2,19.4-70.7
					c0-1.1-0.1-2.4-0.2-3.8c-0.4-5.1-1-11.4,2.9-15.3c2.5-2.5,6.2-3.4,11.3-3c10.1,0.9,21.2,4.2,24.8,32.1
					c3.3,25.6-2.1,51.6-15.4,73.8c-10.1,17.1-21.1,26.4-21.6,26.8C370.6,361.5,370.1,361.6,369.7,361.6"/>
				<path id="Path_2989" class="st1" d="M382,419.6c-0.9,12.8-3.9,25.4-8.7,37.3c0,0,3.4,10,1.6,20c-1.1,5.9-3.9,10.7-10.4,11.4
					c-16.5,1.7-20.9-15-22-26.2c-1-11.2,3.8-27.3,3.2-40.4c-4,0.4-8,0.4-12,0c-0.6,13.1,4.2,29.2,3.2,40.4
					c-1.1,11.2-5.5,27.9-22,26.2c-6.4-0.7-9.3-5.5-10.4-11.4c-1.8-10,1.6-20,1.6-20c-4.8-11.9-7.7-24.5-8.7-37.3
					c-1.2-19.6,3.2-45.5,7.2-63.9c0.5-2.4,1-4.7,1.5-6.9c0.6-2.5,1.1-4.7,1.6-6.7h63.7c0.6,2.3,1.2,5,1.9,8c0.4,1.6,0.7,3.2,1.1,4.9
					C378.6,373.5,383.2,399.8,382,419.6"/>
				<g id="Group_3791" transform="translate(97.623 233.3)" class="st3">
					<g id="Group_3790">
						<g>
							<defs>
								<rect id="SVGID_00000059293177373713340900000012007371377776224908_" x="207" y="178.4" width="70.3" height="76.6"/>
							</defs>
							<clipPath id="SVGID_00000150087462724031821170000006160322478880559746_">
								<use xlink:href="#SVGID_00000059293177373713340900000012007371377776224908_"  style="overflow:visible;"/>
							</clipPath>
							<g id="Group_3789" style="clip-path:url(#SVGID_00000150087462724031821170000006160322478880559746_);">
								<path id="Path_2990" class="st2" d="M277.3,243.5c-1.1,5.9-3.9,10.7-10.4,11.4c-16.5,1.7-20.9-15-22-26.2
									c-1-11.2,3.8-27.3,3.2-40.4c-4,0.4-8,0.4-12,0c-0.6,13.1,4.2,29.2,3.2,40.4c-1.1,11.2-5.5,27.9-22,26.2
									c-6.4-0.7-9.3-5.5-10.4-11.4c2.5,3.1,6.2,4.8,10.1,4.6c16.3-1.4,19.2-15.8,18.2-25.2c-1.3-11.7-10.7-23.2-15.2-32.1
									c-2.7-5.4-2.5-11.1-1.2-12c2.2-1.6,6.5,3.9,23.3,4.6c16.7-0.8,21.1-6.3,23.2-4.6c1.3,1,1.5,6.7-1.2,12
									c-4.5,8.9-13.9,20.4-15.2,32.1c-1,9.4,1.9,23.8,18.2,25.2C271.1,248.3,274.9,246.5,277.3,243.5"/>
							</g>
						</g>
					</g>
				</g>
				<path id="Path_2991" class="st2" d="M374.5,351.6c2.8,8.5,4.9,17.2,6.4,26.1c0.8,4.4,1.4,8.8,1.9,13.3c0.3,2.2,0.5,4.5,0.7,6.7
					c0.1,1.1,0.2,2.2,0.2,3.4c0.1,1.1,0.1,2.2,0.2,3.4c0.2,4.5,0.3,9,0,13.6c-0.2,4.5-0.7,9-1.5,13.5c-0.8,4.5-1.8,8.9-3,13.2
					c-0.6,2.2-1.3,4.3-2,6.5c-0.7,2.2-1.5,4.2-2.4,6.4l0.1-1.3c0.7,2.4,1.2,4.9,1.6,7.4c0.4,2.5,0.6,5,0.7,7.5
					c0.1,2.6-0.2,5.2-0.7,7.7c-0.1,0.6-0.4,1.3-0.5,1.9c-0.2,0.6-0.5,1.3-0.8,1.9c-0.6,1.3-1.4,2.5-2.3,3.5l-0.8,0.8
					c-0.3,0.2-0.6,0.5-0.8,0.7c-0.1,0.1-0.3,0.2-0.4,0.3l-0.5,0.3c-0.3,0.2-0.6,0.4-0.9,0.5l-1,0.4c-0.2,0.1-0.3,0.1-0.5,0.2
					l-0.5,0.1l-1,0.3c-0.3,0.1-0.7,0.1-1,0.2c-0.3,0.1-0.7,0.1-1,0.1l-1,0.1c-0.6,0.1-1.3,0-2,0c-1.3,0-2.7-0.2-4-0.5
					c-2.7-0.6-5.1-1.9-7.2-3.7c-1-0.9-1.9-1.9-2.8-2.9c-0.8-1-1.5-2.1-2.1-3.3c-2.3-4.5-3.8-9.4-4.4-14.5c-0.2-1.2-0.3-2.5-0.4-3.7
					c0-0.6-0.1-1.3-0.1-1.9l0-1.9c0.1-2.5,0.3-5,0.5-7.4c0.5-4.9,1.3-9.7,1.9-14.4c0.7-4.7,1-9.4,0.9-14.2l2.2,1.8
					c-1.1,0.1-2.1,0.2-3.1,0.2c-1,0.1-2.1,0.1-3.1,0.1c-1,0-2.1,0-3.1-0.1c-1-0.1-2-0.1-3.1-0.2l2.2-1.8c-0.1,4.7,0.2,9.5,0.9,14.2
					c0.6,4.8,1.4,9.6,1.9,14.4c0.3,2.4,0.5,4.9,0.5,7.4l0,1.9c0,0.6-0.1,1.3-0.1,1.9c-0.1,1.3-0.2,2.5-0.4,3.7
					c-0.6,5.1-2.1,10-4.4,14.5c-0.6,1.1-1.4,2.3-2.1,3.3c-0.8,1.1-1.8,2-2.8,2.9c-2.1,1.8-4.5,3.1-7.2,3.7c-1.3,0.3-2.6,0.5-4,0.5
					c-0.7,0-1.3,0-2,0l-1-0.1c-0.3,0-0.7-0.1-1-0.1c-0.3,0-0.7-0.1-1-0.2l-1-0.3l-0.5-0.1c-0.2-0.1-0.3-0.1-0.5-0.2l-1-0.4
					c-0.3-0.2-0.6-0.4-0.9-0.5l-0.5-0.3c-0.1-0.1-0.3-0.2-0.4-0.3c-0.3-0.2-0.6-0.4-0.8-0.7l-0.8-0.8c-0.9-1-1.7-2.2-2.3-3.5
					c-0.3-0.6-0.5-1.2-0.8-1.9c-0.2-0.6-0.4-1.3-0.5-1.9c-0.6-2.5-0.8-5.1-0.7-7.7c0-2.5,0.3-5,0.7-7.5c0.4-2.5,0.9-4.9,1.6-7.4
					l0.1,1.3c-0.9-2.2-1.7-4.3-2.4-6.4c-0.7-2.2-1.4-4.3-2-6.5c-1.2-4.4-2.2-8.8-3-13.2c-0.8-4.5-1.3-9-1.5-13.5
					c-0.1-2.3-0.1-4.5-0.1-6.8c0.1-2.3,0.1-4.5,0.2-6.8c0.1-1.1,0.1-2.3,0.2-3.4c0.1-1.1,0.2-2.2,0.3-3.4c0.2-2.2,0.4-4.5,0.7-6.7
					c0.5-4.5,1-8.9,1.7-13.4c0.7-4.4,1.6-8.8,2.6-13.2c1-4.4,2.3-8.7,3.9-12.9c0.1-0.3,0.5-0.5,0.8-0.4c0.3,0.1,0.5,0.4,0.4,0.7
					c-0.3,4.5-0.9,8.9-1.6,13.3s-1.4,8.8-2.1,13.2c-1.6,8.7-2.6,17.5-3.1,26.4c-0.6,8.8-0.1,17.6,1.3,26.2c0.7,4.3,1.7,8.6,2.9,12.8
					c0.6,2.1,1.3,4.2,1.9,6.3c0.7,2.1,1.5,4.2,2.3,6.1l0.3,0.6l-0.2,0.7c-0.6,2.3-1.1,4.5-1.4,6.9c-0.4,2.3-0.6,4.6-0.6,7
					c-0.1,2.3,0.1,4.5,0.6,6.8c0.1,0.5,0.3,1.1,0.4,1.6c0.2,0.5,0.4,1,0.6,1.5c0.4,0.9,1,1.8,1.7,2.5l0.5,0.5
					c0.2,0.2,0.4,0.3,0.6,0.5l0.3,0.2l0.3,0.2c0.2,0.1,0.4,0.3,0.6,0.4l0.7,0.3c0.1,0,0.2,0.1,0.3,0.1l0.4,0.1l0.7,0.2
					c0.3,0.1,0.5,0.1,0.8,0.1c0.3,0,0.5,0.1,0.8,0.1l0.8,0.1c0.6,0.1,1.1,0,1.6,0c1.1,0,2.1-0.2,3.2-0.4c2.1-0.5,4-1.5,5.6-2.9
					c0.8-0.7,1.6-1.5,2.2-2.4c0.7-0.9,1.3-1.8,1.8-2.8c2.1-4.1,3.4-8.6,4-13.2c0.2-1.2,0.3-2.3,0.4-3.5c0-0.6,0.1-1.1,0.1-1.7l0-1.7
					c-0.1-2.3-0.2-4.7-0.5-7.1c-0.5-4.7-1.3-9.5-1.9-14.4c-0.7-4.9-1-9.9-0.9-14.8l0.1-2.1l2.1,0.2c0.9,0.1,1.9,0.2,2.9,0.2
					c1,0.1,1.9,0.1,2.9,0.1c1,0,1.9,0,2.9-0.1c1-0.1,2-0.1,2.9-0.2l2.1-0.2l0.1,2.1c0.1,5-0.2,9.9-0.9,14.8
					c-0.6,4.9-1.4,9.6-1.9,14.4c-0.3,2.4-0.4,4.7-0.5,7.1l0,1.7c0,0.6,0.1,1.1,0.1,1.7c0.1,1.1,0.2,2.3,0.4,3.5
					c0.5,4.6,1.9,9.1,4,13.2c0.5,1,1.1,1.9,1.8,2.8c0.7,0.9,1.4,1.6,2.2,2.4c1.6,1.4,3.5,2.4,5.6,2.9c1,0.3,2.1,0.4,3.2,0.4
					c0.6,0,1.1,0,1.6,0l0.8-0.1c0.3,0,0.5-0.1,0.8-0.1c0.3,0,0.5-0.1,0.8-0.1l0.7-0.2l0.4-0.1c0.1,0,0.2-0.1,0.3-0.1l0.7-0.3
					c0.2-0.1,0.4-0.3,0.6-0.4l0.3-0.2l0.3-0.2c0.2-0.2,0.4-0.3,0.6-0.5l0.5-0.5c0.7-0.8,1.2-1.6,1.7-2.5c0.2-0.5,0.4-1,0.6-1.5
					c0.1-0.5,0.3-1,0.4-1.6c0.5-2.2,0.7-4.5,0.6-6.8c0-2.3-0.2-4.7-0.6-7c-0.3-2.3-0.8-4.6-1.4-6.9l-0.2-0.7l0.3-0.6
					c0.8-1.9,1.6-4,2.3-6.1s1.4-4.2,1.9-6.3c1.2-4.2,2.2-8.5,2.9-12.8c1.5-8.7,1.9-17.4,1.2-26.2c-0.3-4.4-0.7-8.8-1.2-13.2
					c-0.1-1.1-0.3-2.2-0.4-3.3l-0.4-3.3c-0.3-2.2-0.6-4.4-0.9-6.6l-2-13.2c-0.6-4.4-1.3-8.8-1.8-13.2l0,0c0-0.4,0.2-0.7,0.6-0.7
					C374.1,351.1,374.4,351.3,374.5,351.6"/>
				<path id="Path_2992" class="st2" d="M333.6,422.5c-1.4,0-2.8-0.2-4.2-0.5c-1.4-0.3-2.7-0.6-4-1.1c-1.3-0.4-2.6-1-3.9-1.6
					c-1.3-0.6-2.5-1.4-3.5-2.3c-0.1-0.1-0.1-0.2,0-0.3c0.1-0.1,0.1-0.1,0.2-0.1l0,0c1.3,0.5,2.6,0.8,3.9,1.1
					c1.3,0.3,2.6,0.5,3.9,0.7s2.6,0.4,4,0.6s2.6,0.4,3.9,0.7l0,0c0.8,0.2,1.2,0.9,1,1.7C334.9,422,334.3,422.5,333.6,422.5"/>
				<path id="Path_2993" class="st2" d="M345.6,419.7c1.3-0.3,2.6-0.5,3.9-0.7c1.3-0.2,2.6-0.3,4-0.6c1.3-0.2,2.6-0.4,3.9-0.7
					c1.3-0.3,2.6-0.6,3.9-1.1l0,0c0.1,0,0.2,0,0.3,0.1c0,0.1,0,0.2-0.1,0.2c-1.1,0.9-2.2,1.7-3.5,2.3c-1.3,0.6-2.6,1.2-3.9,1.6
					c-1.3,0.5-2.7,0.8-4,1.1c-1.4,0.3-2.8,0.5-4.2,0.5c-0.8,0-1.4-0.6-1.4-1.4C344.5,420.4,344.9,419.9,345.6,419.7L345.6,419.7z"/>
				<g id="Group_3794" transform="translate(92.492 205.419)" class="st3">
					<g id="Group_3793">
						<g>
							<defs>
								<rect id="SVGID_00000151503900709117284560000001382268489230316990_" x="205.5" y="170.2" width="83.8" height="33.4"/>
							</defs>
							<clipPath id="SVGID_00000183970237977743121330000017088521566903442845_">
								<use xlink:href="#SVGID_00000151503900709117284560000001382268489230316990_"  style="overflow:visible;"/>
							</clipPath>
							<g id="Group_3792" style="clip-path:url(#SVGID_00000183970237977743121330000017088521566903442845_);">
								<path id="Path_2994" class="st2" d="M289.3,194.6c-5.2,0.6-12.2,0.9-17.5-0.5v2.7c0,3.7-3,6.7-6.7,6.7h-36.7
									c-3.7,0-6.7-3-6.7-6.7v-2.1c-5.1,0.6-10.3,0.5-15.5-0.2c-0.3,0-0.5-0.1-0.7-0.1c0.1-0.6,0.2-1.2,0.2-1.8
									c0.5-3.4,1-7,1.6-10.8c4.8,0.3,9.6,0.2,14.3-0.1v-4.8c0-3.7,3-6.7,6.7-6.7h36.7c3.7,0,6.7,3,6.7,6.7v4.5
									c5.2,0.6,10.4,0.7,15.6,0.5c0.6,3.7,1.2,7.3,1.6,10.7C289.1,193.2,289.2,193.9,289.3,194.6"/>
							</g>
						</g>
					</g>
				</g>
				<path id="Path_2995" class="st1" d="M320.9,394.6c-5.1,2.1-13.1,1.6-18.5,1c-3.2-0.3-5.5-3.2-5.2-6.4c0.3-3.1,3-5.4,6.1-5.2
					c5.1,0.2,12.7,0.3,17.5-0.7"/>
				<g id="Group_3797" transform="translate(91.955 214.275)" class="st3">
					<g id="Group_3796">
						<g>
							<defs>
								<rect id="SVGID_00000042705863560808715220000002547026966261345936_" x="205.3" y="172.8" width="23.6" height="9.1"/>
							</defs>
							<clipPath id="SVGID_00000067234966062176799080000018198891414887583362_">
								<use xlink:href="#SVGID_00000042705863560808715220000002547026966261345936_"  style="overflow:visible;"/>
							</clipPath>
							<g id="Group_3795" style="clip-path:url(#SVGID_00000067234966062176799080000018198891414887583362_);">
								<path id="Path_2996" class="st2" d="M229,180.4c-5.1,2.1-13.1,1.6-18.5,1c-3.2-0.4-5.5-3.3-5.1-6.5c0-0.1,0-0.1,0-0.2
									c0.1-0.7,0.3-1.3,0.6-1.9c0.9,1.7,2.5,2.8,4.4,3c5.4,0.7,13.4,1.1,18.5-1L229,180.4z"/>
							</g>
						</g>
					</g>
				</g>
				<path id="Path_2997" class="st2" d="M310.7,397.8c-2.8,0-5.7-0.2-8.5-0.6c-4.1-0.5-7-4.2-6.5-8.3c0.5-3.9,3.9-6.8,7.8-6.6
					c7.4,0.3,13.5,0.1,17.1-0.7c0.8-0.2,2.8-0.2,3.9,3.4c1.1,3.6,1,9.5-2.9,11.1C318.1,397.4,314.4,398,310.7,397.8 M303.1,385.7
					c-2.3,0-4.1,1.9-4.1,4.2c0,2.1,1.6,3.8,3.6,4.1c7.7,0.9,14,0.6,17.7-0.9l0,0c0.9-0.3,1.2-1.8,1.3-2.4c0.3-1.9,0-3.9-0.8-5.7
					c-4.9,1-12.2,0.9-17.5,0.7C303.3,385.7,303.2,385.7,303.1,385.7"/>
				<path id="Path_2998" class="st1" d="M360.3,394.6c5.1,2.1,13.1,1.6,18.5,1c3.2-0.3,5.5-3.2,5.2-6.4c-0.3-3.1-3-5.4-6.1-5.2
					c-5.1,0.2-12.7,0.3-17.5-0.7"/>
				<g id="Group_3800" transform="translate(140.594 214.278)" class="st3">
					<g id="Group_3799">
						<g>
							<defs>
								<rect id="SVGID_00000145024392410899039870000013596547657580171167_" x="219.7" y="172.8" width="23.6" height="9.1"/>
							</defs>
							<clipPath id="SVGID_00000085247187754761603110000017305249272369126537_">
								<use xlink:href="#SVGID_00000145024392410899039870000013596547657580171167_"  style="overflow:visible;"/>
							</clipPath>
							<g id="Group_3798" style="clip-path:url(#SVGID_00000085247187754761603110000017305249272369126537_);">
								<path id="Path_2999" class="st2" d="M238.2,181.3c-5.4,0.7-13.4,1.1-18.5-1l0-5.5c5.1,2.1,13.1,1.6,18.5,1
									c1.9-0.2,3.5-1.4,4.4-3c1.5,2.8,0.5,6.4-2.4,7.9C239.6,181,238.9,181.3,238.2,181.3"/>
							</g>
						</g>
					</g>
				</g>
				<path id="Path_3000" class="st2" d="M370.5,397.8c-3.7,0.1-7.4-0.4-10.8-1.7c-3.8-1.6-4-7.5-2.9-11.1c1.1-3.6,3.1-3.6,3.9-3.4
					c3.6,0.8,9.6,1,17.1,0.7c4.1-0.2,7.6,3,7.8,7.2c0.2,3.9-2.7,7.3-6.6,7.8C376.1,397.6,373.3,397.8,370.5,397.8 M360.4,385
					c-0.8,1.8-1.1,3.8-0.8,5.7c0.1,0.6,0.4,2,1.3,2.4l0,0c3.7,1.5,10,1.8,17.7,0.9c2.3-0.3,3.9-2.4,3.6-4.6
					c-0.3-2.1-2.1-3.7-4.3-3.6C372.6,385.9,365.3,386,360.4,385"/>
				<path id="Path_3001" class="st1" d="M362.2,379.6v18.2c0,3.4-2.7,6.1-6.1,6.1h-33.5c-3.4,0-6.1-2.7-6.1-6.1v-18.2
					c0-3.4,2.7-6.1,6.1-6.1h33.5C359.5,373.4,362.2,376.2,362.2,379.6"/>
				<g id="Group_3803" transform="translate(106.817 206.972)" class="st3">
					<g id="Group_3802">
						<g>
							<defs>
								<rect id="SVGID_00000017496412596295245690000009290922886780352421_" x="209.7" y="170.6" width="45.7" height="26.2"/>
							</defs>
							<clipPath id="SVGID_00000082367236939917168600000012501510852268289665_">
								<use xlink:href="#SVGID_00000017496412596295245690000009290922886780352421_"  style="overflow:visible;"/>
							</clipPath>
							<g id="Group_3801" style="clip-path:url(#SVGID_00000082367236939917168600000012501510852268289665_);">
								<path id="Path_3002" class="st2" d="M255.4,172.6v18.2c0,3.4-2.7,6.1-6.1,6.1h-33.5c-3.4,0-6.1-2.7-6.1-6.1v-6.1
									c5.8,3.2,19.3,8.5,25.5,5.3c3.9-2,3.9-8.3,3.9-8.3s8.2-6,10.3-1.1c4,9.8,5.2-8,5.7-9.9C255.3,171.3,255.4,171.9,255.4,172.6
									"/>
							</g>
						</g>
					</g>
				</g>
				<path id="Path_3003" class="st2" d="M356.1,405.5h-33.5c-4.3,0-7.8-3.5-7.8-7.8v-18.2c0-4.3,3.5-7.8,7.8-7.8h33.5
					c4.3,0,7.8,3.5,7.8,7.8v18.2C363.9,402,360.4,405.5,356.1,405.5 M322.7,375.1c-2.5,0-4.5,2-4.5,4.5v18.2c0,2.5,2,4.5,4.5,4.5
					h33.5c2.5,0,4.5-2,4.5-4.5v-18.2c0-2.5-2-4.5-4.5-4.5H322.7z"/>
				<path id="Path_3004" class="st9" d="M356.5,388.6c0,2.9-2.4,5.3-5.3,5.3c-2.9,0-5.3-2.4-5.3-5.3c0-2.9,2.4-5.3,5.3-5.3
					C354.2,383.4,356.5,385.7,356.5,388.6L356.5,388.6"/>
				<g id="Group_3806" transform="translate(129.548 211.406)" class="st10">
					<g id="Group_3805">
						<g>
							<defs>
								<rect id="SVGID_00000038378228694000647960000017554159159268783522_" x="216.4" y="172" width="10.6" height="6.6"/>
							</defs>
							<clipPath id="SVGID_00000065072962430639550820000008402203554320635524_">
								<use xlink:href="#SVGID_00000038378228694000647960000017554159159268783522_"  style="overflow:visible;"/>
							</clipPath>
							<g id="Group_3804" style="clip-path:url(#SVGID_00000065072962430639550820000008402203554320635524_);">
								<path id="Path_3005" class="st1" d="M227,177.2c0,0.4-0.1,0.9-0.2,1.3c-0.7-2.8-3.6-4.5-6.4-3.8c-1.9,0.5-3.4,1.9-3.8,3.8
									c-0.7-2.8,1-5.7,3.8-6.4c2.8-0.7,5.7,1,6.4,3.8C226.9,176.4,227,176.8,227,177.2"/>
							</g>
						</g>
					</g>
				</g>
				<g id="Group_3809" transform="translate(129.547 214.394)" class="st3">
					<g id="Group_3808">
						<g>
							<defs>
								<rect id="SVGID_00000006702405776797253110000004646129361774122657_" x="216.4" y="172.8" width="10.6" height="6.7"/>
							</defs>
							<clipPath id="SVGID_00000080915434702216347610000003626084382485389445_">
								<use xlink:href="#SVGID_00000006702405776797253110000004646129361774122657_"  style="overflow:visible;"/>
							</clipPath>
							<g id="Group_3807" style="clip-path:url(#SVGID_00000080915434702216347610000003626084382485389445_);">
								<path id="Path_3006" class="st2" d="M227,174.2c0,2.9-2.4,5.3-5.3,5.3c-2.9,0-5.3-2.4-5.3-5.3c0-0.5,0.1-1,0.2-1.4
									c0.8,2.8,3.7,4.5,6.5,3.7c1.8-0.5,3.2-1.9,3.7-3.7C226.9,173.3,227,173.8,227,174.2"/>
							</g>
						</g>
					</g>
				</g>
				<path id="Path_3007" class="st2" d="M351.2,395.3c-3.7,0-6.7-3-6.7-6.7c0-3.7,3-6.7,6.7-6.7c3.7,0,6.7,3,6.7,6.7
					C357.9,392.3,354.9,395.3,351.2,395.3 M351.2,384.7c-2.2,0-3.9,1.7-3.9,3.9c0,2.2,1.7,3.9,3.9,3.9c2.2,0,3.9-1.7,3.9-3.9
					c0,0,0,0,0,0C355.1,386.5,353.4,384.7,351.2,384.7"/>
				<path id="Path_3008" class="st2" d="M336.3,405.2c-0.8,0-1.4-0.6-1.4-1.4v-8.8c0-2.2-1-4.3-2.8-5.6c-2.4-1.9-3.9-4.7-3.9-7.8
					v-8.2c0-0.8,0.6-1.4,1.4-1.4c0.8,0,1.4,0.6,1.4,1.4v8.2c0,2.2,1,4.3,2.8,5.6c2.4,1.9,3.9,4.7,3.9,7.8v8.8
					C337.7,404.6,337,405.2,336.3,405.2"/>
				<path id="Path_3009" class="st9" d="M419.6,217.5c-16.3,65.1-82.2,104.6-147.3,88.4c-65.1-16.3-104.6-82.2-88.4-147.3
					c4-16,11.2-31,21.2-44.1c2.3-3.1,6.7-3.7,9.7-1.4c1.6,1.2,2.6,3.1,2.8,5.1c0.1,2.2,0.3,4.4,0.6,6.5c0.5,4.2,1.2,8.4,2.1,12.6
					c1.9,8.7,4.8,17.2,8.6,25.2c0.7,1.4,1.4,2.8,2.1,4.2c1.7,3.4,3.6,6.6,5.7,9.8c1.5,2.3,3,4.5,4.6,6.7c0.8,1.1,1.6,2.1,2.4,3.1
					c2,2.6,4.2,5,6.4,7.4c1.2,1.3,2.5,2.6,3.7,3.8c0.9,0.9,1.8,1.7,2.7,2.6c3.4,3.1,6.9,6,10.6,8.7c0.3,0.3,0.7,0.5,1,0.7
					c2.1,1.5,4.2,2.9,6.3,4.2c0.5,0.3,1,0.6,1.5,0.9c2.2,1.3,4.4,2.5,6.6,3.7c1.2,0.6,2.4,1.2,3.7,1.8c0.3,0.1,0.5,0.3,0.8,0.4
					c0.2,0.1,0.4,0.2,0.5,0.3c0.4,0.2,0.8,0.4,1.2,0.5c2.1,1,4.3,1.9,6.4,2.7c0.6,0.3,1.3,0.5,2,0.7c0.7,0.3,1.4,0.5,2.1,0.8
					c1.9,0.6,3.8,1.2,5.7,1.8c3,0.9,6,1.6,9,2.3c3.1,0.6,6.3,1.2,9.4,1.6c4.2,0.5,8.5,0.9,12.8,0.9c4.1,0.1,8.1,0,12.2-0.4
					c0.8-0.1,1.7-0.1,2.5-0.2c1.8-0.2,3.6-0.4,5.4-0.7c3-0.4,5.9-1,8.9-1.7c0.2,0,0.4-0.1,0.6-0.1c8.3-1.9,16.4-4.7,24.2-8.3
					c6.5-3,12.8-6.6,18.7-10.8c3.1-2.2,7.5-1.4,9.7,1.7C419.7,213.5,420,215.5,419.6,217.5"/>
				<g id="Group_3812" transform="translate(2.93 1.505)" class="st3">
					<g id="Group_3811">
						<g>
							<defs>
								<rect id="SVGID_00000106854201561374991530000009353668539108305800_" x="179.1" y="110.2" width="217.3" height="194.6"/>
							</defs>
							<clipPath id="SVGID_00000065051240948534165040000013561705563165584817_">
								<use xlink:href="#SVGID_00000106854201561374991530000009353668539108305800_"  style="overflow:visible;"/>
							</clipPath>
							<g id="Group_3810" style="clip-path:url(#SVGID_00000065051240948534165040000013561705563165584817_);">
								<path id="Path_3010" class="st2" d="M194.3,124.6c-32.4,58.7-11.2,132.6,47.5,165c52.4,28.9,118,15.4,154.7-31.8
									c-45.4,42.1-115.2,43.3-162.1,2.7c1.5-0.5,3-1.3,4.2-2.4c-0.2,0.2-0.5,0.4-0.7,0.6c-0.6-0.5-1.1-0.9-1.6-1.4
									c1.9-0.6,3.5-1.7,4.9-3.1c0.4-0.4,0.7-0.7,1-1.1l0,0c2.9-7.2,0.3-17.5-6.9-25.4c-8.9-9.7-21.6-12.1-28.2-5.3
									c-0.5,0.5-0.9,1-1.3,1.6c-18.3-35.9-17.6-78.5,1.8-113.8c-2.1,0-4.1,1.1-5.4,2.8c-5.6,7.4-10.4,15.5-14.2,24
									C189.8,132.8,191.9,128.6,194.3,124.6"/>
							</g>
						</g>
					</g>
				</g>
				<g id="Group_3815" transform="translate(131.773 103.848)" class="st3">
					<g id="Group_3814">
						<g>
							<defs>
								<rect id="SVGID_00000131330522549793590050000006102227160179698589_" x="217.1" y="140.3" width="27.4" height="23.3"/>
							</defs>
							<clipPath id="SVGID_00000029752566901341848910000018402312157872292491_">
								<use xlink:href="#SVGID_00000131330522549793590050000006102227160179698589_"  style="overflow:visible;"/>
							</clipPath>
							<g id="Group_3813" style="clip-path:url(#SVGID_00000029752566901341848910000018402312157872292491_);">
								<path id="Path_3011" class="st2" d="M231,140.3c-7.6-0.1-13.8,5.1-13.9,11.5c-0.1,6.4,5.9,11.7,13.4,11.8
									c7.6,0.1,13.8-5.1,13.9-11.5C244.6,145.7,238.5,140.4,231,140.3"/>
							</g>
						</g>
					</g>
				</g>
				<g id="Group_3818" transform="translate(74.118 91.471)" class="st3">
					<g id="Group_3817">
						<g>
							<defs>
								<rect id="SVGID_00000060024047221750555030000002625720444526285226_" x="200.1" y="136.7" width="32.2" height="20.6"/>
							</defs>
							<clipPath id="SVGID_00000114759821303474723390000015164773554392323746_">
								<use xlink:href="#SVGID_00000060024047221750555030000002625720444526285226_"  style="overflow:visible;"/>
							</clipPath>
							<g id="Group_3816" style="clip-path:url(#SVGID_00000114759821303474723390000015164773554392323746_);">
								<path id="Path_3012" class="st2" d="M217.6,157.3c8.9,0.4,15.4-3.9,14.6-9.6c-0.8-5.7-8.6-10.6-17.5-11s-15.4,3.9-14.6,9.6
									S208.8,156.9,217.6,157.3"/>
							</g>
						</g>
					</g>
				</g>
				<path id="Path_3013" class="st9" d="M291.6,248.3c7.7,0.6,13.2-1.9,12.3-5.6c-0.9-3.7-7.9-7.1-15.6-7.7s-13.2,1.9-12.3,5.6
					C277,244.3,283.9,247.7,291.6,248.3"/>
				<path id="Path_3014" class="st9" d="M362.2,252.2c-5.3,2-8.2,7.1-6.5,11.3c1.7,4.2,7.5,6.1,12.8,4.1c5.3-2,8.2-7.1,6.5-11.3
					C373.2,252,367.5,250.2,362.2,252.2"/>
				<path id="Path_3015" class="st9" d="M309.2,281.4c0,1.2-0.1,2.3-0.4,3.4c-2.1,8-11.3,12.3-20.4,9.7c-6.8-2-11.8-7.3-12.9-13.2
					L309.2,281.4z"/>
				<path id="Path_3016" class="st2" d="M309.7,281.4c0.3,4.3-1.5,8.5-4.9,11.2c-1.7,1.4-3.6,2.4-5.6,3c-2,0.6-4.2,0.9-6.3,0.8
					c-4.3-0.2-8.3-1.8-11.6-4.5c-1.6-1.3-3-2.9-4.1-4.7c-1.1-1.8-1.7-3.8-2-5.8c0-0.2,0.1-0.4,0.3-0.4c0.2,0,0.3,0.1,0.4,0.3l0,0
					c1.1,3.7,3.4,7,6.5,9.2c3.1,2.2,6.7,3.5,10.5,3.7c1.9,0.1,3.7-0.1,5.5-0.6c1.8-0.5,3.5-1.3,5-2.4c3.1-2.3,5-5.8,5.3-9.6
					c0-0.2,0.2-0.4,0.5-0.4C309.5,281,309.7,281.2,309.7,281.4L309.7,281.4z"/>
				<path id="Path_3017" class="st9" d="M222.5,213.2c-4.1-0.7-8.3,0.1-11.9,2.2c-6.4,3.8-9,11.1-8.3,19.7c0.6,6.2,2.6,12.1,6,17.3
					c9.1,14.3,25.1,20.9,35.6,14.7c3.9-2.4,6.7-6.2,7.9-10.6c2.2-7.7,0.2-17.4-5.6-26.4L222.5,213.2z"/>
				<path id="Path_3018" class="st2" d="M210.5,215.3c-1.6,1.1-3.1,2.6-4.2,4.2c-1.1,1.6-1.9,3.4-2.4,5.3c-0.5,1.9-0.8,3.8-0.8,5.8
					c0,2,0.1,3.9,0.4,5.8c0.3,1.9,0.8,3.8,1.4,5.7c0.6,1.9,1.4,3.7,2.3,5.4c1.8,3.5,4,6.7,6.6,9.6c2.6,2.9,5.6,5.4,9,7.3
					c3.3,2,7,3.2,10.9,3.6c1.9,0.2,3.8,0.1,5.7-0.3c1.9-0.4,3.7-1.2,5.3-2.2c1.6-1.1,3.1-2.4,4.3-4c1.2-1.6,2.1-3.4,2.8-5.3
					c-0.2,1-0.5,2-0.8,2.9c-0.4,1-0.8,1.9-1.3,2.8c-1.1,1.8-2.4,3.4-4.1,4.7c-1.7,1.3-3.6,2.3-5.6,2.9c-2.1,0.6-4.2,0.8-6.3,0.8
					c-4.2-0.2-8.4-1.4-12.1-3.5c-3.7-2-7-4.7-9.8-7.8c-2.8-3.1-5.1-6.6-7-10.4c-1.8-3.8-3-7.8-3.4-12c-0.5-4.2,0-8.4,1.3-12.4
					c0.7-2,1.8-3.8,3.1-5.4c0.2-0.2,0.3-0.4,0.5-0.6l0.6-0.5c0.4-0.4,0.8-0.7,1.2-1c0.4-0.3,0.8-0.6,1.3-0.9
					C209.7,215.8,210.1,215.6,210.5,215.3"/>
				<path id="Path_3019" class="st2" d="M362.3,268.4c-3,0.1-6-0.6-8.6-2.1c-1.3-0.8-2.5-1.8-3.5-2.9c-1-1.2-1.8-2.5-2.3-4
					c-1-3-0.7-6.4,0.8-9.2c0.7-1.4,1.7-2.6,2.9-3.7c1.2-1,2.5-1.9,3.9-2.5c1.4-0.6,2.9-1.1,4.4-1.3c1.5-0.2,3.1-0.3,4.6-0.1
					c1.5,0.2,3,0.6,4.5,1.1c1.4,0.6,2.8,1.4,4,2.3c2.5,1.9,4.1,4.7,4.6,7.8c0.2,1.5,0.1,3.1-0.3,4.5c-0.2,0.7-0.5,1.4-0.8,2.1
					c-0.4,0.7-0.8,1.3-1.2,1.9c-0.1,0.2-0.3,0.2-0.5,0.1c-0.1-0.1-0.2-0.3-0.1-0.5l0,0c1.5-2.3,2-5.1,1.5-7.9
					c-0.6-2.6-2.2-5-4.4-6.5c-4.5-3.2-10.3-3.7-15.3-1.4c-2.4,1.1-4.4,2.9-5.8,5.2c-1.3,2.3-1.6,5-0.8,7.5c0.8,2.6,2.5,4.7,4.8,6.2
					c2.3,1.5,5,2.4,7.8,2.6c0.2,0,0.4,0.2,0.4,0.4S362.5,268.5,362.3,268.4"/>
				<path id="Path_3020" class="st2" d="M380.4,248.6c1.7,2.4,2.7,5.3,2.8,8.2c0.1,3-0.7,6-2.3,8.6c-1.5,2.6-3.7,4.7-6.2,6.3
					c-2.5,1.6-5.3,2.7-8.2,3.2c-2.9,0.5-5.9,0.5-8.8-0.1c-2.9-0.6-5.7-1.7-8.1-3.3c-2.5-1.6-4.5-3.8-6-6.4c-1.4-2.6-2.1-5.5-1.9-8.4
					c0-0.2,0.2-0.3,0.4-0.3c0.2,0,0.3,0.2,0.3,0.3l0,0c0.1,2.7,1,5.4,2.4,7.7c1.5,2.3,3.5,4.1,5.8,5.5c4.7,2.8,10.2,3.7,15.5,2.7
					c2.6-0.5,5.2-1.4,7.4-2.8c1.1-0.7,2.2-1.5,3.2-2.4c0.5-0.5,0.9-1,1.3-1.5l0.6-0.8c0.1-0.1,0.2-0.3,0.3-0.4l0.3-0.4l0.5-0.8
					c0.2-0.3,0.3-0.6,0.4-0.9c0.3-0.6,0.5-1.2,0.7-1.8c0.1-0.3,0.2-0.6,0.3-1l0.2-1c0.1-0.7,0.2-1.3,0.2-2c0.1-2.7-0.6-5.4-1.9-7.8
					c-0.1-0.2-0.1-0.5,0.1-0.6C380,248.3,380.3,248.4,380.4,248.6"/>
				<g id="Group_3821" transform="translate(79.688 123.682)" class="st3">
					<g id="Group_3820">
						<g>
							<defs>
								<rect id="SVGID_00000071559256708788564880000017359474361099642300_" x="201.7" y="146.1" width="21.6" height="19.5"/>
							</defs>
							<clipPath id="SVGID_00000145032278444252955060000011265200521342898817_">
								<use xlink:href="#SVGID_00000071559256708788564880000017359474361099642300_"  style="overflow:visible;"/>
							</clipPath>
							<g id="Group_3819" style="clip-path:url(#SVGID_00000145032278444252955060000011265200521342898817_);">
								<path id="Path_3021" class="st2" d="M201.9,157.6c0.9,3.9,4.1,6.9,8,7.7c5.8,1.4,11.6-1.3,13.1-6.1c0.2-0.7,0.3-1.3,0.3-2
									c0.4-7.5-6.1-10.9-11.4-11C205.9,146,200.8,149.8,201.9,157.6"/>
							</g>
						</g>
					</g>
				</g>
				<path id="Path_3022" class="st9" d="M282.2,281.7c0.9,3.9,4.1,6.9,8,7.7c5.8,1.4,11.6-1.3,13.1-6.1c0.2-0.7,0.3-1.3,0.3-2
					c-1.8-2.6-4.4-4.4-7.5-5.1C290.3,274.7,284.3,277.1,282.2,281.7"/>
				<path id="Path_3023" class="st2" d="M294.8,269.8c2.3,0.5,4.5,1.7,6.1,3.4c0.9,0.9,1.6,1.9,2.1,2.9c0.6,1.1,0.9,2.3,1,3.6
					c0.1,1.3,0,2.5-0.4,3.7c-0.4,1.2-1,2.3-1.8,3.3c-1.7,1.9-4,3.1-6.5,3.5c-5,0.8-9.9-1.3-12.9-5.3c-1.4-2-2.1-4.5-1.9-6.9
					c0.3-2.4,1.5-4.6,3.5-6.1l0,0c0.2-0.1,0.4-0.1,0.5,0.1c0.1,0.1,0.1,0.3,0,0.4c-1.5,1.5-2.4,3.5-2.5,5.7c0,2.1,0.7,4.1,2,5.7
					c2.6,3.3,6.8,4.9,10.9,4.2c2-0.3,3.8-1.3,5.2-2.8c1.3-1.5,2-3.4,1.9-5.4c-0.1-2.1-0.9-4-2.3-5.6c-1.4-1.6-3.2-2.9-5.2-3.6l0,0
					c-0.2-0.1-0.3-0.3-0.2-0.6C294.4,269.8,294.6,269.7,294.8,269.8"/>
				<g id="Group_3824" transform="translate(22.555 85.242)" class="st3">
					<g id="Group_3823">
						<g>
							<defs>
								<rect id="SVGID_00000080183580032506331680000015429474221188498326_" x="184.9" y="134.8" width="39.7" height="42"/>
							</defs>
							<clipPath id="SVGID_00000158714887454178779880000005708850229738866356_">
								<use xlink:href="#SVGID_00000080183580032506331680000015429474221188498326_"  style="overflow:visible;"/>
							</clipPath>
							<g id="Group_3822" style="clip-path:url(#SVGID_00000158714887454178779880000005708850229738866356_);">
								<path id="Path_3024" class="st2" d="M216.7,143.7c-8.7-9.5-21.2-11.7-27.8-5c-6.6,6.7-4.9,19.8,3.9,29.3
									c8.7,9.5,21.2,11.7,27.8,5C227.2,166.3,225.5,153.2,216.7,143.7"/>
							</g>
						</g>
					</g>
				</g>
				<path id="Path_3025" class="st9" d="M233.4,235.8c-8.2-7.6-18.4-9.4-22.9-3.9s-1.5,16.1,6.7,23.7c8.2,7.6,18.4,9.4,22.9,3.9
					C244.5,254.1,241.5,243.5,233.4,235.8"/>
				<path id="Path_3026" class="st2" d="M231,261.9c2.1,0.2,4.2,0,6.2-0.7c1.9-0.7,3.6-1.9,4.9-3.4c1.3-1.5,2.2-3.4,2.7-5.3
					c0.5-2,0.7-4,0.5-6.1c-0.3-4.2-1.6-8.2-3.7-11.8c-2.1-3.6-4.8-6.8-8.2-9.3c-3.2-2.5-7.1-4.1-11.2-4.4c-2-0.1-3.9,0.2-5.8,1
					c-1.8,0.8-3.3,2.1-4.5,3.7c-1.2,1.7-2,3.5-2.4,5.5c-0.4,2-0.5,4.1-0.3,6.2c0.4,4.3,1.8,8.4,3.9,12.1c0.1,0.2,0,0.5-0.2,0.6
					c-0.2,0.1-0.4,0.1-0.6-0.1c-2.6-3.7-4.3-7.9-5-12.3c-0.4-2.3-0.3-4.6,0-6.8c0.4-2.3,1.2-4.6,2.5-6.5c1.3-2,3.2-3.6,5.4-4.7
					c2.2-1,4.6-1.5,7-1.4c2.3,0.1,4.7,0.6,6.8,1.5c2.1,0.9,4.2,2,6,3.4c3.7,2.8,6.7,6.2,8.9,10.3c2.3,4,3.6,8.5,3.8,13.1
					c0.1,2.3-0.2,4.6-0.9,6.9c-0.7,2.3-1.9,4.3-3.5,6.1c-1.6,1.7-3.7,2.9-6,3.6c-2.2,0.6-4.5,0.7-6.8,0.2c-0.3-0.1-0.5-0.3-0.4-0.6
					C230.4,262.1,230.7,261.9,231,261.9L231,261.9z"/>
				<path id="Path_3027" class="st2" d="M277.5,231.3c-1.4,1.2-2.3,2.9-2.4,4.7l0,0.6l0.1,0.6c0,0.2,0.1,0.4,0.1,0.6
					c0.1,0.2,0.1,0.4,0.2,0.6c0.2,0.4,0.4,0.8,0.6,1.2c0.1,0.2,0.2,0.4,0.3,0.6l0.4,0.5c1.2,1.4,2.6,2.7,4.2,3.6
					c1.6,1,3.4,1.7,5.2,2.3c0.5,0.1,0.9,0.3,1.4,0.4l1.4,0.3l1.4,0.2c0.5,0.1,0.9,0.1,1.4,0.1c1.9,0.1,3.8,0.1,5.7-0.3
					c1.9-0.3,3.6-1,5.2-2c0.8-0.5,1.5-1.1,2.1-1.8c0.6-0.7,1-1.6,1.2-2.5l0,0c0.1-0.2,0.3-0.3,0.4-0.2c0.2,0,0.3,0.2,0.2,0.4
					c-0.1,1.1-0.4,2.1-1,3c-0.6,0.9-1.3,1.7-2.1,2.4c-1.7,1.3-3.6,2.2-5.7,2.7c-2,0.5-4.1,0.7-6.2,0.6c-2.1-0.1-4.1-0.4-6.1-1
					c-2-0.6-3.9-1.4-5.7-2.5c-0.9-0.6-1.7-1.2-2.5-1.9c-0.4-0.4-0.8-0.7-1.1-1.1l-0.5-0.6c-0.2-0.2-0.3-0.4-0.5-0.6l-0.4-0.7
					c-0.1-0.2-0.3-0.5-0.4-0.7c-0.3-0.5-0.5-1-0.6-1.5c-0.1-0.3-0.1-0.5-0.2-0.8c-0.1-0.3-0.1-0.5-0.1-0.8l0-0.8l0.1-0.8
					c0.2-1.1,0.6-2.1,1.2-3c0.6-0.9,1.4-1.6,2.3-2.2c0.2-0.1,0.5-0.1,0.6,0.1C277.7,231,277.7,231.2,277.5,231.3"/>
				<path id="Path_3028" class="st2" d="M286.8,253.4c2.4,0.7,4.8,1,7.3,0.9c2.4-0.1,4.8-0.7,7.1-1.6c2.3-0.9,4.4-2.2,6.2-3.8
					c1.8-1.6,3-3.8,3.4-6.2v0c0-0.2,0.2-0.3,0.4-0.3c0.2,0,0.3,0.1,0.3,0.3c0.2,1.4,0,2.8-0.5,4c-0.5,1.3-1.2,2.5-2.2,3.5
					c-1.8,2-4.1,3.6-6.7,4.6c-1.3,0.5-2.6,0.9-3.9,1.2c-1.3,0.2-2.7,0.4-4,0.3c-2.7,0-5.4-0.8-7.7-2.1c-0.2-0.1-0.3-0.4-0.1-0.6
					C286.4,253.4,286.6,253.3,286.8,253.4L286.8,253.4z"/>
				<g id="Group_3827" transform="translate(20.505 1.503)" class="st10">
					<g id="Group_3826">
						<g>
							<defs>
								<rect id="SVGID_00000063608788699043937050000003933846701291245231_" x="184.3" y="110.2" width="214.9" height="175"/>
							</defs>
							<clipPath id="SVGID_00000112620306856159744380000009798560654653761691_">
								<use xlink:href="#SVGID_00000063608788699043937050000003933846701291245231_"  style="overflow:visible;"/>
							</clipPath>
							<g id="Group_3825" style="clip-path:url(#SVGID_00000112620306856159744380000009798560654653761691_);">
								<path id="Path_3029" class="st1" d="M398.5,211.2c-1.4-3.6-5.4-5.4-9-4.1c-0.6,0.2-1.1,0.5-1.6,0.8
									c-13.1,9.2-27.8,15.7-43.4,19.2c-26.1,5.9-53.5,2.9-77.7-8.4c0.6,0.5,1.2,1,1.9,1.4c-0.1-0.1-0.2-0.1-0.4-0.2
									c-0.4-0.2-0.8-0.4-1.2-0.5c-0.2-0.1-0.4-0.2-0.5-0.3c-0.3-0.1-0.5-0.2-0.8-0.4c-0.9-0.4-1.9-0.9-2.8-1.4
									c-0.3-0.2-0.6-0.3-0.9-0.5c-2.1-1.1-4.1-2.2-6.2-3.5c-0.1-0.1-0.3-0.2-0.4-0.2c-0.5-0.3-1-0.6-1.5-0.9
									c-2.2-1.3-4.3-2.8-6.3-4.2c-0.3-0.2-0.7-0.5-1-0.7c-1.9-1.4-3.7-2.8-5.4-4.2c-0.9-0.7-1.8-1.5-2.6-2.2
									c-0.9-0.8-1.7-1.5-2.6-2.3c-0.4-0.3-0.7-0.6-1.1-1c-0.3-0.3-0.7-0.6-1-0.9c-0.2-0.2-0.5-0.4-0.7-0.7
									c-1.3-1.2-2.5-2.5-3.7-3.8c-0.4-0.4-0.8-0.9-1.2-1.3c-1.8-2-3.5-4-5.2-6.1c-0.3-0.4-0.6-0.8-0.9-1.1c-0.5-0.6-1-1.3-1.5-2
									c-0.1-0.1-0.2-0.3-0.3-0.4c-0.8-1.1-1.6-2.2-2.3-3.3c-0.7-1-1.3-2-2-3c-2-3.2-3.9-6.4-5.7-9.8c-0.5-0.9-0.9-1.8-1.3-2.7
									c-0.2-0.5-0.5-1-0.7-1.5c-3.8-8.1-6.7-16.5-8.6-25.2c-0.4-1.6-0.7-3.2-0.9-4.7c-0.5-2.6-0.9-5.3-1.2-7.9
									c0-0.4-0.1-0.8-0.1-1.3c-0.2-1.8-0.3-3.5-0.5-5.3c-0.3-3.9-3.6-6.8-7.4-6.5c-0.2,0-0.4,0-0.7,0.1c-0.2,0-0.5,0.1-0.7,0.2
									c-0.3,0.1-0.6,0.2-0.8,0.3c-0.2,0.1-0.3,0.1-0.5,0.2c-0.2,0.1-0.4,0.2-0.5,0.3c-0.7,0.5-1.3,1-1.8,1.7
									c-0.1,0.1-0.1,0.2-0.2,0.3c3.7-1.2,7.6,0.9,8.7,4.5c0.2,0.5,0.3,1.1,0.3,1.7c0.1,2.2,0.3,4.4,0.6,6.5
									c0.5,4.2,1.2,8.4,2.1,12.6c1.9,8.7,4.8,17.2,8.6,25.2c0.7,1.4,1.4,2.8,2.1,4.2c1.7,3.4,3.6,6.6,5.7,9.8
									c1.5,2.3,3,4.5,4.6,6.7c0.8,1.1,1.6,2.1,2.4,3.1c2,2.6,4.2,5,6.4,7.4c1.2,1.3,2.5,2.6,3.7,3.8c0.9,0.9,1.8,1.7,2.7,2.6
									c3.4,3.1,6.9,6,10.6,8.7c0.3,0.3,0.7,0.5,1,0.7c2.1,1.5,4.2,2.9,6.3,4.2c0.5,0.3,1,0.6,1.5,0.9c2.2,1.3,4.4,2.5,6.6,3.7
									c1.2,0.6,2.4,1.2,3.7,1.8c0.3,0.1,0.5,0.3,0.8,0.4c0.2,0.1,0.4,0.2,0.5,0.3c0.4,0.2,0.8,0.4,1.2,0.5c2.1,1,4.3,1.9,6.4,2.7
									c0.6,0.3,1.3,0.5,2,0.7c0.7,0.3,1.4,0.5,2.1,0.8c1.9,0.6,3.8,1.2,5.7,1.8c2.3,0.7,4.6,1.3,7,1.8
									c46,17.3,95.7-12.9,102.2-11.7c4.1,0.7,3.2,6.9,1.3,12.8c-7.9,21.1-21.5,39.6-39.2,53.5c0.1-0.1,0.2-0.1,0.3-0.2l0,0
									c0.3-0.2,0.6-0.4,0.9-0.7c1-0.8,2-1.5,3-2.3c1.3-1,2.5-2,3.7-3.1c2.8-2.4,5.5-4.9,8-7.5c1.6-1.6,3.2-3.3,4.7-5.1
									c1.5-1.7,3-3.5,4.4-5.3c0.7-0.9,1.4-1.8,2.1-2.7c3.4-4.6,6.4-9.5,9.1-14.5c0.6-1.1,1.2-2.2,1.7-3.3c0.3-0.6,0.5-1.1,0.8-1.7
									c3.5-7.3,6.2-14.9,8.2-22.8C399.5,214.4,399.3,212.7,398.5,211.2"/>
							</g>
						</g>
					</g>
				</g>
				<path id="Path_3030" class="st2" d="M301.9,311.4c-55-0.1-103.4-36.4-118.8-89.3c-0.4-1.2-0.7-2.4-0.9-3.4
					c-0.3-1.1-0.6-2.2-0.8-3.5c-0.2-0.9-0.4-1.8-0.6-2.7c-0.2-0.9-0.4-1.8-0.5-2.7c-0.2-0.9-0.3-1.8-0.4-2.6c-0.1-0.5-0.1-1-0.2-1.4
					c-0.1-0.3-0.1-0.7-0.1-1l0-0.3c-0.1-0.5-0.1-0.9-0.2-1.4c-0.1-0.5-0.1-0.9-0.2-1.4c0-0.4-0.1-0.9-0.1-1.4c0-0.5-0.1-0.9-0.1-1.3
					c0-0.5-0.1-0.9-0.1-1.4l0-0.2c0-0.4-0.1-0.8-0.1-1.1c0-0.1,0-0.3,0-0.5l-0.1-1c0-0.4,0-0.9-0.1-1.3c-0.1-2.2-0.1-4.4-0.1-6.5
					l0-1c0-0.6,0-1.1,0-1.7c0-0.3,0-0.6,0-0.9c0.1-1.9,0.2-3.8,0.4-5.7l0.1-1c0-0.2,0-0.3,0-0.5c0-0.4,0.1-0.8,0.1-1.3
					c0.2-1.7,0.4-3.4,0.7-5.2c0.1-0.4,0.1-0.9,0.2-1.3c0.6-3.4,1.3-6.8,2.1-10.2c0.2-0.8,0.4-1.6,0.6-2.4c0.5-1.7,1-3.4,1.5-5
					c0.1-0.3,0.2-0.7,0.3-1.1c0.5-1.7,1.2-3.4,1.8-5.1c0.3-0.7,0.6-1.5,0.9-2.2c0.4-1,0.8-2.1,1.3-3.1c0.2-0.5,0.5-1,0.7-1.6
					c1.5-3.4,3.2-6.8,5.1-10.1c0.6-1.1,1.3-2.2,2-3.3c0.4-0.6,0.8-1.3,1.2-1.9c0.4-0.7,0.8-1.3,1.3-2c0.8-1.1,1.5-2.3,2.4-3.5
					c0.6-0.8,1.1-1.5,1.7-2.3c0.3-0.4,0.6-0.8,0.9-1.1c0.2-0.3,0.4-0.5,0.6-0.7c0,0,0.1-0.1,0.1-0.2c0.1-0.1,0.2-0.2,0.3-0.3
					c0.1-0.1,0.1-0.1,0.2-0.2l0.1-0.1l0.1-0.1c0.1-0.1,0.2-0.2,0.3-0.2l0.1-0.1c0.1,0,0.1-0.1,0.2-0.1l0.1,0c1.4-1,3.1-1.5,4.8-1.6
					c0,0,0.1,0,0.1,0h0.2h0c0.4,0,0.8,0,1.1,0.1c4,0.5,7.1,3.7,7.6,7.7c0,0.2,0,0.4,0.1,0.6c0,0.6,0.1,1.2,0.1,1.8
					c0,0.4,0.1,0.8,0.1,1.1c0.1,0.7,0.1,1.3,0.2,2c0,0.4,0.1,0.8,0.1,1.2c0.3,2.3,0.6,4.6,1,6.8c0.1,0.4,0.1,0.8,0.2,1.2
					c0.1,0.4,0.1,0.8,0.2,1.2c0.2,1,0.4,2,0.6,2.9l0.1,0.5c0.1,0.3,0.2,0.7,0.2,1l0,0.2c0.1,0.4,0.2,0.9,0.3,1.3
					c0.1,0.3,0.1,0.5,0.2,0.8c0.1,0.4,0.2,0.8,0.3,1.1c0,0.1,0,0.2,0.1,0.3l0,0.1c0.1,0.5,0.3,1,0.4,1.5c0.2,0.6,0.3,1.1,0.5,1.7
					c0.2,0.7,0.4,1.5,0.7,2.2c0.1,0.4,0.2,0.8,0.4,1.1l0.2,0.7c5.6,16.8,14.9,32.1,27.3,44.8c20.1,20.9,47.1,33.7,76,36.2
					c6.8,0.6,13.6,0.6,20.3,0c0.3,0,0.5,0,0.8-0.1l0.4,0l0.6-0.1c0.5,0,0.9-0.1,1.3-0.1c0.3,0,0.5-0.1,0.8-0.1
					c0.7-0.1,1.5-0.2,2.2-0.3c0.9-0.1,1.9-0.3,2.8-0.4c0.5-0.1,1.1-0.2,1.6-0.3c0.6-0.1,1.2-0.2,1.7-0.3l0.1,0
					c0.6-0.1,1.1-0.2,1.7-0.3c0.5-0.1,1.1-0.2,1.6-0.4c2.9-0.6,5.9-1.4,8.8-2.3c0.5-0.1,1-0.3,1.4-0.4c0.5-0.2,1-0.3,1.4-0.5
					c0.5-0.2,0.9-0.3,1.4-0.5l0.1,0c8.8-3,17.1-7,25-12l0.4-0.2c0.3-0.2,0.6-0.4,0.9-0.5l1-0.6c0.5-0.3,1-0.7,1.5-1l1.2-0.8
					c1-0.7,2.2-1.2,3.4-1.5c0.2,0,0.4-0.1,0.6-0.1c0.4-0.1,0.8-0.1,1.2-0.1l0.5,0c0.6,0,1.2,0.1,1.8,0.3c1.2,0.4,2.4,1,3.4,1.8
					c1.3,1.1,2.3,2.6,2.8,4.2c0.4,1.3,0.5,2.6,0.3,3.9c0,0.1,0,0.3-0.1,0.4s-0.1,0.3-0.1,0.4c-0.3,1-0.5,2.1-0.9,3.3
					c-0.2,0.5-0.3,1.1-0.5,1.6c-0.5,1.6-1,3.2-1.6,4.9c-0.4,1.2-0.8,2.2-1.1,3.2c-1.8,4.7-3.8,9.3-6.1,13.8
					c-0.2,0.5-0.5,0.9-0.7,1.4c-0.3,0.5-0.6,1-0.8,1.5c-0.3,0.5-0.5,0.9-0.8,1.4c-0.7,1.2-1.3,2.2-1.9,3.1c-1.2,1.9-2.4,3.9-3.7,5.7
					c-0.1,0.1-0.2,0.2-0.2,0.3l-0.4,0.6c-0.1,0.2-0.3,0.4-0.4,0.5l0,0.1c0,0-0.1,0.1-0.1,0.1l-0.2,0.3c-0.1,0.2-0.3,0.4-0.4,0.6
					l-0.3,0.4c-0.1,0.1-0.2,0.2-0.2,0.3c-0.1,0.2-0.3,0.4-0.4,0.6l0,0.1c-0.1,0.1-0.2,0.3-0.3,0.4c-0.1,0.2-0.3,0.4-0.4,0.6
					l-0.4,0.5c-0.1,0.1-0.2,0.2-0.3,0.3c0,0.1-0.1,0.1-0.1,0.2c-0.3,0.4-0.6,0.8-0.9,1.1c0,0.1-0.1,0.1-0.1,0.2
					c-0.2,0.2-0.4,0.5-0.6,0.7l-0.1,0.1c-0.1,0.1-0.2,0.3-0.4,0.4c-0.3,0.4-0.7,0.8-1,1.3c-0.1,0.1-0.1,0.1-0.1,0.1
					c-0.1,0.1-0.1,0.1-0.2,0.2c-0.1,0.2-0.3,0.3-0.4,0.5c-0.1,0.2-0.3,0.4-0.5,0.5c-0.1,0.1-0.1,0.2-0.2,0.3l-0.2,0.2
					c-0.2,0.2-0.4,0.5-0.6,0.7l-0.2,0.2c-0.2,0.3-0.5,0.6-0.8,0.9c-0.1,0.1-0.2,0.2-0.3,0.3l-0.1,0.1c-0.2,0.2-0.4,0.5-0.6,0.7l0,0
					c-0.1,0.1-0.2,0.2-0.3,0.3c-0.2,0.2-0.3,0.4-0.5,0.6l-0.3,0.3c-0.2,0.2-0.4,0.4-0.6,0.6l-0.3,0.3c-0.3,0.3-0.6,0.6-0.9,0.9
					c-0.1,0.1-0.1,0.1-0.2,0.2l-0.8,0.8c-0.1,0.1-0.2,0.2-0.3,0.3l-0.6,0.6c-0.2,0.2-0.5,0.5-0.7,0.7c-0.3,0.3-0.5,0.5-0.8,0.8
					c-0.1,0.1-0.2,0.2-0.4,0.3c-0.3,0.3-0.6,0.6-0.9,0.9c-0.1,0.1-0.2,0.2-0.4,0.3l-0.1,0.1c-0.1,0.1-0.2,0.1-0.3,0.2l-0.1,0.1
					c-0.1,0.1-0.2,0.2-0.4,0.3c-0.2,0.1-0.4,0.3-0.6,0.5l-0.1,0.1c0,0-0.1,0.1-0.1,0.1l-0.1,0.1c-0.3,0.3-0.7,0.6-1,0.9
					c-0.1,0.1-0.2,0.2-0.4,0.3c-0.3,0.2-0.6,0.5-0.9,0.7l-0.2,0.2c-0.1,0.1-0.1,0.1-0.2,0.2c-0.1,0.1-0.2,0.2-0.3,0.2
					c-0.3,0.2-0.6,0.5-0.9,0.7l0,0l-0.4,0.3c-0.2,0.2-0.5,0.4-0.7,0.6c-0.1,0.1-0.2,0.2-0.4,0.3c-0.4,0.3-0.7,0.6-1.1,0.8
					c-0.2,0.1-0.4,0.3-0.6,0.5c-0.2,0.2-0.4,0.3-0.7,0.5l0,0l-1.5,1.1c-0.1,0-0.1,0.1-0.2,0.2c-0.3,0.2-0.5,0.4-0.8,0.6l-0.3,0.2
					c-0.7,0.5-1.5,1-2.5,1.6c-1.1,0.7-2.1,1.4-3.1,2c-0.3,0.2-0.7,0.4-1.1,0.6c-0.1,0-0.1,0.1-0.2,0.1c-0.2,0.1-0.4,0.2-0.6,0.3
					c-0.2,0.1-0.4,0.2-0.6,0.4c-0.3,0.2-0.6,0.3-0.9,0.5l-0.2,0.1c-0.4,0.2-0.8,0.4-1.1,0.6c-0.1,0-0.2,0.1-0.2,0.1
					c-0.3,0.2-0.6,0.3-0.9,0.5s-0.7,0.4-1,0.5c-0.2,0.1-0.5,0.3-0.7,0.4c-0.1,0-0.2,0.1-0.3,0.1c-0.1,0-0.2,0.1-0.3,0.2
					c-0.3,0.1-0.5,0.3-0.8,0.4c-0.5,0.2-0.9,0.5-1.4,0.7c-0.7,0.3-1.4,0.7-2.1,1l-1.5,0.7l0,0l-0.3,0.1l-1.1,0.5l0,0
					c-0.2,0.1-0.5,0.2-0.7,0.3l-0.5,0.2c-0.2,0.1-0.5,0.2-0.7,0.3c-0.1,0-0.2,0.1-0.3,0.1c-0.1,0.1-0.3,0.1-0.4,0.2l-0.3,0.1
					c-0.2,0.1-0.4,0.1-0.6,0.2c0,0-0.1,0-0.2,0.1l-0.3,0.1c-0.3,0.1-0.5,0.2-0.8,0.3l-0.1,0c-0.1,0-0.2,0.1-0.3,0.1l-0.1,0
					c-0.2,0.1-0.3,0.1-0.5,0.2c-0.1,0.1-0.3,0.1-0.4,0.2l-0.3,0.1c-0.1,0-0.1,0.1-0.2,0.1c-0.1,0-0.2,0.1-0.3,0.1
					c-0.2,0.1-0.4,0.1-0.6,0.2l-0.7-1.8l0.6,1.8l-0.4,0.2c-0.1,0-0.2,0.1-0.3,0.1c-0.2,0.1-0.4,0.2-0.7,0.2L341,305
					c-0.3,0.1-0.7,0.2-1,0.3l-1,0.3c-0.3,0.1-0.7,0.2-1,0.3c-0.5,0.2-1,0.3-1.5,0.4c-0.1,0-0.2,0.1-0.3,0.1l-0.5,0.2l0,0l-1.7,0.5
					c-0.4,0.1-0.7,0.2-1.1,0.3l-0.7,0.2c-0.2,0.1-0.4,0.1-0.6,0.2c-0.1,0-0.3,0.1-0.4,0.1c-0.3,0.1-0.5,0.1-0.7,0.2
					c-0.1,0-0.2,0.1-0.4,0.1c-0.2,0-0.4,0.1-0.6,0.1l-0.1,0c-0.2,0.1-0.5,0.1-0.7,0.2c-0.2,0-0.4,0.1-0.6,0.1l-0.3,0.1
					c-0.2,0-0.4,0.1-0.6,0.1l-0.4,0.1l0,0l-1,0.2c-0.4,0.1-0.7,0.1-1.1,0.2c-0.2,0-0.4,0.1-0.7,0.1l-0.2,0c-0.3,0.1-0.6,0.1-0.9,0.2
					l-0.1,0c-0.1,0-0.1,0-0.2,0c-0.4,0.1-0.9,0.2-1.3,0.2l-0.3,0c-0.4,0.1-0.7,0.1-1.1,0.2c-0.3,0-0.6,0.1-0.9,0.1l-1.8,0.2
					c-0.5,0.1-0.9,0.1-1.4,0.2c-0.3,0-0.6,0.1-1,0.1l-0.4,0C310.3,311.2,306.1,311.4,301.9,311.4 M207.3,114.9L207.3,114.9
					c-0.1,0.1-0.1,0.1-0.2,0.2l-0.1,0.1c-0.1,0.1-0.2,0.3-0.3,0.4c-0.3,0.4-0.6,0.7-0.8,1.1c-0.5,0.7-1.1,1.5-1.6,2.2
					c-0.8,1.2-1.6,2.3-2.3,3.4c-0.4,0.6-0.8,1.3-1.2,1.9c-0.4,0.6-0.8,1.2-1.1,1.8c-0.6,1.1-1.3,2.2-1.9,3.2
					c-1.8,3.2-3.4,6.5-4.9,9.8l0,0c-0.2,0.5-0.4,1-0.7,1.5c-0.4,1-0.8,2-1.2,3c-0.3,0.7-0.6,1.4-0.8,2.1c-0.6,1.7-1.2,3.3-1.8,5
					c-0.1,0.3-0.2,0.7-0.3,1c-0.5,1.6-1,3.2-1.4,4.9c-0.2,0.8-0.4,1.6-0.6,2.3c-0.8,3.3-1.5,6.6-2,9.9c-0.1,0.4-0.1,0.8-0.2,1.2
					c-0.3,1.7-0.5,3.4-0.7,5.1c0,0.4-0.1,0.8-0.1,1.3c0,0.2,0,0.3,0,0.4l-0.1,1c-0.2,1.8-0.3,3.7-0.3,5.6c0,0.3,0,0.5,0,0.8v0.1
					c0,0.5,0,1.1,0,1.6l0,1c0,2.1,0,4.2,0.1,6.3c0,0.4,0,0.9,0.1,1.3l0.1,1c0,0.2,0,0.3,0,0.5c0,0.4,0.1,0.7,0.1,1.1l0,0.2
					c0,0.4,0.1,0.8,0.1,1.3c0,0.5,0.1,0.9,0.1,1.4s0.1,0.9,0.1,1.3c0,0.4,0.1,0.9,0.2,1.3c0.1,0.4,0.1,0.9,0.2,1.3l0,0.3
					c0,0.3,0.1,0.7,0.1,1c0.1,0.5,0.1,0.9,0.2,1.4c0.1,0.9,0.3,1.7,0.4,2.6c0.2,0.9,0.3,1.8,0.5,2.6c0.2,0.9,0.4,1.8,0.6,2.6
					c0.3,1.2,0.5,2.3,0.8,3.4c0.3,1,0.6,2.1,0.9,3.3c14.7,51.2,61.4,86.5,114.7,86.5c4.2,0,8.4-0.2,12.5-0.6l0.4,0
					c0.3,0,0.6-0.1,0.9-0.1c0.4-0.1,0.9-0.1,1.3-0.2l1.8-0.2c0.3,0,0.6-0.1,0.9-0.1c0.4-0.1,0.7-0.1,1-0.2l0.3-0.1
					c0.4-0.1,0.9-0.1,1.3-0.2l0.1,0l0.2,0c0.3,0,0.6-0.1,0.9-0.2l0.3,0c0.2,0,0.4-0.1,0.6-0.1l0.3-0.1l0-0.1l1.1-0.2
					c0.3-0.1,0.7-0.1,1.1-0.2c0.2,0,0.3-0.1,0.5-0.1l0.3-0.1c0.2,0,0.4-0.1,0.6-0.1l0.6-0.1l0.1,0c0.2,0,0.4-0.1,0.6-0.2l0.1,0
					c0.1,0,0.1,0,0.2,0l0.1,0c0.2-0.1,0.5-0.1,0.7-0.2c0.1,0,0.2-0.1,0.3-0.1l0.1,0c0.2,0,0.4-0.1,0.6-0.1l0.7-0.2
					c0.3-0.1,0.7-0.2,1.1-0.3l0.8-0.2c0.4-0.1,0.9-0.3,1.3-0.4l0.2-0.1c0.5-0.1,1-0.3,1.5-0.4c0.3-0.1,0.7-0.2,1-0.3l1-0.3
					c0.3-0.1,0.6-0.2,1-0.3l0.5-0.2c0.2-0.1,0.4-0.1,0.6-0.2l0.1,0c0,0,0.1,0,0.1,0l0.5-0.2c0.1,0,0.1,0,0.2-0.1
					c0.2-0.1,0.3-0.1,0.5-0.2l0.1,0c0.1,0,0.2-0.1,0.2-0.1l0.3-0.1c0.1,0,0.2-0.1,0.3-0.1c0.1,0,0.2-0.1,0.3-0.1l0.1,0
					c0.2-0.1,0.3-0.1,0.5-0.2l0.2-0.1c0.1,0,0.1-0.1,0.2-0.1l0.1,0c0.2-0.1,0.5-0.2,0.7-0.3l0.5-0.2c0.2-0.1,0.4-0.1,0.6-0.2
					l0.3-0.1c0.1-0.1,0.3-0.1,0.4-0.2l0.3-0.1c0.2-0.1,0.4-0.2,0.6-0.2l0.5-0.2c0.3-0.1,0.6-0.2,0.9-0.4c0.2-0.1,0.3-0.2,0.5-0.2
					l0.4-0.2l1-0.5l0.9-0.5l0.1,0.1c0.6-0.3,1.3-0.6,1.9-0.9c0.5-0.2,0.9-0.4,1.4-0.7c0.3-0.1,0.5-0.3,0.8-0.4l0.1,0
					c0.1,0,0.1-0.1,0.2-0.1l0.1,0c0,0,0.1,0,0.1-0.1l0.1,0c0.2-0.1,0.5-0.2,0.7-0.4c0.4-0.2,0.7-0.4,1-0.5c0.3-0.2,0.6-0.3,0.9-0.5
					l0.2-0.1c0.4-0.2,0.8-0.4,1.1-0.6l0.3-0.1c0.3-0.2,0.6-0.3,0.9-0.5c0.2-0.1,0.4-0.2,0.6-0.3c0.2-0.1,0.4-0.2,0.6-0.3l0.1-0.1
					c0.4-0.2,0.7-0.4,1.1-0.6c1-0.6,1.9-1.2,3-1.9c0.9-0.6,1.7-1.1,2.4-1.6l0.3-0.2c0.3-0.2,0.5-0.4,0.8-0.6
					c0.1-0.1,0.1-0.1,0.2-0.1l1.2-0.8c0.4-0.3,0.7-0.5,1-0.7c0.2-0.2,0.4-0.3,0.6-0.4c0.4-0.3,0.7-0.5,1.1-0.8l0.1-0.1
					c0.1-0.1,0.2-0.1,0.2-0.2c0.3-0.2,0.5-0.4,0.7-0.6l0.4-0.3c0.3-0.2,0.6-0.5,0.9-0.7l0,0c0.1,0,0.1-0.1,0.2-0.1l0.4-0.4
					c0.3-0.2,0.6-0.5,0.9-0.7c0.1-0.1,0.2-0.2,0.3-0.3c0.4-0.3,0.7-0.6,1-0.9l0.3-0.2c0.2-0.2,0.4-0.3,0.5-0.5
					c0.1-0.1,0.2-0.2,0.3-0.3l0.1-0.1c0.1-0.1,0.1-0.1,0.2-0.2l0.1-0.1c0.1-0.1,0.2-0.2,0.3-0.3c0.3-0.3,0.6-0.6,0.9-0.9l0,0
					c0.1-0.1,0.2-0.1,0.2-0.2l0.1-0.1c0.3-0.2,0.5-0.5,0.8-0.7c0.2-0.2,0.5-0.4,0.7-0.7l0.6-0.6c0.1-0.1,0.1-0.1,0.2-0.2l0.9-0.9
					c0.3-0.3,0.6-0.6,0.9-0.9l0.3-0.3c0.2-0.2,0.4-0.4,0.5-0.6l0.2-0.3c0.2-0.2,0.4-0.4,0.5-0.6c0.1-0.1,0.2-0.2,0.2-0.3l0.1-0.1
					c0.2-0.2,0.4-0.4,0.6-0.7l0.1-0.1c0.1-0.1,0.2-0.2,0.2-0.3l0,0c0.3-0.3,0.5-0.6,0.8-0.9l0.2-0.2c0.2-0.2,0.4-0.4,0.6-0.7
					c0,0,0.1-0.1,0.1-0.1l0.1-0.1c0.1-0.1,0.1-0.1,0.2-0.2l0.1-0.1c0.1-0.2,0.3-0.3,0.4-0.5c0.1-0.2,0.3-0.3,0.4-0.5
					c0.1-0.1,0.2-0.2,0.3-0.3c0,0,0-0.1,0.1-0.1c0.3-0.4,0.6-0.8,1-1.2c0.1-0.2,0.2-0.3,0.4-0.4l0.1-0.1c0.2-0.2,0.4-0.5,0.6-0.7
					l0.1-0.2c0.3-0.3,0.6-0.7,0.8-1.1c0,0,0.1-0.1,0.1-0.1l0.1-0.2c0,0,0.1-0.1,0.1-0.2l0.4-0.6c0.1-0.2,0.3-0.3,0.4-0.5l0.1-0.1
					c0.1-0.1,0.2-0.2,0.3-0.3l0,0c0.2-0.2,0.3-0.4,0.4-0.6l0-0.1c0.1-0.1,0.1-0.1,0.2-0.2l0.4-0.5c0.1-0.2,0.2-0.3,0.4-0.5l0.3-0.5
					c0.1-0.2,0.3-0.4,0.4-0.5l0.2-0.4l0.2-0.2c0.1-0.1,0.1-0.2,0.2-0.3c1.3-1.8,2.5-3.7,3.6-5.6c0.6-0.9,1.1-1.9,1.8-3
					c0.2-0.4,0.5-0.9,0.8-1.3c0.3-0.5,0.5-1,0.8-1.5c0.2-0.4,0.5-0.9,0.7-1.3c2.2-4.3,4.2-8.8,5.9-13.4c0.4-0.9,0.7-2,1.1-3.1
					c0.5-1.6,1-3.2,1.5-4.7c0.2-0.5,0.3-1.1,0.5-1.6c0.3-1.1,0.6-2.2,0.9-3.2c0-0.1,0-0.2,0.1-0.3c0-0.1,0-0.1,0-0.2
					c0.1-0.7,0.1-1.5-0.1-2.2c-0.3-0.9-0.8-1.8-1.6-2.4c-0.6-0.5-1.2-0.8-2-1c-0.4-0.1-0.8-0.2-1.3-0.2h-0.1c-0.2,0-0.3,0-0.5,0
					l-0.1,0c-0.1,0-0.2,0-0.3,0c-0.7,0.1-1.4,0.4-1.9,0.8l-1.2,0.8c-0.5,0.4-1,0.7-1.6,1.1l-1,0.6c-0.3,0.2-0.6,0.4-0.9,0.6
					l-0.4,0.2c-8.1,5.1-16.7,9.3-25.8,12.4l-0.1,0c-0.5,0.2-0.9,0.3-1.4,0.5c-0.5,0.2-1,0.3-1.5,0.5c-0.5,0.2-1,0.3-1.4,0.4
					c-3,0.9-6.1,1.7-9.1,2.4c-0.6,0.1-1.1,0.2-1.7,0.4c-0.6,0.1-1.2,0.2-1.8,0.4l-0.1,0c-0.6,0.1-1.2,0.2-1.8,0.3
					c-0.6,0.1-1.1,0.2-1.7,0.3c-1,0.2-1.9,0.3-2.9,0.4c-0.7,0.1-1.5,0.2-2.3,0.3c-0.3,0-0.6,0.1-0.8,0.1c-0.4,0.1-0.9,0.1-1.4,0.1
					c-0.2,0-0.4,0-0.6,0.1l-0.4,0c-0.3,0-0.6,0.1-0.8,0.1c-7,0.6-14,0.6-21,0c-29.8-2.6-57.7-15.8-78.5-37.4
					c-12.7-13.1-22.4-28.9-28.1-46.3l-0.3-0.8c-0.1-0.4-0.3-0.8-0.4-1.2c-0.2-0.8-0.5-1.5-0.7-2.3c-0.2-0.6-0.3-1.1-0.5-1.7
					c-0.1-0.5-0.3-1-0.4-1.5c0-0.1-0.1-0.2-0.1-0.4c-0.1-0.4-0.2-0.7-0.3-1.1c-0.1-0.3-0.1-0.5-0.2-0.8c-0.1-0.4-0.2-0.9-0.3-1.3
					l0-0.2c-0.1-0.4-0.2-0.7-0.2-1.1l-0.1-0.6c-0.2-1-0.4-2-0.6-3c-0.1-0.4-0.2-0.8-0.2-1.3c-0.1-0.4-0.1-0.8-0.2-1.2
					c-0.4-2.3-0.7-4.7-1-7.1c0-0.4-0.1-0.8-0.1-1.3c-0.1-0.6-0.1-1.3-0.2-2c0-0.4-0.1-0.8-0.1-1.2c-0.1-0.6-0.1-1.2-0.1-1.9
					c0-0.1,0-0.2,0-0.4c-0.3-2.3-2.1-4-4.3-4.3c-0.2,0-0.4,0-0.6-0.1h-0.2c-1,0-1.9,0.3-2.7,0.9L207.3,114.9z M325.7,307.2
					L325.7,307.2l0-0.1L325.7,307.2z M351,296.9L351,296.9z M399.1,257.3L399.1,257.3L399.1,257.3z M190.9,138.3L190.9,138.3z"/>
				<path id="Path_3031" class="st9" d="M217.9,174.7c0.4-3.7,0.1-7.3-0.7-10.9c-2.7-11.6-10.4-20.1-17.3-18.9
					c-6.9,1.2-10.3,11.6-7.7,23.2s10.4,20.1,17.3,18.9L217.9,174.7z"/>
				<path id="Path_3032" class="st2" d="M198.2,145.8c-1.7,1.2-3,2.9-3.9,4.8c-0.8,1.9-1.4,4-1.6,6.1c-0.3,2.1-0.3,4.3-0.2,6.4
					c0.1,1.1,0.2,2.1,0.3,3.2c0.1,0.5,0.2,1,0.3,1.5c0.2,0.5,0.3,1,0.5,1.5c1.2,4,3.2,7.8,5.7,11.2c0.6,0.8,1.3,1.6,2.1,2.3
					c0.7,0.7,1.5,1.4,2.4,1.9c0.8,0.6,1.8,1,2.7,1.4c1,0.3,2,0.5,3,0.4h0c0.2,0,0.4,0.1,0.4,0.3c0,0.2-0.1,0.3-0.3,0.3
					c-1.1,0.3-2.3,0.4-3.5,0.2c-1.2-0.2-2.3-0.6-3.3-1.1c-1-0.5-2-1.2-2.9-1.9c-0.9-0.7-1.7-1.6-2.4-2.4c-2.9-3.5-4.9-7.6-5.8-12.1
					c-0.1-0.5-0.2-1.1-0.3-1.6c-0.1-0.6-0.2-1.1-0.3-1.7c-0.1-1.1-0.2-2.2-0.2-3.3c-0.1-2.2,0.1-4.5,0.4-6.7c0.3-2.2,1-4.4,2-6.4
					c1-2.1,2.5-3.8,4.4-5c0.2-0.1,0.5-0.1,0.6,0.1C198.4,145.4,198.4,145.7,198.2,145.8L198.2,145.8"/>
				<g id="Group_3830" transform="translate(14.217 31.946)" class="st3">
					<g id="Group_3829">
						<g>
							<defs>
								<rect id="SVGID_00000049221814201306526370000006961377891405160885_" x="182.5" y="119.1" width="17.8" height="28.1"/>
							</defs>
							<clipPath id="SVGID_00000183957900673899212780000016901033033653653390_">
								<use xlink:href="#SVGID_00000049221814201306526370000006961377891405160885_"  style="overflow:visible;"/>
							</clipPath>
							<g id="Group_3828" style="clip-path:url(#SVGID_00000183957900673899212780000016901033033653653390_);">
								<path id="Path_3033" class="st2" d="M182.6,131.9c0.4,3.4,1.5,6.7,3.2,9.6c1.9,3.1,4.5,5.3,7.1,5.7
									c4.8,0.7,8.1-4.9,7.2-12.6c-0.8-7.4-5-13.9-9.6-15.2c-0.2-0.1-0.4-0.1-0.7-0.1C185,118.5,181.8,124.1,182.6,131.9"/>
							</g>
						</g>
					</g>
				</g>
				<path id="Path_3034" class="st9" d="M212.1,167.6c-3-5.5-7.8-8.3-10.7-6.4s-2.8,8,0.2,13.4c3,5.5,7.8,8.3,10.7,6.4
					S215.1,173.1,212.1,167.6"/>
				<path id="Path_3035" class="st9" d="M213.7,171.5c0.1-2.5-0.2-4.9-0.9-7.2c-0.6-2.3-1.7-4.5-3-6.5c-0.7-1-1.5-1.8-2.3-2.6
					c-0.8-0.7-1.8-1.3-2.8-1.6c-0.9-0.3-2-0.2-2.9,0.2c-0.9,0.5-1.7,1.2-2.2,2.1c-0.6,1-0.9,2.1-1.2,3.2c-0.2,1.2-0.3,2.3-0.3,3.5
					c0,0.6,0,1.2,0.1,1.8c0.1,0.6,0.1,1.2,0.2,1.8c0.2,1.2,0.5,2.4,0.9,3.5c0.4,1.1,0.9,2.3,1.4,3.3c0.6,1.1,1.2,2.1,2,3
					c0.8,0.9,1.7,1.7,2.7,2.3c1,0.6,2.2,0.9,3.3,0.8h0c0.2,0,0.4,0.1,0.4,0.3c0,0.2-0.1,0.3-0.3,0.4c-1.3,0.3-2.7,0.1-4-0.5
					c-1.2-0.6-2.3-1.4-3.2-2.3c-0.9-1-1.7-2-2.4-3.1c-0.7-1.1-1.3-2.3-1.7-3.5c-0.5-1.2-0.8-2.5-1.1-3.8c-0.2-0.6-0.2-1.3-0.3-1.9
					c-0.1-0.7-0.1-1.3-0.1-2c-0.1-1.3,0-2.7,0.3-4c0.2-1.4,0.7-2.7,1.4-3.9c0.7-1.3,1.8-2.4,3.1-3.1c1.4-0.7,3-0.8,4.5-0.3
					c1.4,0.4,2.6,1.2,3.6,2.2c1,0.9,1.9,2,2.6,3.1c0.7,1.1,1.3,2.3,1.8,3.5c0.5,1.2,0.8,2.5,1.1,3.8c0.6,2.5,0.6,5.2,0.2,7.7
					c0,0.2-0.3,0.4-0.5,0.3C213.9,172,213.7,171.8,213.7,171.5L213.7,171.5z"/>
				<g id="Group_3833" transform="translate(88.27 127.759)" class="st3">
					<g id="Group_3832">
						<g>
							<defs>
								<rect id="SVGID_00000107583246512120104460000001445023301846384285_" x="204.3" y="147.3" width="96.1" height="88"/>
							</defs>
							<clipPath id="SVGID_00000173861483401339204990000000369687088364985473_">
								<use xlink:href="#SVGID_00000107583246512120104460000001445023301846384285_"  style="overflow:visible;"/>
							</clipPath>
							<g id="Group_3831" style="clip-path:url(#SVGID_00000173861483401339204990000000369687088364985473_);">
								<path id="Path_3036" class="st2" d="M300.4,187.8c-0.3,26.5-22.1,47.8-48.6,47.5c-26.5-0.3-47.8-22.1-47.5-48.6
									c0.2-14.9,7.3-28.9,19.2-37.9c3.4,16.2,8.8,35.6,15.8,45.8l-9.7,19.7h43.1l-9.7-19.7c7.2-10.6,12.8-30.8,16.1-47.3
									C292.6,156.4,300.6,171.6,300.4,187.8"/>
							</g>
						</g>
					</g>
				</g>
				<path id="Path_3037" class="st1" d="M387.2,327.3L387.2,327.3c-0.5-0.1-0.9-0.6-0.8-1.2l5.1-28.5c0.1-0.5,0.6-0.9,1.2-0.8
					c5.7,1,9.6,6.5,8.5,12.2l-1.7,9.7C398.4,324.5,392.9,328.3,387.2,327.3"/>
				<path id="Path_3038" class="st2" d="M389,327.8c-0.6,0-1.3-0.1-1.9-0.2c-0.7-0.1-1.2-0.8-1.1-1.6l5.1-28.5
					c0.1-0.7,0.8-1.2,1.6-1.1c0,0,0,0,0,0c5.9,1.1,9.9,6.7,8.8,12.6c0,0,0,0,0,0l-1.7,9.7C398.8,324,394.3,327.8,389,327.8
					 M387.2,326.9c5.5,1,10.8-2.7,11.8-8.3c0,0,0,0,0,0l1.7-9.7c1-5.5-2.7-10.8-8.3-11.8c-0.4-0.1-0.7,0.2-0.8,0.5l-5.1,28.5
					C386.6,326.5,386.9,326.9,387.2,326.9"/>
				<g id="Group_3836" transform="translate(160.748 157.956)" class="st3">
					<g id="Group_3835">
						<g>
							<defs>
								<rect id="SVGID_00000075881120666309725310000005829624801367427006_" x="225.6" y="156.2" width="13.9" height="13.3"/>
							</defs>
							<clipPath id="SVGID_00000160892345977104733490000005587317885571978411_">
								<use xlink:href="#SVGID_00000075881120666309725310000005829624801367427006_"  style="overflow:visible;"/>
							</clipPath>
							<g id="Group_3834" style="clip-path:url(#SVGID_00000160892345977104733490000005587317885571978411_);">
								<path id="Path_3039" class="st2" d="M239.5,156.2l-0.8,4.6c-1,5.7-6.5,9.6-12.2,8.5c-0.5-0.1-0.9-0.6-0.8-1.2l1.3-7.6
									c0.1,0.4,0.4,0.7,0.8,0.7l0.7,0.1C232.8,162.2,237.3,160.1,239.5,156.2"/>
							</g>
						</g>
					</g>
				</g>
				<path id="Path_3040" class="st2" d="M389,329.4c-0.7,0-1.5-0.1-2.2-0.2l0,0c-1.6-0.3-2.7-1.8-2.4-3.4l5.1-28.5
					c0.3-1.6,1.8-2.7,3.4-2.4c6.8,1.2,11.3,7.7,10.1,14.5l-1.7,9.7C400.2,325,395.1,329.4,389,329.4 M388.4,325.5
					c4.4,0.3,8.3-2.8,9.1-7.1l1.7-9.7c0.8-4.3-1.8-8.5-6.1-9.8L388.4,325.5z M387.5,325.4L387.5,325.4z"/>
				<path id="Path_3041" class="st1" d="M298.5,280.1L298.5,280.1c0.5,0.1,0.9,0.6,0.8,1.2l-5.1,28.5c-0.1,0.5-0.6,0.9-1.2,0.8
					c-5.7-1-9.6-6.5-8.5-12.2l1.7-9.7C287.2,282.9,292.7,279.1,298.5,280.1"/>
				<path id="Path_3042" class="st2" d="M293.2,310.9c-0.1,0-0.2,0-0.2,0c-5.9-1.1-9.9-6.7-8.8-12.6l1.7-9.7
					c1.1-5.9,6.7-9.9,12.6-8.8c0,0,0,0,0,0c0.7,0.1,1.2,0.8,1.1,1.6l-5.1,28.5C294.4,310.5,293.9,310.9,293.2,310.9 M296.6,280.3
					c-4.9,0-9.2,3.6-10,8.4l-1.7,9.7c-1,5.5,2.7,10.8,8.3,11.8c0.4,0.1,0.7-0.2,0.8-0.5l5.1-28.5c0.1-0.4-0.2-0.7-0.5-0.8
					C297.8,280.3,297.2,280.3,296.6,280.3"/>
				<g id="Group_3839" transform="translate(81.94 142.555)" class="st3">
					<g id="Group_3838">
						<g>
							<defs>
								<rect id="SVGID_00000053523695035398752870000014126244398184461447_" x="202.4" y="151.7" width="11.3" height="16.3"/>
							</defs>
							<clipPath id="SVGID_00000114059198065601854330000015880753150570969236_">
								<use xlink:href="#SVGID_00000053523695035398752870000014126244398184461447_"  style="overflow:visible;"/>
							</clipPath>
							<g id="Group_3837" style="clip-path:url(#SVGID_00000114059198065601854330000015880753150570969236_);">
								<path id="Path_3043" class="st2" d="M213.7,159.3l-1.4,7.9c-0.1,0.5-0.6,0.9-1.2,0.8c-5.7-1-9.6-6.5-8.5-12.2c0,0,0,0,0,0
									l0.7-4.1c1,4,4.3,7.1,8.4,7.8l1,0.2C213.1,159.7,213.4,159.6,213.7,159.3"/>
							</g>
						</g>
					</g>
				</g>
				<path id="Path_3044" class="st2" d="M293.2,312.5c-0.2,0-0.3,0-0.5,0c-6.8-1.2-11.3-7.7-10.1-14.5l1.7-9.7
					c1.2-6.8,7.7-11.3,14.5-10.1l0,0c1.6,0.3,2.7,1.8,2.4,3.4l-5.1,28.5C295.9,311.5,294.6,312.5,293.2,312.5 M296.6,281.9
					c-4.2,0-7.7,3-8.5,7.1l-1.7,9.7c-0.8,4.3,1.9,8.5,6.1,9.8l4.7-26.6C297,281.9,296.8,281.9,296.6,281.9"/>
				<path id="Path_3045" class="st1" d="M390.7,315.7c-6.7,26.4-33.5,42.5-59.9,35.8c-26.4-6.7-42.5-33.5-35.8-59.9
					c6.7-26.4,33.5-42.5,59.9-35.8h0C381.3,262.5,397.3,289.3,390.7,315.7"/>
				<path id="Path_3046" class="st2" d="M342.9,353.4c-4.1,0-8.2-0.5-12.2-1.5c-26.4-6.7-42.4-33.6-35.7-60.1
					c6.7-26.4,33.6-42.4,60.1-35.7c26.4,6.7,42.4,33.6,35.7,60.1C385.2,338.1,365.5,353.4,342.9,353.4 M342.8,254.7
					c-27.1,0-49.1,21.9-49.1,49c0,27.1,21.9,49.1,49,49.1c27.1,0,49.1-21.9,49.1-49c0-22.5-15.3-42.1-37.1-47.6
					C350.9,255.2,346.9,254.7,342.8,254.7"/>
				<g id="Group_3842" transform="translate(88.983 138.789)" class="st3">
					<g id="Group_3841">
						<g>
							<defs>
								<rect id="SVGID_00000151505103774332161610000009795528761130583433_" x="204.5" y="150.6" width="98.4" height="63.7"/>
							</defs>
							<clipPath id="SVGID_00000052812606354855805920000017116261772224855191_">
								<use xlink:href="#SVGID_00000151505103774332161610000009795528761130583433_"  style="overflow:visible;"/>
							</clipPath>
							<g id="Group_3840" style="clip-path:url(#SVGID_00000052812606354855805920000017116261772224855191_);">
								<path id="Path_3047" class="st2" d="M302.9,170.2c-2.9,27.1-27.3,46.7-54.4,43.7c-27.1-2.9-46.7-27.3-43.7-54.4
									c0.2-2.3,0.6-4.5,1.2-6.7c0.2-0.8,0.4-1.5,0.6-2.3c-2.9,27.1,16.7,51.4,43.8,54.4C274,207.5,296,192.9,302.9,170.2"/>
							</g>
						</g>
					</g>
				</g>
				<path id="Path_3048" class="st2" d="M342.9,355c-4.3,0-8.5-0.5-12.6-1.6c-27.3-6.9-43.8-34.7-36.8-62
					c6.9-27.3,34.7-43.8,62-36.8c27.3,6.9,43.8,34.7,36.8,62C386.5,339.2,366.2,355,342.9,355 M342.8,256.3
					c-26.2,0-47.4,21.2-47.4,47.4c0,26.2,21.2,47.4,47.4,47.4c21.7,0,40.7-14.8,46-35.8l0,0c6.4-25.4-9-51.2-34.4-57.6
					C350.6,256.7,346.7,256.3,342.8,256.3"/>
				<path id="Path_3049" class="st2" d="M390.2,316.9c-2.2,9.1-7.1,17.3-14.2,23.4c-5.2,4.5-23.5,10.2-43.4,5.7
					c-18.5-4.2-32.9-17.9-35.5-24.3c-3.6-8.6-4.4-18.2-2.3-27.3c5.9-24.9,29.7-30.1,56-23.9C377.1,276.7,396.1,292,390.2,316.9"/>
				<g id="Group_3845" transform="translate(147.141 148.148)" class="st10">
					<g id="Group_3844">
						<g>
							<defs>
								<rect id="SVGID_00000036237672176753510950000002760519465457346727_" x="221.6" y="153.3" width="13.5" height="16.8"/>
							</defs>
							<clipPath id="SVGID_00000155136408434280687380000007641261924041264812_">
								<use xlink:href="#SVGID_00000036237672176753510950000002760519465457346727_"  style="overflow:visible;"/>
							</clipPath>
							<g id="Group_3843" style="clip-path:url(#SVGID_00000155136408434280687380000007641261924041264812_);">
								<path id="Path_3050" class="st1" d="M222.6,159.2c-1.9,4.4-0.9,9.1,2.3,10.5c3.2,1.4,7.4-1.1,9.3-5.5
									c1.9-4.4,0.9-9.1-2.3-10.5C228.6,152.3,224.5,154.8,222.6,159.2"/>
							</g>
						</g>
					</g>
				</g>
				<g id="Group_3848" transform="translate(140.69 163.289)" class="st10">
					<g id="Group_3847">
						<g>
							<defs>
								<rect id="SVGID_00000055678603858540761860000000221995594323273133_" x="219.7" y="157.8" width="7.2" height="7.7"/>
							</defs>
							<clipPath id="SVGID_00000014618179820973674200000001425955080437734288_">
								<use xlink:href="#SVGID_00000055678603858540761860000000221995594323273133_"  style="overflow:visible;"/>
							</clipPath>
							<g id="Group_3846" style="clip-path:url(#SVGID_00000014618179820973674200000001425955080437734288_);">
								<path id="Path_3051" class="st1" d="M220.4,159.9c-0.7,1.8,0.1,3.8,1.9,4.6c1.8,0.7,3.8-0.1,4.6-1.9
									c0.7-1.6,0.1-3.4-1.4-4.3C223.5,157.3,221.3,158,220.4,159.9"/>
							</g>
						</g>
					</g>
				</g>
				<g id="Group_3851" transform="translate(104.593 140.454)" class="st3">
					<g id="Group_3850">
						<g>
							<defs>
								<rect id="SVGID_00000132056899357715132230000016947517703951208854_" x="209.1" y="151.1" width="77.6" height="56.1"/>
							</defs>
							<clipPath id="SVGID_00000132055860297702823300000002787338894368144048_">
								<use xlink:href="#SVGID_00000132056899357715132230000016947517703951208854_"  style="overflow:visible;"/>
							</clipPath>
							<g id="Group_3849" style="clip-path:url(#SVGID_00000132055860297702823300000002787338894368144048_);">
								<path id="Path_3052" class="st27" d="M281.8,151.1c4.5,6.9,6.2,15.4,3.8,25.4c-2.2,9.1-7.1,17.3-14.2,23.4
									c-5.2,4.5-23.5,10.2-43.4,5.7c-6.7-1.6-13.1-4.3-18.9-8c24.6,5,46.9-2,53.3-7.6c9-7.7,15.3-18.1,18.1-29.7
									C281.2,157.3,281.7,154.2,281.8,151.1"/>
							</g>
						</g>
					</g>
				</g>
				<path id="Path_3053" class="st2" d="M391.2,295.8c-0.5,0-1-0.2-1.3-0.6l-0.1-0.2l-0.1-0.2c-5.4-13.1-19.4-23.2-38.4-27.7
					c-19.1-4.5-36.2-1.5-46.8,8.2l-0.2,0.1c-0.8,0.5-1.8,0.4-2.3-0.4c-0.5-0.7-0.4-1.7,0.3-2.2c11.4-10.5,29.6-13.8,49.8-9
					c20.1,4.7,34.9,15.5,40.7,29.7c0.4,0.8,0,1.8-0.9,2.2C391.7,295.8,391.5,295.8,391.2,295.8"/>
				<g id="Group_3854" transform="translate(95.507 127.809)" class="st10">
					<g id="Group_3853">
						<g>
							<defs>
								<rect id="SVGID_00000152956332672825583370000012795714072309748924_" x="206.4" y="147.4" width="47.5" height="36.6"/>
							</defs>
							<clipPath id="SVGID_00000087405984934045128330000015688332095042489753_">
								<use xlink:href="#SVGID_00000152956332672825583370000012795714072309748924_"  style="overflow:visible;"/>
							</clipPath>
							<g id="Group_3852" style="clip-path:url(#SVGID_00000087405984934045128330000015688332095042489753_);">
								<path id="Path_3054" class="st1" d="M206.5,183.9c0,0-1.9-26.4,13.6-33c15.5-6.7,34.5-2.1,33.8-1c0,0-22.3,0.1-34.4,14.8
									C210.1,176.1,206.5,183.9,206.5,183.9"/>
							</g>
						</g>
					</g>
				</g>
				<path id="Path_3055" class="st29" d="M314.4,229.2c2.4,2.8,4.5,12.2-1.3,15.8c-8.2,5-33.7-2.4-34.8-14.9
					c-0.8-8.2,4.6-8.4,9.5-8.7C292.6,221.1,308.6,222.2,314.4,229.2"/>
				<path id="Path_3056" class="st1" d="M314.1,226.9c1.9,3,2.9,12.1-3,14.8c-8.4,3.8-31.7-6-31.5-18c0.2-7.9,5.3-7.5,10-7.2
					C294.3,216.8,309.3,219.6,314.1,226.9"/>
				<g id="Group_3857" transform="translate(78.373 89.659)" class="st3">
					<g id="Group_3856">
						<g>
							<defs>
								<rect id="SVGID_00000130629013616580212140000018187593250830108595_" x="201.3" y="136.1" width="35.8" height="16.8"/>
							</defs>
							<clipPath id="SVGID_00000105386579012869536270000016966877124328539554_">
								<use xlink:href="#SVGID_00000130629013616580212140000018187593250830108595_"  style="overflow:visible;"/>
							</clipPath>
							<g id="Group_3855" style="clip-path:url(#SVGID_00000105386579012869536270000016966877124328539554_);">
								<path id="Path_3057" class="st2" d="M201.3,136.1c2.2,11.1,23.4,19.5,31.3,16c5.9-2.7,4.9-11.9,3-14.8
									c-0.1-0.2-0.3-0.4-0.5-0.6c-0.4,1.3-1.2,2.5-2.2,3.3C227.1,144.7,209.2,143.3,201.3,136.1"/>
							</g>
						</g>
					</g>
				</g>
				<path id="Path_3058" class="st1" d="M364.6,225.9c-1.7,3.1-2,12.3,4,14.6c8.6,3.2,31.2-8.2,30.1-20.2c-0.8-7.9-5.8-7.1-10.4-6.5
					C383.6,214.4,368.8,218.3,364.6,225.9"/>
				<g id="Group_3860" transform="translate(143.106 86.976)" class="st3">
					<g id="Group_3859">
						<g>
							<defs>
								<rect id="SVGID_00000056426248056177278570000010504457736214908562_" x="220.4" y="135.3" width="35.2" height="18.7"/>
							</defs>
							<clipPath id="SVGID_00000159434332291169865280000016808546029880569748_">
								<use xlink:href="#SVGID_00000056426248056177278570000010504457736214908562_"  style="overflow:visible;"/>
							</clipPath>
							<g id="Group_3858" style="clip-path:url(#SVGID_00000159434332291169865280000016808546029880569748_);">
								<path id="Path_3059" class="st2" d="M255.6,135.3c-1.4,11.2-21.9,21.2-30.1,18.1c-6.1-2.3-5.8-11.5-4-14.6
									c0.1-0.2,0.3-0.5,0.4-0.7c0.5,1.3,1.3,2.4,2.4,3.2C230.5,145.7,248.3,143,255.6,135.3"/>
							</g>
						</g>
					</g>
				</g>
				<path id="Path_3060" class="st2" d="M372.1,242.9c-1.4,0-2.9-0.2-4.2-0.7c-2.6-1-4.6-3.1-5.5-5.8c-1.3-3.8-1.2-7.9,0.4-11.5
					c4.9-8.7,21-12.5,25.1-13.1l0.2,0c3.1-0.4,6.7-0.9,9.3,1.2c1.8,1.4,2.8,3.7,3.1,7c0.5,5.1-2.6,10.5-8.7,15.2
					C386.4,239.5,378.3,242.9,372.1,242.9 M392.2,215.3c-1.2,0-2.3,0.1-3.5,0.3l-0.2,0c-4.6,0.6-18.5,4.4-22.2,11.1
					c-1.1,2.7-1.1,5.6-0.2,8.3c0.5,1.6,1.7,2.9,3.2,3.5c4.3,1.6,13.6-1.3,20.3-6.5c4.9-3.8,7.5-8.1,7.2-11.8
					c-0.2-2.2-0.8-3.6-1.7-4.3C394.2,215.5,393.2,215.3,392.2,215.3 M364.6,225.9L364.6,225.9z"/>
				<path id="Path_3061" class="st2" d="M306.4,244.5c-6,0-13.6-2.7-19-6.3c-6.4-4.2-9.9-9.4-9.7-14.5c0.1-3.3,0.9-5.7,2.6-7.2
					c2.5-2.3,6.1-2.1,9.2-1.9l0.2,0c4.1,0.3,20.5,2.9,26,11.3c1.9,3.5,2.3,7.6,1.3,11.5c-0.7,2.7-2.5,5-5.1,6.2
					C310.2,244.2,308.3,244.6,306.4,244.5 M286.8,218.3c-1.4-0.1-2.7,0.2-3.8,1c-0.9,0.8-1.3,2.3-1.4,4.4c-0.1,3.7,2.8,7.8,8,11.2
					c7,4.6,16.5,6.9,20.7,5c1.5-0.7,2.6-2.1,3-3.7c0.8-2.8,0.5-5.7-0.8-8.3c-4.2-6.4-18.3-9.2-23-9.5l-0.2,0
					C288.5,218.4,287.6,218.3,286.8,218.3"/>
				<path id="Path_3062" class="st2" d="M363.8,442.6c-6.7-0.2-13.3-1.6-19.6-4c-0.7-0.3-1-1.1-0.7-1.8c0.3-0.7,1.1-1,1.8-0.7
					c0.3,0.1,25.3,10.2,33.7-2.9c0.4-0.6,1.3-0.8,1.9-0.4c0.6,0.4,0.8,1.3,0.4,1.9l0,0C377.3,440.8,370.5,442.6,363.8,442.6"/>
				<path id="Path_3063" class="st2" d="M315.8,442.6c-6.7,0-13.5-1.9-17.5-8.1c-0.4-0.6-0.2-1.5,0.4-1.9c0.6-0.4,1.5-0.2,1.9,0.4
					l0,0c8.4,13.1,33.4,3.1,33.7,2.9c0.7-0.3,1.5,0.1,1.8,0.8c0.3,0.7-0.1,1.5-0.7,1.8C329.1,441.1,322.5,442.4,315.8,442.6"/>
			</g>
		</g>
	</g>
</g>
</svg>
