<?xml version="1.0" encoding="utf-8"?>
<!-- Generator: Adobe Illustrator 26.2.1, SVG Export Plug-In . SVG Version: 6.00 Build 0)  -->
<svg version="1.1" id="Layer_1" xmlns="http://www.w3.org/2000/svg" xmlns:xlink="http://www.w3.org/1999/xlink" x="0px" y="0px"
	 viewBox="0 0 600 600" style="enable-background:new 0 0 600 600;" xml:space="preserve">
<style type="text/css">
	.st0{clip-path:url(#SVGID_00000085248030572053981110000008270270508044214920_);fill:#FFFFFF;}
	.st1{clip-path:url(#SVGID_00000085248030572053981110000008270270508044214920_);fill:#371A45;}
	.st2{clip-path:url(#SVGID_00000085248030572053981110000008270270508044214920_);}
	.st3{clip-path:url(#SVGID_00000166675739849152794910000000774089732495891633_);fill:#B9AFBE;}
	.st4{clip-path:url(#SVGID_00000085248030572053981110000008270270508044214920_);fill:#22A7F0;}
	.st5{clip-path:url(#SVGID_00000133496318013304053980000015682441644384379804_);fill:#B9AFBE;}
	.st6{clip-path:url(#SVGID_00000085248030572053981110000008270270508044214920_);fill:#AFAFB2;}
	.st7{clip-path:url(#SVGID_00000147202325077191900000000013225143087586390690_);fill:#FFFFFF;}
	.st8{clip-path:url(#SVGID_00000147202325077191900000000013225143087586390690_);fill:#C3BBC8;}
	.st9{clip-path:url(#SVGID_00000147202325077191900000000013225143087586390690_);fill:#E7E7E8;}
	.st10{clip-path:url(#SVGID_00000174603944657108741660000010681079885577722254_);fill:#B9AFBE;}
	.st11{clip-path:url(#SVGID_00000174603944657108741660000010681079885577722254_);fill:#8C7B94;}
	.st12{clip-path:url(#SVGID_00000174603944657108741660000010681079885577722254_);fill:#857B8C;}
	.st13{clip-path:url(#SVGID_00000174603944657108741660000010681079885577722254_);fill:#371A45;}
	.st14{clip-path:url(#SVGID_00000180352360953792025170000008338908467701995687_);fill:#FFFFFF;}
	.st15{clip-path:url(#SVGID_00000180352360953792025170000008338908467701995687_);fill:#E7E7E8;}
	.st16{clip-path:url(#SVGID_00000127042588981316332640000001846410341544192641_);fill:#857B8C;}
	.st17{clip-path:url(#SVGID_00000127042588981316332640000001846410341544192641_);fill:#B9AFBE;}
	.st18{clip-path:url(#SVGID_00000127042588981316332640000001846410341544192641_);fill:#371A45;}
	.st19{clip-path:url(#SVGID_00000090987803495164054580000003927219597447054501_);fill:#B9AFBE;}
	.st20{clip-path:url(#SVGID_00000090987803495164054580000003927219597447054501_);fill:#371A45;}
	.st21{clip-path:url(#SVGID_00000024717544989177789090000001734655548952089234_);fill:#B9AFBE;}
	.st22{clip-path:url(#SVGID_00000124849778600199267090000013693144315587832493_);fill:#B9AFBE;}
	.st23{clip-path:url(#SVGID_00000039093990403542651800000003973800746298451125_);fill:#B9AFBE;}
	.st24{clip-path:url(#SVGID_00000055698856897000865270000013467943363771254696_);fill:#9B8DA2;}
	.st25{clip-path:url(#SVGID_00000013153372135295027150000011396884072307163264_);fill:#9B8DA2;}
	.st26{clip-path:url(#SVGID_00000109016991204830395530000011056191817955178143_);fill:#2A1A3B;}
	.st27{clip-path:url(#SVGID_00000109016991204830395530000011056191817955178143_);fill:#6B6577;}
	.st28{clip-path:url(#SVGID_00000034793525745934358560000000723907055444574871_);fill:#9B8DA2;}
	.st29{clip-path:url(#SVGID_00000085248030572053981110000008270270508044214920_);fill:#FF9ED5;}
	.st30{clip-path:url(#SVGID_00000123425143726320055930000012912056130430844076_);fill:#FFBBE2;}
	.st31{clip-path:url(#SVGID_00000101098852201573786670000010643545327882516120_);fill:#B970A3;}
	.st32{clip-path:url(#SVGID_00000101098852201573786670000010643545327882516120_);fill:#B983AB;}
	.st33{clip-path:url(#SVGID_00000085248030572053981110000008270270508044214920_);fill:#FF66AC;}
	.st34{clip-path:url(#SVGID_00000144334387040827859470000008427342907311115926_);fill:#FFCFEA;}
	.st35{clip-path:url(#SVGID_00000080182727997708998080000000576132902859544732_);fill:#B970A3;}
	.st36{clip-path:url(#SVGID_00000080182727997708998080000000576132902859544732_);fill:#B990B0;}
	.st37{clip-path:url(#SVGID_00000164497812000644766430000003514094618046982792_);fill:#FFBBE2;}
	.st38{clip-path:url(#SVGID_00000085248030572053981110000008270270508044214920_);fill:#DB2C2C;}
	.st39{clip-path:url(#SVGID_00000080893898930185530020000002290944937633899153_);fill:#B9AFBE;}
	.st40{clip-path:url(#SVGID_00000080893898930185530020000002290944937633899153_);fill:#371A45;}
	.st41{clip-path:url(#SVGID_00000080893898930185530020000002290944937633899153_);fill:#8C5282;}
	.st42{clip-path:url(#SVGID_00000085248030572053981110000008270270508044214920_);fill:#FF0068;}
	.st43{clip-path:url(#SVGID_00000046329009975117965970000014666630832842993599_);fill:#FF80B4;}
	.st44{clip-path:url(#SVGID_00000039126946550518570900000012849368615102295995_);fill:#C3085D;}
	.st45{clip-path:url(#SVGID_00000039126946550518570900000012849368615102295995_);fill:#371A45;}
</style>
<g>
	<defs>
		<rect id="SVGID_1_" x="0.5" y="-0.5" width="600" height="600"/>
	</defs>
	<clipPath id="SVGID_00000018940391308830444490000011853678942765221276_">
		<use xlink:href="#SVGID_1_"  style="overflow:visible;"/>
	</clipPath>
</g>
<g>
	<g>
		<defs>
			<polyline id="SVGID_00000084503950184701218160000016428928871849642921_" points="166,167.3 434,167.3 434,432.7 166,432.7 
				166,167.3 			"/>
		</defs>
		<clipPath id="SVGID_00000173125751095519627400000006053322976365243298_">
			<use xlink:href="#SVGID_00000084503950184701218160000016428928871849642921_"  style="overflow:visible;"/>
		</clipPath>
		<path style="clip-path:url(#SVGID_00000173125751095519627400000006053322976365243298_);fill:#FFFFFF;" d="M325.1,396.6h-70.5
			c-12.1,0-22-9.9-22-22v-62.3c0-12.1,9.9-22,22-22h70.5c12.1,0,22,9.9,22,22v62.3C347.1,386.7,337.2,396.6,325.1,396.6L325.1,396.6
			"/>
		<path style="clip-path:url(#SVGID_00000173125751095519627400000006053322976365243298_);fill:#371A45;" d="M325.1,290.3
			c12.1,0,22,9.9,22,22v62.3c0,12.1-9.9,22-22,22h-70.5c-12.1,0-22-9.9-22-22v-62.3c0-12.1,9.9-22,22-22H325.1 M325.1,286.8h-70.5
			c-3.4,0-6.8,0.7-9.9,2c-6.1,2.6-11,7.5-13.6,13.6c-1.3,3.1-2,6.5-2,9.9v62.3c0,3.4,0.7,6.8,2,9.9c2.6,6.1,7.5,11,13.6,13.6
			c3.1,1.3,6.5,2,9.9,2h70.5c3.4,0,6.8-0.7,9.9-2c6.1-2.6,11-7.5,13.6-13.6c1.3-3.1,2-6.5,2-9.9v-62.3c0-3.4-0.7-6.8-2-9.9
			c-2.6-6.1-7.5-11-13.6-13.6C331.9,287.5,328.5,286.8,325.1,286.8"/>
		<path style="clip-path:url(#SVGID_00000173125751095519627400000006053322976365243298_);fill:#FFFFFF;" d="M345.5,358.1
			c-11,1.3-21.9,1.6-21.9,1.6s-5.6-27.8-7.1-49.6c-1.1-16.1-0.1-29,7.1-24.8c3.3,1.9,7.1,5.6,11.1,10.2c14.9,17.3,32,48.3,32.9,54.8
			C368.2,354.3,356.9,356.7,345.5,358.1L345.5,358.1"/>
		<path style="clip-path:url(#SVGID_00000173125751095519627400000006053322976365243298_);fill:#371A45;" d="M322.1,361.5l-0.3-1.5
			c0-0.2-3.4-17.2-5.6-34.9c-1.2-8.5-1.8-17-1.9-25.6c0.1-8.9,1.4-14,4.1-16c1.2-0.9,3.2-1.5,6.1,0.2c9.6,5.6,21.7,23.3,28.1,33.4
			c4.3,6.7,8.3,13.8,11.5,19.9c2.2,4.3,4.9,10,5.4,12.9c0.2,1.2-0.2,2.4-1,3.3c-1.5,1.8-4.7,3.3-10,4.5c-4.9,1.1-9.9,1.9-14.9,2.3
			c-10.1,1.1-19.7,1.4-19.8,1.4L322.1,361.5 M321.1,286.3c-0.2,0-0.4,0.1-0.6,0.2c-1.2,0.8-4.7,6.1-0.7,38.1
			c1.8,14.5,4.4,28.6,5.3,33.2c3.1-0.1,10.4-0.5,18-1.3c17.7-1.9,21.6-4.5,22.5-5.6c0.2-0.3,0.2-0.4,0.2-0.5
			c-0.5-3.5-7.2-17-16.3-31.4c-10.6-16.7-20.3-28.5-26.8-32.3C322.2,286.5,321.7,286.3,321.1,286.3L321.1,286.3"/>
		<path style="clip-path:url(#SVGID_00000173125751095519627400000006053322976365243298_);fill:#FFFFFF;" d="M267.7,284.2
			l-2.2,16.8l-1.3,9.6l-2.7,20.4c-4.1,2.6-8.5,4.6-13.1,6c-3.4,1.1-6.9,1.9-10.5,2.5c-7.2,1.1-14.6,0.9-21.7-0.6
			c-20.5-4.2-32.8-19.4-38.2-27.1c-10.3-14.8-11.9-18.8-9-25c2.2-4.8,5.9-5.6,5.9-5.6s-0.2-3.8,2.8-5.2c9-4.1,20.7,6.8,20.7,6.8
			s0.4-11.7,6.7-9c4.3,1.9,5.3,14.6,5.3,14.6s5.8,7.4,14.9,8.4c4.8,0.5,11.4-0.9,18-2.9l0.2-0.1c3.5-1.1,7-2.3,10.2-3.6
			c1.4-0.6,2.8-1.1,4.1-1.6C263.7,286.2,267.7,284.2,267.7,284.2L267.7,284.2"/>
		<g style="clip-path:url(#SVGID_00000173125751095519627400000006053322976365243298_);">
			<defs>
				<polyline id="SVGID_00000003093911115377996050000005600147834229345438_" points="167.8,289.6 261.9,289.6 261.9,340.2 
					167.8,340.2 167.8,289.6 				"/>
			</defs>
			<clipPath id="SVGID_00000003096738165920429780000013720611324100934792_">
				<use xlink:href="#SVGID_00000003093911115377996050000005600147834229345438_"  style="overflow:visible;"/>
			</clipPath>
			<path style="clip-path:url(#SVGID_00000003096738165920429780000013720611324100934792_);fill:#B9AFBE;" d="M239.8,325.1
				c-0.6,0.3-1.2,0.5-1.9,0.7c-5,1.4-9.9,2-14.4,2c-0.2,0.7-0.5,1.5-0.8,2.2c-0.4,1.1-0.9,2.1-1.4,3h16.3c0-0.1,0-0.2,0.1-0.3
				c0.2-0.8,0.4-1.6,0.5-2.3c0.2-0.8,0.4-1.5,0.6-2.3c0.2-0.8,0.5-1.5,0.7-2.3C239.7,325.6,239.8,325.4,239.8,325.1 M169.7,292.9
				c0.5,3.4,3.2,8.2,9.9,17.9c9.4,13.4,21.2,22.3,34.4,25.7c0.8-1.7,2.4-3.1,4.5-3.4c0.9-1.5,1.8-3.3,2.5-5.4
				c-16.7-0.7-29.5-9-34.5-13.3c-9-7.7-11.3-12.6-12.6-14.6C172.3,297.7,170.9,295.4,169.7,292.9"/>
		</g>
		<path style="clip-path:url(#SVGID_00000173125751095519627400000006053322976365243298_);fill:#371A45;" d="M228.6,342
			c-4.3,0-8.5-0.4-12.7-1.3c-9.4-2-18.2-6.3-25.6-12.6c-5.2-4.4-9.8-9.6-13.7-15.2c-5-7.2-8.2-12.2-9.7-16.1
			c-1.4-3.5-1.2-7.4,0.5-10.7c1.1-2.7,3.2-4.9,5.8-6.2c0.2-2.4,1.7-4.5,3.8-5.5c7.4-3.3,15.8,1.8,20,5c0-0.2,0.1-0.4,0.1-0.7
			c0.7-3.1,1.9-5.2,3.6-6.3c1.5-0.9,3.5-1,5.1-0.2c2.4,1,4.1,4,5.3,9.2c0.5,2.1,0.8,4.2,1,6.3c1.3,1.4,6.3,6.6,13.4,7.3
			c13,1.4,41-12.2,41.3-12.4c0.9-0.4,2-0.1,2.4,0.8c0.2,0.3,0.2,0.7,0.2,1l-6.2,46.8c-0.1,0.5-0.3,1-0.8,1.3
			c-4.2,2.6-8.7,4.7-13.4,6.2c-4.8,1.6-9.7,2.6-14.8,3.1C232.5,341.9,230.6,342,228.6,342L228.6,342 M175.4,282.9
			c-0.2,0.1-3,0.9-4.7,4.6c-2.3,5-1.7,8,8.9,23.2c10,14.3,22.8,23.4,37,26.4c10.5,2.1,21.3,1.4,31.4-1.9c4.1-1.3,8.1-3.1,11.8-5.3
			l5.6-42.7c-2.9,1.3-7.8,3.5-13.2,5.5c-12,4.5-21.2,6.5-27.1,5.8c-9.8-1.1-15.9-8.8-16.2-9.1c-0.2-0.3-0.3-0.6-0.4-1
			c-0.2-2.1-0.5-4.3-1-6.4c-1.3-5.5-2.8-6.5-3.2-6.7c-1.1-0.5-1.5-0.2-1.7-0.1c-1.5,1-2.3,4.9-2.4,7.4c0,1-0.9,1.8-1.9,1.7
			c-0.4,0-0.8-0.2-1.2-0.5c-0.1-0.1-10.9-10-18.7-6.5c-1.8,0.8-1.8,3.3-1.8,3.4C176.9,282,176.3,282.8,175.4,282.9L175.4,282.9"/>
		<path style="clip-path:url(#SVGID_00000173125751095519627400000006053322976365243298_);fill:#371A45;" d="M200,282.8
			c0,0.5,0,0.9-0.1,1.4c0,0.2-0.1,0.4-0.2,0.6c-0.1,0.2-0.1,0.3-0.2,0.5c-0.3,0.6-0.6,1.1-0.9,1.7c-0.3,0.5-0.6,1-0.8,1.5l-0.2,0.4
			c-0.1,0.1-0.1,0.2-0.2,0.4l-0.2,0.4l-0.2,0.4l-0.1,0.4l-0.1,0.4c0,0.1-0.1,0.3-0.1,0.4s-0.1,0.3-0.1,0.4c-0.1,0.5-0.3,1.1-0.3,1.7
			c-0.1,0.6-0.1,1.2-0.1,1.8c0,0.3,0,0.6,0,0.9c0,0.2,0,0.3,0,0.5s0,0.3,0,0.5v0c0,0.1-0.1,0.2-0.2,0.2l-0.2-0.1
			c-0.3-0.6-0.5-1.2-0.8-1.8c-0.7-1.9-0.8-3.9-0.5-5.9l0.1-0.5c0-0.2,0.1-0.3,0.1-0.5s0.1-0.3,0.1-0.5s0.1-0.3,0.2-0.5
			c0.2-0.6,0.5-1.2,0.8-1.8c0.3-0.6,0.6-1.1,0.8-1.6c0.2-0.3,0.3-0.7,0.5-1.1l0.2-0.4c0.3-0.7,1.2-1.1,1.9-0.8
			C199.6,281.8,200,282.3,200,282.8"/>
		<path style="clip-path:url(#SVGID_00000173125751095519627400000006053322976365243298_);fill:#371A45;" d="M214.3,340.2
			c-0.7,0-1.2-0.6-1.2-1.2c0-0.5,0.3-0.9,0.7-1.1c5-2.5,8.4-10.3,9.9-22.5c0.7-6.1,0.9-12.2,0.7-18.4c-0.1-0.7,0.4-1.3,1.1-1.3
			c0.7-0.1,1.3,0.4,1.3,1.1l0,0.1c0.3,6.3,0,12.5-0.7,18.8c-0.5,4.9-1.6,9.8-3.3,14.5c-2,5-4.6,8.4-7.9,10
			C214.6,340.1,214.4,340.2,214.3,340.2L214.3,340.2"/>
		<path style="clip-path:url(#SVGID_00000173125751095519627400000006053322976365243298_);fill:#FFFFFF;" d="M349.4,389.6H230.2
			c0,0,0.7-20.6,7.8-50.1c3.2-13.3,7.1-26.3,11.9-39.1c1.3-3.4,2.6-6.7,4-10.2c4.1-10,8.8-19.7,14-29.1h43.9
			c4.5,8.1,8.4,16.2,11.9,24.1c2.2,5.1,4.3,10.2,6.2,15.2c7,18.7,12.2,37.9,15.8,57.5C347.5,368.5,348.8,379,349.4,389.6
			L349.4,389.6"/>
		<path style="clip-path:url(#SVGID_00000173125751095519627400000006053322976365243298_);fill:#371A45;" d="M333.1,315.9
			c2.3,2.6,3.4,5.6,4.3,8.6c0.5,1.5,1,3,1.4,4.5c0.2,0.8,0.5,1.5,0.7,2.3c0.2,0.8,0.4,1.5,0.6,2.3l0.6,2.3c0.2,0.8,0.4,1.5,0.6,2.3
			l1.1,4.6c0.2,0.8,0.4,1.5,0.5,2.3l0.5,2.3l0.5,2.3c0.2,0.8,0.4,1.5,0.5,2.3l1,4.6c0.2,0.8,0.3,1.5,0.5,2.3l0.5,2.3l0.2,1.2
			l0.1,0.6l0.1,0.6l0.5,2.3c0.2,0.8,0.3,1.6,0.5,2.3c0.2,0.8,0.3,1.6,0.5,2.3c0.7,3.1,1.2,6.2,1.4,9.4c0,0.4,0.1,0.8,0.1,1.2
			l0.1,1.2c0,0.8,0,1.6,0,2.4c0,0.8,0,1.6-0.1,2.4c-0.1,0.8-0.1,1.6-0.2,2.4c0,0.2-0.2,0.3-0.3,0.2c-0.1,0-0.2-0.1-0.2-0.2
			c-0.6-1.5-1-3-1.5-4.6c-0.2-0.8-0.4-1.5-0.6-2.3l-0.3-1.1c-0.1-0.4-0.2-0.8-0.3-1.1c-0.4-1.5-0.7-3.1-1-4.6
			c-0.1-0.8-0.3-1.5-0.4-2.3c-0.1-0.8-0.2-1.5-0.4-2.3c-0.1-0.8-0.2-1.6-0.4-2.3s-0.3-1.5-0.4-2.3l-0.5-2.3l-0.1-0.6l-0.1-0.6
			L343,362l-0.5-2.3c-0.2-0.8-0.3-1.5-0.5-2.3l-1-4.6c-0.2-0.8-0.4-1.5-0.5-2.3l-0.6-2.3l-0.6-2.3c-0.1-0.4-0.2-0.8-0.3-1.1
			l-0.3-1.1l-1.2-4.5c-0.4-1.5-0.9-3-1.3-4.5c-0.2-0.8-0.4-1.5-0.6-2.3l-0.2-0.6l-0.2-0.6l-0.3-1.1c-0.4-1.5-0.8-3-1.2-4.5l-0.3-1.1
			c-0.1-0.4-0.2-0.8-0.3-1.1c-0.2-0.8-0.4-1.5-0.5-2.3c-0.1-0.8-0.2-1.6-0.2-2.4c0-0.4,0-0.8,0-1.2c0-0.4,0-0.9,0.1-1.3v0
			c0-0.2,0.2-0.3,0.3-0.3L333.1,315.9L333.1,315.9"/>
		<path style="clip-path:url(#SVGID_00000173125751095519627400000006053322976365243298_);fill:#371A45;" d="M229.9,389.6
			c-0.2-0.4-0.3-0.8-0.4-1.2c-0.1-0.4-0.2-0.8-0.3-1.2c-0.2-0.8-0.2-1.6-0.3-2.4c0-0.4,0-0.8,0-1.2s0-0.8,0-1.2l0.1-1.2
			c0-0.4,0-0.8,0.1-1.2c0.1-1.6,0.2-3.2,0.4-4.8c0.1-0.8,0.2-1.6,0.3-2.4c0-0.4,0.1-0.8,0.2-1.2l0.2-1.2l0.4-2.4
			c0.1-0.8,0.3-1.6,0.4-2.4c0.3-1.6,0.5-3.2,0.8-4.7c0.3-1.6,0.6-3.1,0.9-4.7c0.3-1.6,0.6-3.1,0.9-4.7c0.1-0.4,0.1-0.8,0.2-1.2
			l0.2-1.2l0.5-2.3l0.5-2.3c0-0.2,0.1-0.4,0.1-0.6l0.1-0.6l0.3-1.2l1.1-4.7c0.1-0.4,0.2-0.8,0.3-1.2c0.1-0.4,0.2-0.8,0.3-1.2
			c0.2-0.8,0.4-1.6,0.5-2.3c0.2-0.8,0.4-1.6,0.5-2.3c0.2-0.8,0.4-1.5,0.6-2.3c0.2-0.8,0.5-1.5,0.7-2.3c0.3-0.8,0.5-1.5,0.8-2.3
			l0.4-1.1c0.1-0.2,0.2-0.4,0.2-0.6c0.1-0.2,0.2-0.4,0.2-0.6c0.3-0.7,0.6-1.5,1-2.2s0.7-1.5,1.1-2.2c0.4-0.7,0.8-1.4,1.2-2.1
			c0.1-0.1,0.3-0.2,0.4-0.1c0.1,0.1,0.1,0.2,0.1,0.3c-0.2,3.2-0.7,6.4-1.4,9.5c-0.2,0.8-0.3,1.6-0.5,2.3c-0.2,0.8-0.4,1.5-0.6,2.3
			c-0.4,1.5-0.8,3-1.3,4.6c-0.2,0.8-0.4,1.5-0.6,2.3c-0.1,0.4-0.2,0.8-0.3,1.1c-0.1,0.4-0.2,0.8-0.3,1.1l-1.1,4.6l-0.3,1.2l-0.1,0.6
			c0,0.2-0.1,0.4-0.1,0.6l-0.5,2.3l-0.5,2.3l-0.2,1.2c-0.1,0.4-0.2,0.8-0.2,1.2c-1.3,6.2-2.1,12.5-3,18.7l-0.3,2.3
			c-0.1,0.8-0.2,1.6-0.3,2.3l-0.6,4.7c-0.1,0.8-0.2,1.6-0.3,2.3c-0.1,0.4-0.1,0.8-0.2,1.2c-0.1,0.4-0.1,0.8-0.2,1.2
			c-0.2,0.8-0.4,1.6-0.6,2.3c-0.1,0.4-0.3,0.8-0.4,1.2c-0.2,0.4-0.3,0.8-0.5,1.2c-0.1,0.1-0.3,0.2-0.4,0.1L229.9,389.6L229.9,389.6"
			/>
		<path style="clip-path:url(#SVGID_00000173125751095519627400000006053322976365243298_);fill:#FFFFFF;" d="M264.5,363.6
			c-6.8,2.8-17.3,2.2-24.5,1.3c-4.2-0.5-7.2-4.4-6.7-8.6c0.5-4,4-6.9,8-6.8c6.7,0.3,16.8,0.5,23.2-1L264.5,363.6"/>
		<path style="clip-path:url(#SVGID_00000173125751095519627400000006053322976365243298_);fill:#371A45;" d="M251,367.5
			c-3.7,0-7.5-0.3-11.2-0.7c-5.2-0.6-8.9-5.4-8.3-10.6c0.6-4.9,4.9-8.6,9.9-8.4c9.9,0.5,17.9,0.1,22.7-0.9c1-0.2,3.3-0.2,4.7,4.3
			c1.4,4.6,1.3,12.2-3.6,14.2C261.2,366.9,256.1,367.5,251,367.5L251,367.5 M240.9,351.4c-3.3,0-5.9,2.7-5.9,5.9
			c0,3,2.2,5.5,5.2,5.9c10.3,1.2,18.6,0.8,23.6-1.2c1.5-0.6,1.9-3,2-4c0.4-3.5-0.7-6.7-1.3-7.5c-6.5,1.4-16.2,1.3-23.3,0.9
			C241.1,351.4,241,351.4,240.9,351.4L240.9,351.4"/>
		<path style="clip-path:url(#SVGID_00000173125751095519627400000006053322976365243298_);fill:#FFFFFF;" d="M316.5,363.6
			c6.8,2.8,17.3,2.2,24.5,1.3c4.2-0.5,7.2-4.4,6.7-8.6c-0.5-4-4-6.9-8-6.8c-6.7,0.3-16.8,0.5-23.2-1L316.5,363.6"/>
		<path style="clip-path:url(#SVGID_00000173125751095519627400000006053322976365243298_);fill:#371A45;" d="M330.1,367.5
			c-5.1,0-10.2-0.5-14.2-2.2c-4.8-2-5-9.6-3.6-14.2c1.4-4.5,3.8-4.5,4.7-4.3c4.7,1.1,12.8,1.4,22.7,0.9c5.3-0.2,9.7,3.8,9.9,9.1
			c0.2,5-3.4,9.3-8.4,9.9C337.6,367.2,333.8,367.4,330.1,367.5L330.1,367.5 M316.5,350.5c-0.7,0.8-1.7,4-1.3,7.5c0.1,1,0.5,3.4,2,4
			c5,2,13.3,2.4,23.6,1.2c3.2-0.4,5.5-3.3,5.1-6.6c-0.4-3.1-3-5.3-6.1-5.2C332.8,351.7,323,351.8,316.5,350.5"/>
		<path style="clip-path:url(#SVGID_00000173125751095519627400000006053322976365243298_);fill:#FFFFFF;" d="M319.2,343.7v24
			c0,4.5-3.6,8.1-8.1,8.1h-44.3c-4.5,0-8.1-3.6-8.1-8.1v-24c0-4.5,3.6-8.1,8.1-8.1h44.3C315.5,335.6,319.2,339.2,319.2,343.7"/>
		<path style="clip-path:url(#SVGID_00000173125751095519627400000006053322976365243298_);fill:#371A45;" d="M311.1,377.6h-44.3
			c-5.5,0-9.9-4.4-9.9-9.9v-24c0-5.5,4.4-9.9,9.9-9.9h44.3c5.5,0,9.9,4.4,9.9,9.9v24C321,373.2,316.5,377.6,311.1,377.6L311.1,377.6
			 M266.8,337.4c-3.5,0-6.3,2.8-6.3,6.3v24c0,3.5,2.8,6.3,6.3,6.3h44.3c3.5,0,6.3-2.8,6.3-6.3v-24c0-3.5-2.8-6.3-6.3-6.3H266.8"/>
		<path style="clip-path:url(#SVGID_00000173125751095519627400000006053322976365243298_);fill:#22A7F0;" d="M311.6,355.7
			c0,3.9-3.1,7-7,7c-3.9,0-7-3.1-7-7c0-3.9,3.1-7,7-7h0C308.5,348.7,311.6,351.8,311.6,355.7"/>
		<path style="clip-path:url(#SVGID_00000173125751095519627400000006053322976365243298_);fill:#371A45;" d="M304.6,364
			c-4.6,0-8.3-3.7-8.3-8.3s3.7-8.3,8.3-8.3c4.6,0,8.3,3.7,8.3,8.3C312.9,360.3,309.2,364,304.6,364 M304.6,350
			c-3.1,0-5.6,2.5-5.6,5.6c0,3.1,2.5,5.6,5.6,5.6c3.1,0,5.6-2.5,5.6-5.6v0C310.2,352.6,307.7,350.1,304.6,350"/>
		<path style="clip-path:url(#SVGID_00000173125751095519627400000006053322976365243298_);fill:#371A45;" d="M284.8,377.2
			c-0.7,0-1.4-0.6-1.4-1.4v-16.5l-8.9-6.7v-17.1c0-0.7,0.6-1.4,1.3-1.4c0.7,0,1.4,0.6,1.4,1.3v0v15.8l8.9,6.7v17.8
			C286.1,376.6,285.5,377.2,284.8,377.2L284.8,377.2"/>
		<path style="clip-path:url(#SVGID_00000173125751095519627400000006053322976365243298_);fill:#FFFFFF;" d="M289.8,388.8
			c7.8,0,15.4-2.9,21.2-8.1c8.1-7.2,21.9-15.7,37-10.2c5.4,2,10,5.8,13,10.7c7.3-16.9,22.5-17.9,29.1-8.3c0,0-11.1,53-14.7,54.1
			c-5.2,1.7-17.6-0.1-17.6-0.1s-43.3-5.9-68.1-5.9c-24.7,0-68.1,5.9-68.1,5.9s-12.5,1.8-17.6,0.1c-3.6-1.2-14.7-54.1-14.7-54.1
			c6.6-9.6,21.9-8.5,29.1,8.3c3-4.9,7.6-8.7,13-10.7c15.1-5.5,28.9,3.1,37,10.2C274.4,385.9,282,388.7,289.8,388.8"/>
		<g style="clip-path:url(#SVGID_00000173125751095519627400000006053322976365243298_);">
			<defs>
				<polyline id="SVGID_00000120547192387827756520000007267791249858755770_" points="189.4,369 390.2,369 390.2,427.7 
					189.4,427.7 189.4,369 				"/>
			</defs>
			<clipPath id="SVGID_00000016041888346872159070000005335979654883815602_">
				<use xlink:href="#SVGID_00000120547192387827756520000007267791249858755770_"  style="overflow:visible;"/>
			</clipPath>
			<path style="clip-path:url(#SVGID_00000016041888346872159070000005335979654883815602_);fill:#B9AFBE;" d="M357,405.2l-1.9,12.9
				c2.6,0.6,4.5,3,4.5,5.7c0,0.5,0,1-0.1,1.5c2.4,0.3,6.1,0.6,9.4,0.6c0.3,0,0.6,0,0.9,0c-2-1.5-3.2-4.3-3.7-7.9c0,0,0,0,0,0l0,0
				c-0.1-1.1-0.2-2.2-0.3-3.3l-0.2,0c-0.8-0.1-1.4-0.8-1.3-1.6c0.1-0.8,0.7-1.4,1.5-1.4c0,0,0,0,0,0c0.1-1.7,0.2-3.6,0.4-5.4
				c-4.4-0.2-8.5-0.8-8.5-0.8S357.6,405.4,357,405.2 M223.1,405.1c-0.9,0.2-1.4,0.4-1.4,0.4s-4,0.6-8.5,0.8c0.2,1.9,0.4,3.7,0.4,5.4
				c0,0,0,0,0,0c0.8,0,1.4,0.6,1.5,1.4c0.1,0.8-0.5,1.5-1.3,1.6l-0.2,0c-0.2,5.2-1.3,9.3-3.9,11.3c0.3,0,0.6,0,0.9,0
				c3.6,0,7.7-0.4,10-0.7c-0.1-0.5-0.1-0.9-0.1-1.4c0-2.8,1.9-5.1,4.5-5.7L223.1,405.1"/>
		</g>
		<path style="clip-path:url(#SVGID_00000173125751095519627400000006053322976365243298_);fill:#371A45;" d="M210.8,429.5
			c-2.4,0.1-4.9-0.2-7.2-0.8c-1.3-0.4-2.3-1.8-4.4-8.1c-1.2-3.7-2.6-8.8-4.2-15.2c-2.9-11.5-5.7-24.4-6.8-29.5
			c-0.6-2.6,0.3-5.3,2.2-7.1c3.7-3.4,8.9-4.7,13.8-3.5c3.3,0.8,6.4,2.4,8.9,4.8c2.3,2.2,4.2,4.7,5.7,7.5c3.1-4,7.3-7.1,12.1-8.8
			c5.5-2,11.3-2.4,17-1.2c5.1,1.1,9.9,3.2,14.2,6c0.8,0.5,1.1,1.7,0.6,2.5c-0.5,0.8-1.7,1.1-2.5,0.6c-9.7-6.2-19.2-7.7-28-4.5
			c-5.1,1.8-9.3,5.4-12.1,10c-0.5,0.8-1.6,1.1-2.5,0.6c-0.3-0.2-0.5-0.5-0.7-0.8c-3-7-7.9-11.8-13.4-13c-3.8-0.9-7.7,0.1-10.6,2.7
			c-1,0.9-1.4,2.3-1.1,3.6c1,4.7,3.7,17,6.5,28.1c1.5,6.1,2.9,11.1,4,14.8c1.6,5.2,2.4,6.7,2.7,7.1c4.1,1.1,13.3,0.2,16.5-0.2h0
			c0.4-0.1,43.7-5.9,68.3-5.9c24.6,0,67.9,5.8,68.3,5.9h0c3.3,0.5,12.5,1.4,16.5,0.2c0.3-0.4,1.1-1.9,2.7-6.9
			c1.1-3.6,2.4-8.4,3.9-14.4c2.7-10.6,5.2-22.2,6.5-28.1c0.4-1.9-0.3-3.9-1.9-5.1c-3-2.2-6.8-2.9-10.3-1.8c-5.3,1.4-9.8,6-12.8,12.8
			c-0.4,0.9-1.5,1.3-2.4,0.9c-0.3-0.1-0.6-0.4-0.8-0.7c-2.8-4.6-7.1-8.1-12.1-10c-9-3.2-18.5-1.7-28.3,4.6c-0.8,0.5-2,0.3-2.5-0.5
			c-0.5-0.8-0.3-2,0.5-2.5c4.4-2.9,9.2-5,14.3-6.1c5.7-1.3,11.7-0.9,17.2,1.1c4.8,1.7,9,4.8,12.1,8.8c3.4-6.3,8.2-10.5,13.8-12.1
			c4.6-1.3,9.5-0.4,13.4,2.4c2.7,2,4,5.5,3.2,8.8c-1.4,6.3-4,18.5-6.8,29.4c-1.6,6.2-2.9,11.2-4.1,14.7c-2,6.1-3,7.4-4.3,7.8
			c-5.5,1.8-17.8,0.1-18.4,0c-0.7-0.1-43.6-5.9-67.8-5.9c-24.3,0-67.1,5.8-67.8,5.9C218.2,429.2,214.5,429.5,210.8,429.5
			L210.8,429.5"/>
		<path style="clip-path:url(#SVGID_00000173125751095519627400000006053322976365243298_);fill:#AFAFB2;" d="M372.3,427h3.2
			c3.8,0,7.2-2.2,8.7-5.7c4.8-10.8,13.6-34.5,5.4-49c-0.2-0.4-0.5-0.8-0.8-1.2c-0.4-0.6-7.9-7.2-13.6,3
			C370,383.6,358.9,424.2,372.3,427L372.3,427"/>
		<g style="clip-path:url(#SVGID_00000173125751095519627400000006053322976365243298_);">
			<defs>
				<polyline id="SVGID_00000152984318787954643520000004878433696678297000_" points="372.4,368.7 392.8,368.7 392.8,382.9 
					372.4,382.9 372.4,368.7 				"/>
			</defs>
			<clipPath id="SVGID_00000025421897647967458860000008519510343284687529_">
				<use xlink:href="#SVGID_00000152984318787954643520000004878433696678297000_"  style="overflow:visible;"/>
			</clipPath>
			<path style="clip-path:url(#SVGID_00000025421897647967458860000008519510343284687529_);fill:#FFFFFF;" d="M381,368.8
				c-1.9,0.6-3.9,2.1-5.7,5.4c0,0,0,0,0,0c0,0,0,0,0,0C377.1,370.9,379.1,369.3,381,368.8L381,368.8"/>
			<path style="clip-path:url(#SVGID_00000025421897647967458860000008519510343284687529_);fill:#C3BBC8;" d="M381.1,368.7
				C381,368.7,381,368.8,381.1,368.7L381.1,368.7C381,368.8,381,368.7,381.1,368.7"/>
			<path style="clip-path:url(#SVGID_00000025421897647967458860000008519510343284687529_);fill:#FFFFFF;" d="M374,376.8
				c-0.6,1.4-1.1,2.7-1.6,4.1c0,0,0,0,0,0C372.9,379.3,373.5,377.9,374,376.8"/>
			<path style="clip-path:url(#SVGID_00000025421897647967458860000008519510343284687529_);fill:#FFFFFF;" d="M391.7,377.4
				c0.5,1.7,0.8,3.5,1,5.3C392.6,381,392.3,379.2,391.7,377.4"/>
			<path style="clip-path:url(#SVGID_00000025421897647967458860000008519510343284687529_);fill:#E7E7E8;" d="M384.4,368.7h-3.1
				c-0.1,0-0.2,0-0.3,0.1c0,0,0,0-0.1,0c-1.9,0.6-3.9,2.1-5.7,5.4c0,0,0,0,0,0c-0.4,0.9-0.9,1.7-1.3,2.6c-0.5,1.2-1.1,2.6-1.6,4.1
				c0.1-0.2,0.3-0.4,0.4-0.6c2.9-4.2,6.3-5.4,9.2-5.4c4.2,0,7.5,2.5,7.5,2.5c0.3,0.4,0.6,0.8,0.9,1.2c1,1.4,1.8,2.9,2.4,4.4h0
				c0,0,0-0.1,0-0.1c-0.2-1.8-0.5-3.6-1-5.3c-0.5-1.8-1.2-3.5-2.1-5.1c-0.2-0.4-0.5-0.8-0.8-1.2
				C388.7,370.9,386.9,369.2,384.4,368.7"/>
		</g>
		<path style="clip-path:url(#SVGID_00000173125751095519627400000006053322976365243298_);fill:#371A45;" d="M392.7,384l-0.2,0
			l-19.7-3.3c-0.8-0.1-1.3-0.9-1.2-1.7c0.1-0.8,0.9-1.3,1.7-1.2L393,381c0.8,0.1,1.4,0.9,1.2,1.7C394.1,383.5,393.5,384,392.7,384"
			/>
		<path style="clip-path:url(#SVGID_00000173125751095519627400000006053322976365243298_);fill:#371A45;" d="M392.6,394.6l-0.2,0
			l-23.1-3.1c-0.8-0.1-1.4-0.8-1.3-1.7c0.1-0.8,0.8-1.4,1.7-1.3l0,0l23.1,3.1c0.8,0.1,1.4,0.9,1.3,1.7
			C394,394.1,393.4,394.7,392.6,394.6"/>
		<path style="clip-path:url(#SVGID_00000173125751095519627400000006053322976365243298_);fill:#371A45;" d="M390.6,405.1l-0.2,0
			l-23.4-2.9c-0.8-0.1-1.4-0.8-1.3-1.7c0.1-0.8,0.8-1.4,1.7-1.3l23.4,2.9c0.8,0.1,1.4,0.8,1.3,1.7
			C392,404.5,391.3,405.1,390.6,405.1L390.6,405.1"/>
		<path style="clip-path:url(#SVGID_00000173125751095519627400000006053322976365243298_);fill:#371A45;" d="M386.9,416.5l-0.1,0
			l-21-1.9c-0.8-0.1-1.4-0.8-1.3-1.6c0.1-0.8,0.8-1.4,1.6-1.4l21,1.9c0.8,0.1,1.4,0.8,1.4,1.6C388.3,415.9,387.6,416.5,386.9,416.5"
			/>
		<g style="clip-path:url(#SVGID_00000173125751095519627400000006053322976365243298_);">
			<defs>
				<polyline id="SVGID_00000018212173445928388300000007721271828675271596_" points="365.9,402.6 388.4,402.6 388.4,427 
					365.9,427 365.9,402.6 				"/>
			</defs>
			<clipPath id="SVGID_00000065033366891108359760000009688640732157797535_">
				<use xlink:href="#SVGID_00000018212173445928388300000007721271828675271596_"  style="overflow:visible;"/>
			</clipPath>
			<path style="clip-path:url(#SVGID_00000065033366891108359760000009688640732157797535_);fill:#B9AFBE;" d="M366.8,402.6
				L366.8,402.6c-0.2,1.2-0.3,2.4-0.5,3.6c0,0,0,0,0,0C366.5,405,366.6,403.8,366.8,402.6"/>
			<path style="clip-path:url(#SVGID_00000065033366891108359760000009688640732157797535_);fill:#8C7B94;" d="M366.3,406.2
				c-0.2,1.9-0.4,3.7-0.4,5.4c0,0,0,0,0,0C366,409.9,366.1,408.1,366.3,406.2C366.3,406.2,366.3,406.2,366.3,406.2"/>
			<path style="clip-path:url(#SVGID_00000065033366891108359760000009688640732157797535_);fill:#857B8C;" d="M388.4,410.7
				c-0.7,1-1.5,1.9-2.5,2.7l1.1,0.1c0.1,0,0.3,0,0.4,0.1C387.7,412.7,388.1,411.7,388.4,410.7L388.4,410.7 M366.8,402.6L366.8,402.6
				c-0.2,1.2-0.3,2.4-0.5,3.6c-0.2,1.9-0.4,3.7-0.4,5.4c0,0,0.1,0,0.1,0l2.7,0.2C367.4,409.5,366.9,406.3,366.8,402.6"/>
			<path style="clip-path:url(#SVGID_00000065033366891108359760000009688640732157797535_);fill:#8C7B94;" d="M366.2,417.9
				C366.2,418,366.2,418,366.2,417.9C366.2,418,366.2,418,366.2,417.9 M365.9,414.6c0,1.2,0.1,2.3,0.3,3.3
				C366.1,416.9,366,415.8,365.9,414.6L365.9,414.6"/>
			<path style="clip-path:url(#SVGID_00000065033366891108359760000009688640732157797535_);fill:#B9AFBE;" d="M382.6,423.8
				c-1.2,1.3-2.8,2.3-4.5,2.8c0,0,0,0,0,0C379.8,426.1,381.4,425.2,382.6,423.8"/>
			<path style="clip-path:url(#SVGID_00000065033366891108359760000009688640732157797535_);fill:#371A45;" d="M378.1,426.6
				c-0.8,0.2-1.7,0.4-2.6,0.4c0,0,0,0,0,0h-3.2h0l0,0h3.2c0,0,0,0,0,0C376.4,427,377.3,426.9,378.1,426.6
				C378.1,426.6,378.1,426.6,378.1,426.6"/>
			<path style="clip-path:url(#SVGID_00000065033366891108359760000009688640732157797535_);fill:#857B8C;" d="M365.9,414.6
				c0,1.2,0.1,2.3,0.3,3.3l0,0c0,0,0,0,0,0c0.7,4.8,2.5,8.3,6.1,9l0,0h0h3.2c0,0,0,0,0,0c0.9,0,1.7-0.1,2.6-0.4
				c1.7-0.5,3.3-1.5,4.5-2.8c0.7-0.7,1.2-1.6,1.6-2.5c0.6-1.4,1.3-3.1,2.1-4.9l-6.3-0.6c-0.5,0.1-0.9,0.1-1.4,0.1
				c-0.1,0-0.2,0-0.4,0h-3.8c-0.9-0.2-1.7-0.4-2.4-0.8L365.9,414.6"/>
			<path style="clip-path:url(#SVGID_00000065033366891108359760000009688640732157797535_);fill:#371A45;" d="M385.9,413.4
				c-1.7,1.3-3.7,2.2-5.9,2.5l6.3,0.6c0.4-0.9,0.7-1.9,1.1-2.8c-0.1,0-0.3-0.1-0.4-0.1L385.9,413.4 M365.9,411.6c0,0.5,0,0.9,0,1.3
				v0.5c0,0.4,0,0.8,0,1.1l0,0l6.1,0.5c-1.4-0.7-2.5-1.9-3.3-3.3l-2.7-0.2C366,411.6,366,411.6,365.9,411.6
				C365.9,411.6,365.9,411.6,365.9,411.6"/>
		</g>
		<path style="clip-path:url(#SVGID_00000173125751095519627400000006053322976365243298_);fill:#371A45;" d="M375.5,428.5h-3.2
			c-0.1,0-0.2,0-0.3,0c-2.7-0.6-4.9-2.5-5.8-5c-3-6.6-1.5-18,0.2-26.5c2.1-10.3,5.5-19.7,7.6-23.5c2-3.6,4.5-5.6,7.5-6.1
			c4.5-0.7,8.3,2.6,8.4,2.7c0.1,0.1,0.2,0.2,0.2,0.2c0.3,0.4,0.6,0.9,0.8,1.3c3.8,6.6,4.6,15.7,2.4,26.9c-1.7,8.1-4.3,15.9-7.7,23.4
			C383.8,425.9,379.9,428.5,375.5,428.5 M372.5,425.5h3.1c3.2,0,6.1-1.9,7.4-4.8c3.3-7.3,5.8-14.9,7.5-22.8c2-10.5,1.4-18.9-2-24.8
			c-0.2-0.3-0.4-0.6-0.6-0.9c-0.6-0.5-3.1-2.4-5.8-1.9c-2,0.3-3.8,1.9-5.3,4.6c-2,3.6-5.2,12.8-7.3,22.7
			c-2.4,11.3-2.5,20.1-0.4,24.6C369.4,423.8,370.8,425,372.5,425.5"/>
		<path style="clip-path:url(#SVGID_00000173125751095519627400000006053322976365243298_);fill:#AFAFB2;" d="M207.3,427h-3.2
			c-3.8,0-7.2-2.2-8.7-5.7c-4.8-10.8-13.6-34.5-5.4-49c0.2-0.4,0.5-0.8,0.8-1.2c0.4-0.6,7.9-7.2,13.6,3
			C209.6,383.6,220.7,424.2,207.3,427L207.3,427"/>
		<g style="clip-path:url(#SVGID_00000173125751095519627400000006053322976365243298_);">
			<defs>
				<polyline id="SVGID_00000091707620748458669630000007542147425664975800_" points="186.8,368.7 207.2,368.7 207.2,382.9 
					186.8,382.9 186.8,368.7 				"/>
			</defs>
			<clipPath id="SVGID_00000145026305596297897220000000337930895732114875_">
				<use xlink:href="#SVGID_00000091707620748458669630000007542147425664975800_"  style="overflow:visible;"/>
			</clipPath>
			<path style="clip-path:url(#SVGID_00000145026305596297897220000000337930895732114875_);fill:#FFFFFF;" d="M205.6,376.9
				c0.5,1.2,1,2.5,1.6,4c0,0,0,0,0,0C206.7,379.5,206.2,378.2,205.6,376.9"/>
			<path style="clip-path:url(#SVGID_00000145026305596297897220000000337930895732114875_);fill:#FFFFFF;" d="M187.9,377.4
				c-0.5,1.8-0.9,3.6-1.1,5.5C187,380.9,187.3,379.1,187.9,377.4"/>
			<path style="clip-path:url(#SVGID_00000145026305596297897220000000337930895732114875_);fill:#E7E7E8;" d="M198.3,368.7h-3.1
				c-2.4,0.5-4.2,2.2-4.4,2.5c-0.3,0.4-0.5,0.8-0.8,1.2c-0.9,1.6-1.6,3.3-2.1,5c-0.5,1.7-0.9,3.6-1.1,5.5c0,0,0,0.1,0,0.1l0,0
				c0.6-1.6,1.4-3,2.4-4.4c0.3-0.4,0.6-0.8,0.9-1.2c0,0,3.3-2.5,7.5-2.5c2.9,0,6.3,1.2,9.2,5.4c0.1,0.2,0.3,0.4,0.4,0.6
				c-0.5-1.5-1.1-2.8-1.6-4c-0.4-0.9-0.9-1.8-1.3-2.7C202.4,370.7,200.2,369.2,198.3,368.7"/>
		</g>
		<path style="clip-path:url(#SVGID_00000173125751095519627400000006053322976365243298_);fill:#371A45;" d="M186.8,384
			c-0.8,0-1.5-0.7-1.5-1.5c0-0.7,0.5-1.4,1.2-1.5l19.7-3.3c0.8-0.1,1.6,0.4,1.7,1.2c0.1,0.8-0.4,1.5-1.2,1.7l-19.7,3.3L186.8,384"/>
		<path style="clip-path:url(#SVGID_00000173125751095519627400000006053322976365243298_);fill:#371A45;" d="M187,394.6
			c-0.8,0-1.5-0.7-1.5-1.5c0-0.7,0.6-1.4,1.3-1.5l23.1-3.1c0.8-0.1,1.6,0.5,1.7,1.3c0.1,0.8-0.5,1.5-1.3,1.7l-23.1,3.1L187,394.6"/>
		<path style="clip-path:url(#SVGID_00000173125751095519627400000006053322976365243298_);fill:#371A45;" d="M189,405.1
			c-0.8,0-1.5-0.7-1.5-1.5c0-0.8,0.6-1.4,1.3-1.5l23.4-2.9c0.8-0.1,1.6,0.5,1.7,1.3c0.1,0.8-0.5,1.6-1.3,1.7l-23.4,2.9L189,405.1
			L189,405.1"/>
		<path style="clip-path:url(#SVGID_00000173125751095519627400000006053322976365243298_);fill:#371A45;" d="M192.7,416.5
			c-0.8,0-1.5-0.7-1.5-1.5c0-0.8,0.6-1.4,1.4-1.5l21-1.9c0.8-0.1,1.5,0.5,1.6,1.3c0.1,0.8-0.5,1.5-1.3,1.6l-21,1.9L192.7,416.5"/>
		<g style="clip-path:url(#SVGID_00000173125751095519627400000006053322976365243298_);">
			<defs>
				<polyline id="SVGID_00000142150293837154158930000015534781836235561121_" points="191.2,402.6 213.7,402.6 213.7,427 
					191.2,427 191.2,402.6 				"/>
			</defs>
			<clipPath id="SVGID_00000121247446480232349070000005758617469904463780_">
				<use xlink:href="#SVGID_00000142150293837154158930000015534781836235561121_"  style="overflow:visible;"/>
			</clipPath>
			<path style="clip-path:url(#SVGID_00000121247446480232349070000005758617469904463780_);fill:#857B8C;" d="M212.8,402.6
				L212.8,402.6c0,3.7-0.6,6.9-1.9,9.2l2.7-0.2c0,0,0.1,0,0.1,0C213.6,408.8,213.2,405.7,212.8,402.6"/>
			<path style="clip-path:url(#SVGID_00000121247446480232349070000005758617469904463780_);fill:#B9AFBE;" d="M191.2,410.7
				L191.2,410.7c0.3,1,0.7,2,1,2.9c0,0,0,0,0,0C191.8,412.7,191.5,411.7,191.2,410.7C191.2,410.7,191.2,410.7,191.2,410.7"/>
			<path style="clip-path:url(#SVGID_00000121247446480232349070000005758617469904463780_);fill:#857B8C;" d="M191.2,410.7
				c0.3,1,0.7,2,1,2.9c0.1,0,0.3-0.1,0.4-0.1l1.1-0.1C192.7,412.7,191.9,411.8,191.2,410.7"/>
			<path style="clip-path:url(#SVGID_00000121247446480232349070000005758617469904463780_);fill:#B9AFBE;" d="M193.3,416.4
				L193.3,416.4c0.7,1.8,1.4,3.5,2.1,4.9c1.2,2.6,3.5,4.6,6.2,5.3c0,0,0,0,0,0c-2.7-0.8-5-2.7-6.2-5.3
				C194.7,419.9,194,418.3,193.3,416.4"/>
			<path style="clip-path:url(#SVGID_00000121247446480232349070000005758617469904463780_);fill:#371A45;" d="M201.5,426.6
				C201.5,426.6,201.5,426.6,201.5,426.6c0.8,0.2,1.7,0.4,2.6,0.4c0,0,0,0,0,0h3.2l0,0h-3.2c0,0,0,0,0,0
				C203.2,427,202.3,426.9,201.5,426.6"/>
			<path style="clip-path:url(#SVGID_00000121247446480232349070000005758617469904463780_);fill:#857B8C;" d="M213.7,414.6
				l-6.1,0.6c-0.7,0.4-1.5,0.6-2.4,0.8h-3.8c-0.1,0-0.2,0-0.4,0c-0.5,0-0.9,0-1.4-0.1l-6.3,0.6c0.7,1.8,1.4,3.5,2.1,4.9
				c1.2,2.6,3.5,4.6,6.2,5.3c0.8,0.2,1.7,0.4,2.6,0.4c0,0,0,0,0,0h3.2l0,0C211.7,426.1,213.4,421.2,213.7,414.6"/>
			<path style="clip-path:url(#SVGID_00000121247446480232349070000005758617469904463780_);fill:#371A45;" d="M193.6,413.4
				l-1.1,0.1c-0.1,0-0.3,0-0.4,0.1c0,0,0,0,0,0c0.4,1,0.7,1.9,1.1,2.8l0,0l6.3-0.6C197.4,415.6,195.3,414.8,193.6,413.4
				 M213.6,411.6c0,0-0.1,0-0.1,0l-2.7,0.2c-0.8,1.4-1.9,2.6-3.3,3.3l6.1-0.6C213.7,413.6,213.7,412.6,213.6,411.6"/>
		</g>
		<path style="clip-path:url(#SVGID_00000173125751095519627400000006053322976365243298_);fill:#371A45;" d="M207.3,428.5h-3.2
			c-4.4,0-8.3-2.6-10.1-6.5c-3.4-7.5-6-15.4-7.7-23.4c-2.2-11.2-1.4-20.3,2.4-26.9c0.3-0.5,0.5-0.9,0.8-1.3c0.1-0.1,0.1-0.2,0.2-0.2
			c0.2-0.1,3.9-3.5,8.4-2.7c3,0.5,5.5,2.5,7.5,6.1c2.2,3.9,5.5,13.2,7.6,23.5c1.8,8.5,3.2,19.9,0.2,26.5c-1,2.5-3.2,4.4-5.8,5
			C207.5,428.5,207.4,428.5,207.3,428.5 M191.8,372.1c-0.2,0.3-0.4,0.6-0.6,0.9c-3.4,6-4.1,14.3-2,24.8c1.7,7.8,4.2,15.5,7.5,22.8
			c1.3,2.9,4.2,4.8,7.4,4.8h3.1c1.7-0.4,3-1.7,3.6-3.3c2.1-4.6,1.9-13.3-0.4-24.6c-2.1-9.9-5.3-19.1-7.3-22.7
			c-1.5-2.7-3.3-4.3-5.3-4.6C194.9,369.8,192.4,371.7,191.8,372.1"/>
		<path style="clip-path:url(#SVGID_00000173125751095519627400000006053322976365243298_);fill:#371A45;" d="M243.6,425.6
			c-0.7,0-1.4-0.6-1.4-1.4c0-0.2,0.1-0.4,0.2-0.6c5.7-10.8,5.7-23,0.2-36.1c-2.5-6.1-6-11.7-10.1-16.8c-0.5-0.6-0.4-1.4,0.1-1.9
			c0.6-0.5,1.4-0.4,1.9,0.1c4.4,5.3,7.9,11.2,10.6,17.5c2.5,5.7,3.9,11.7,4.2,17.9c0.4,7.1-1.2,14.3-4.5,20.6
			C244.6,425.3,244.1,425.6,243.6,425.6L243.6,425.6"/>
		<path style="clip-path:url(#SVGID_00000173125751095519627400000006053322976365243298_);fill:#371A45;" d="M336.5,425.6
			c-0.5,0-1-0.3-1.2-0.7c-3.3-6.3-4.9-13.5-4.5-20.6c0.3-6.2,1.8-12.2,4.2-17.9c2.6-6.3,6.2-12.2,10.6-17.5c0.5-0.6,1.4-0.6,1.9-0.1
			c0.6,0.5,0.6,1.3,0.1,1.9c-4.2,5.1-7.6,10.7-10.1,16.8c-5.5,13.2-5.4,25.3,0.2,36.1c0.3,0.7,0.1,1.5-0.6,1.8
			C336.9,425.6,336.7,425.6,336.5,425.6L336.5,425.6"/>
		<g style="clip-path:url(#SVGID_00000173125751095519627400000006053322976365243298_);">
			<defs>
				<polyline id="SVGID_00000176739090183033519740000009221792016968737441_" points="243.7,261.1 334.7,261.1 334.7,316.9 
					243.7,316.9 243.7,261.1 				"/>
			</defs>
			<clipPath id="SVGID_00000063601368698356925610000006865278646382886276_">
				<use xlink:href="#SVGID_00000176739090183033519740000009221792016968737441_"  style="overflow:visible;"/>
			</clipPath>
			<path style="clip-path:url(#SVGID_00000063601368698356925610000006865278646382886276_);fill:#B9AFBE;" d="M330.8,293.8
				c-0.9,0.7-1.9,1.4-2.9,2c0.6,1.6,1.2,3.1,1.8,4.7c0,0,0,0,0,0c0,0,0,0,0,0c1.3-1.2,2.5-2.4,3.7-3.7
				C332.6,295.7,331.7,294.7,330.8,293.8"/>
			<path style="clip-path:url(#SVGID_00000063601368698356925610000006865278646382886276_);fill:#371A45;" d="M332.3,292.7
				c-0.5,0.4-1,0.7-1.4,1.1c0.9,0.9,1.7,1.9,2.6,2.9c0.4-0.4,0.8-0.9,1.2-1.4l0,0l0,0C333.9,294.5,333.1,293.6,332.3,292.7"/>
			<path style="clip-path:url(#SVGID_00000063601368698356925610000006865278646382886276_);fill:#B9AFBE;" d="M247.5,294.5
				c-0.9,0.3-1.7,0.6-2.6,0.8c1.6,1.8,3.2,3.5,4.9,5.1c0,0,0,0,0,0c0.4-1.1,0.9-2.3,1.3-3.4C249.9,296.2,248.7,295.3,247.5,294.5"/>
			<path style="clip-path:url(#SVGID_00000063601368698356925610000006865278646382886276_);fill:#371A45;" d="M245.7,293.2
				c-0.7,0.2-1.4,0.4-2.1,0.7v0c0.4,0.5,0.8,1,1.3,1.5c0.8-0.3,1.7-0.5,2.6-0.8C246.9,294,246.3,293.6,245.7,293.2"/>
			<path style="clip-path:url(#SVGID_00000063601368698356925610000006865278646382886276_);fill:#B9AFBE;" d="M328,295.9
				c-10.8,7.3-23.5,11.4-36.7,11.9c-0.9,0-1.7,0-2.6,0h0c-13.8,0-26.7-4-37.5-10.9c-0.4,1.2-0.9,2.3-1.3,3.4
				c4.3,4.1,9.2,7.5,14.4,10.2c8,4.2,16.8,6.2,25.6,6.2c9.2,0,18.3-2.3,26.6-6.8c4.8-2.6,9.3-5.8,13.3-9.6c0,0,0,0,0,0
				C329.2,299,328.6,297.4,328,295.9"/>
		</g>
		<path style="clip-path:url(#SVGID_00000173125751095519627400000006053322976365243298_);fill:#FFFFFF;" d="M356.8,251.8
			c-0.8,0.1-1.5-0.5-1.5-1.2l0,0l-4.3-39.9c-0.1-0.8,0.5-1.5,1.2-1.5h0c8-0.9,15.2,4.9,16.1,13l1.5,13.6
			C370.7,243.7,364.9,250.9,356.8,251.8L356.8,251.8L356.8,251.8"/>
		<path style="clip-path:url(#SVGID_00000173125751095519627400000006053322976365243298_);fill:#371A45;" d="M356.7,252.2
			c-0.9,0-1.6-0.7-1.7-1.6l-4.3-39.9c-0.1-1,0.6-1.8,1.5-1.9c8.2-0.9,15.6,5.1,16.5,13.3l1.5,13.6c0.9,8.2-5.1,15.6-13.3,16.5l0-0.3
			l0,0.3L356.7,252.2L356.7,252.2 M353.8,209.4c-0.5,0-1,0-1.5,0.1c-0.6,0.1-1,0.6-0.9,1.2l4.3,39.9c0.1,0.6,0.6,1,1.2,0.9l0,0
			c7.8-0.8,13.5-7.9,12.7-15.7l-1.5-13.6C367.2,214.9,361.1,209.4,353.8,209.4L353.8,209.4"/>
		<g style="clip-path:url(#SVGID_00000173125751095519627400000006053322976365243298_);">
			<defs>
				<polyline id="SVGID_00000126318986289109575390000001716569325324483998_" points="354.2,229.3 369.9,229.3 369.9,251.8 
					354.2,251.8 354.2,229.3 				"/>
			</defs>
			<clipPath id="SVGID_00000046302601751251698500000000323931362258912910_">
				<use xlink:href="#SVGID_00000126318986289109575390000001716569325324483998_"  style="overflow:visible;"/>
			</clipPath>
			<path style="clip-path:url(#SVGID_00000046302601751251698500000000323931362258912910_);fill:#B9AFBE;" d="M367.6,233.2
				c-1.9,3.3-4.9,5.8-8.6,6.8c-0.1,3.2-0.4,6.4-1,9.6c6.3-1.4,10.6-7.3,9.9-13.8L367.6,233.2"/>
		</g>
		<path style="clip-path:url(#SVGID_00000173125751095519627400000006053322976365243298_);fill:#371A45;" d="M356.7,253.7
			c-1.7,0-3.1-1.3-3.3-3l-4.3-39.9c-0.2-1.8,1.1-3.4,2.9-3.6l0,0c9.1-1,17.2,5.6,18.2,14.7l1.5,13.6c1,9.1-5.6,17.2-14.7,18.2l0,0
			C356.9,253.7,356.8,253.7,356.7,253.7L356.7,253.7 M353,211l4.2,38.8c6.7-1,11.5-7.1,10.8-13.9l-1.5-13.6
			C365.7,215.5,359.8,210.6,353,211L353,211"/>
		<path style="clip-path:url(#SVGID_00000173125751095519627400000006053322976365243298_);fill:#FFFFFF;" d="M220.6,223.3
			c0.8-0.1,1.5,0.5,1.5,1.2l4.3,39.9c0.1,0.8-0.5,1.5-1.2,1.5c-8,0.9-15.2-4.9-16.1-13l-1.5-13.6
			C206.8,231.4,212.6,224.2,220.6,223.3"/>
		<path style="clip-path:url(#SVGID_00000173125751095519627400000006053322976365243298_);fill:#371A45;" d="M223.6,266.4
			c-7.6,0-14-5.8-14.9-13.4l-1.5-13.6c-0.9-8.2,5.1-15.6,13.3-16.5l0,0.3l0-0.3c1-0.1,1.8,0.6,1.9,1.5l4.3,39.9
			c0.1,1-0.6,1.8-1.5,1.9C224.7,266.3,224.2,266.4,223.6,266.4L223.6,266.4 M220.8,223.6l-0.1,0c-7.8,0.9-13.5,7.9-12.7,15.7
			l1.5,13.6c0.9,7.8,7.9,13.5,15.7,12.7c0.6-0.1,1-0.6,0.9-1.2l-4.3-39.9C221.8,224,221.3,223.6,220.8,223.6L220.8,223.6"/>
		<g style="clip-path:url(#SVGID_00000173125751095519627400000006053322976365243298_);">
			<defs>
				<polyline id="SVGID_00000017512777382403469240000017111390585356290435_" points="208.5,247.3 226.4,247.3 226.4,266 
					208.5,266 208.5,247.3 				"/>
			</defs>
			<clipPath id="SVGID_00000039853136396302511470000002349103661141966518_">
				<use xlink:href="#SVGID_00000017512777382403469240000017111390585356290435_"  style="overflow:visible;"/>
			</clipPath>
			<path style="clip-path:url(#SVGID_00000039853136396302511470000002349103661141966518_);fill:#B9AFBE;" d="M210.7,250.1l0.3,2.6
				c0.7,6.5,6.2,11.3,12.6,11.3c-1.3-3.1-2.3-6.4-3.2-9.7C216.8,254.3,213.3,252.7,210.7,250.1"/>
		</g>
		<path style="clip-path:url(#SVGID_00000173125751095519627400000006053322976365243298_);fill:#371A45;" d="M223.6,267.9
			c-8.4,0-15.5-6.4-16.4-14.8l-1.5-13.6c-1-9.1,5.6-17.2,14.7-18.2c1.8-0.2,3.4,1.1,3.6,2.9l4.3,39.9c0.2,1.8-1.1,3.4-2.9,3.6
			C224.8,267.9,224.2,267.9,223.6,267.9L223.6,267.9 M220.3,225.3c-6.7,1-11.5,7.1-10.8,13.9l1.5,13.6c0.7,6.8,6.7,11.8,13.5,11.3
			L220.3,225.3"/>
		<path style="clip-path:url(#SVGID_00000173125751095519627400000006053322976365243298_);fill:#FFFFFF;" d="M357.1,235.1
			c1.4,37.7-28.1,69.4-65.8,70.8c-37.7,1.4-69.4-28.1-70.8-65.8c-1.4-37.7,28.1-69.4,65.8-70.8C324,167.9,355.7,197.4,357.1,235.1
			L357.1,235.1"/>
		<path style="clip-path:url(#SVGID_00000173125751095519627400000006053322976365243298_);fill:#371A45;" d="M288.7,306.2
			c-38-0.1-68.7-30.9-68.6-68.8c0-26.7,15.5-50.9,39.7-62.2c34.4-16,75.3-1.1,91.3,33.3c16,34.4,1.1,75.3-33.3,91.3
			c-8.3,3.9-17.3,6-26.5,6.4C290.4,306.2,289.5,306.2,288.7,306.2L288.7,306.2 M288.8,169.5c-0.8,0-1.7,0-2.5,0
			c-37.5,1.4-66.8,32.9-65.5,70.5c1.3,36.5,31.3,65.5,67.9,65.5c0.8,0,1.7,0,2.5,0c37.5-1.4,66.9-32.9,65.5-70.4
			C355.4,198.5,325.4,169.6,288.8,169.5L288.8,169.5"/>
		<g style="clip-path:url(#SVGID_00000173125751095519627400000006053322976365243298_);">
			<defs>
				<polyline id="SVGID_00000026146567931022794800000014722051875972306085_" points="220.4,225.7 357.1,225.7 357.1,305.9 
					220.4,305.9 220.4,225.7 				"/>
			</defs>
			<clipPath id="SVGID_00000039096403829781675090000008359662659279721097_">
				<use xlink:href="#SVGID_00000026146567931022794800000014722051875972306085_"  style="overflow:visible;"/>
			</clipPath>
			<path style="clip-path:url(#SVGID_00000039096403829781675090000008359662659279721097_);fill:#B9AFBE;" d="M334.2,286
				c-1.8,1.1-3.8,2.2-5.8,3.2c-11.5,5.8-24.1,9.1-36.9,9.9c-1.5,0.1-3,0.1-4.5,0.1c0,0-0.1,0-0.1,0l0,0c-10.9-0.1-21.7-2.2-31.8-6.1
				c-2.5-1-4.9-2-7.2-3.1c11.3,8.8,25.4,14,40.8,14c0.8,0,1.6,0,2.5,0C307.9,303.3,322.9,296.6,334.2,286"/>
		</g>
		<path style="clip-path:url(#SVGID_00000173125751095519627400000006053322976365243298_);fill:#371A45;" d="M288.7,307.8
			c-38.8,0-70.2-31.5-70.2-70.3c0-17.8,6.7-34.9,18.9-47.9c26.4-28.4,70.9-30.1,99.3-3.6c28.4,26.4,30.1,70.9,3.6,99.3
			c-12.7,13.7-30.3,21.7-49,22.4C290.4,307.8,289.5,307.8,288.7,307.8L288.7,307.8 M288.8,171.1c-0.8,0-1.6,0-2.4,0
			c-36.7,1.3-65.3,32.1-64,68.8c1.3,35.7,30.6,64,66.3,64c0.8,0,1.6,0,2.5,0c36.7-1.3,65.3-32.1,64-68.8
			C353.8,199.4,324.5,171.1,288.8,171.1L288.8,171.1"/>
		<path style="clip-path:url(#SVGID_00000173125751095519627400000006053322976365243298_);fill:#371A45;" d="M356.9,236.8
			c0.7,12.9-2.8,25.8-9.9,36.6c-5.2,8-27.3,22.6-55.5,24.3c-26.2,1.6-50.7-11.2-56.6-18.6c-8.2-10.1-12.9-22.5-13.6-35.4
			c-1.8-35.4,27.8-51.6,65.3-53.5C324,188.4,355.1,201.5,356.9,236.8L356.9,236.8"/>
		<path style="clip-path:url(#SVGID_00000173125751095519627400000006053322976365243298_);fill:#371A45;" d="M286.9,299.2
			c-10.9-0.1-21.7-2.2-31.8-6.1c-9.5-3.7-17.9-8.8-21.3-13.1c-8.3-10.3-13.2-23-13.9-36.2c-0.6-8.1,0.9-16.2,4.3-23.6
			c3.2-6.7,8.1-12.4,14.2-16.8c11.5-8.4,28.1-13.4,48.1-14.5c20-1,37,2.3,49.3,9.5c6.5,3.7,11.9,8.9,15.8,15.2
			c4.1,7,6.4,14.9,6.7,23.1c0.7,13.2-2.9,26.3-10.1,37.4c-3,4.7-10.6,10.4-19.6,15c-11.5,5.8-24.1,9.1-36.9,9.9
			C290,299.2,288.4,299.2,286.9,299.2L286.9,299.2 M293.5,191.4c-2.3,0-4.6,0.1-6.9,0.2c-19.5,1-35.6,5.8-46.7,13.9
			c-12.4,9.1-18.2,21.9-17.4,38.2c0.7,12.7,5.3,24.8,13.3,34.7c2.4,3,9.1,8,20.2,12.2c11.2,4.4,23.3,6.4,35.3,5.8
			c12.5-0.8,24.7-4.1,35.9-9.7c10.4-5.2,16.5-10.8,18.6-14.1c6.9-10.6,10.3-23.2,9.7-35.8c-0.8-16.2-8-28.4-21.2-36.2
			C324,194.6,309.9,191.4,293.5,191.4L293.5,191.4"/>
		<g style="clip-path:url(#SVGID_00000173125751095519627400000006053322976365243298_);">
			<defs>
				<polyline id="SVGID_00000113312354299664302960000015003168531922313376_" points="325.8,221.1 343.4,221.1 343.4,245.2 
					325.8,245.2 325.8,221.1 				"/>
			</defs>
			<clipPath id="SVGID_00000128456828256521722450000014869501472394592385_">
				<use xlink:href="#SVGID_00000113312354299664302960000015003168531922313376_"  style="overflow:visible;"/>
			</clipPath>
			<path style="clip-path:url(#SVGID_00000128456828256521722450000014869501472394592385_);fill:#9B8DA2;" d="M335.3,221.1
				c-4.5,0-8.6,4.7-9.4,10.9c-0.9,6.6,2.3,12.5,7.1,13.1c0.3,0,0.6,0.1,0.8,0.1c3.1,0,6.1-2.3,7.9-5.8c0.7-2.9,1.2-5.9,1.6-8.8
				c-0.5-5-3.3-8.9-7.2-9.4C335.9,221.1,335.6,221.1,335.3,221.1"/>
		</g>
		<g style="clip-path:url(#SVGID_00000173125751095519627400000006053322976365243298_);">
			<defs>
				<polyline id="SVGID_00000106839872169417223230000017575065060135777941_" points="320.3,252.2 329.9,252.2 329.9,263.2 
					320.3,263.2 320.3,252.2 				"/>
			</defs>
			<clipPath id="SVGID_00000053512861268501737210000015700298112420533142_">
				<use xlink:href="#SVGID_00000106839872169417223230000017575065060135777941_"  style="overflow:visible;"/>
			</clipPath>
			<path style="clip-path:url(#SVGID_00000053512861268501737210000015700298112420533142_);fill:#9B8DA2;" d="M325.5,252.2
				c-2.2,0-4.3,1.7-5,4.2c-0.8,3,0.6,5.9,3.1,6.6c0.3,0.1,0.7,0.1,1,0.1h0.1c2.2,0,4.2-1.7,4.9-4.2c0.1-0.5,0.2-1,0.2-1.5v-0.3
				c-0.1-2.3-1.4-4.2-3.4-4.8C326.2,252.2,325.8,252.2,325.5,252.2"/>
		</g>
		<g style="clip-path:url(#SVGID_00000173125751095519627400000006053322976365243298_);">
			<defs>
				<polyline id="SVGID_00000173848446294620801900000016045430361830479786_" points="263.2,204.5 357,204.5 357,297.9 
					263.2,297.9 263.2,204.5 				"/>
			</defs>
			<clipPath id="SVGID_00000107583527966379335290000006604083603382848697_">
				<use xlink:href="#SVGID_00000173848446294620801900000016045430361830479786_"  style="overflow:visible;"/>
			</clipPath>
			<polyline style="clip-path:url(#SVGID_00000107583527966379335290000006604083603382848697_);fill:#2A1A3B;" points="342,204.5 
				342,204.5 342,204.5 342,204.5 			"/>
			<path style="clip-path:url(#SVGID_00000107583527966379335290000006604083603382848697_);fill:#2A1A3B;" d="M342.5,206.7
				c0.7,3.5,1.1,7,1.3,10.5c0.2,4.5,0.1,8.9-0.5,13.3c0.1,1.2,0.1,2.5-0.1,3.7c-0.2,1.9-0.8,3.6-1.5,5.1
				c-2.1,8.6-5.6,16.9-10.5,24.4c-6.2,9.5-31.5,26.6-64.4,30.3c6.7,1.6,13.5,2.5,20.4,2.5c1.4,0,2.7,0,4.1-0.1
				c12.5-0.8,24.7-4.1,35.9-9.7c10.4-5.2,16.5-10.8,18.6-14.1c6.9-10.6,10.3-23.2,9.7-35.8C354.9,224.4,350.6,214.3,342.5,206.7"/>
			<path style="clip-path:url(#SVGID_00000107583527966379335290000006604083603382848697_);fill:#2A1A3B;" d="M342,204.5
				c0.2,0.7,0.3,1.5,0.5,2.2c8,7.5,12.4,17.6,13.1,30.2c0.6,12.7-2.8,25.2-9.7,35.8c-2.1,3.2-8.2,8.8-18.6,14.1
				c-11.2,5.6-23.4,8.9-35.9,9.7c-1.4,0.1-2.7,0.1-4.1,0.1c-6.9,0-13.8-0.8-20.4-2.5c-1.2,0.1-2.4,0.3-3.7,0.4
				c7.8,2.3,15.8,3.5,23.9,3.5c1.4,0,2.9,0,4.3-0.1c28.2-1.7,50.4-16.3,55.5-24.3c7.1-10.9,10.6-23.7,9.9-36.6
				C356.2,222.6,350.7,212,342,204.5"/>
			<path style="clip-path:url(#SVGID_00000107583527966379335290000006604083603382848697_);fill:#6B6577;" d="M343.4,230.6
				c-0.4,3-0.9,5.9-1.6,8.8c0.8-1.5,1.3-3.2,1.5-5.1C343.5,233,343.5,231.8,343.4,230.6"/>
		</g>
		<path style="clip-path:url(#SVGID_00000173125751095519627400000006053322976365243298_);fill:#371A45;" d="M224.8,215.2
			c-1,0-1.8-0.8-1.8-1.8c0-0.4,0.1-0.7,0.3-1c2.9-4.8,6.5-9,10.8-12.7c4.4-3.8,9.3-6.9,14.5-9.4c5.6-2.7,11.4-4.7,17.4-6.1
			c6.5-1.5,13.1-2.4,19.7-2.8c6.6-0.4,13.1-0.1,19.7,0.7c6.1,0.8,12.1,2.1,18,4.2c5.5,1.9,10.7,4.4,15.5,7.6c4.6,3,8.7,6.8,12.1,11
			c0.7,0.8,0.6,1.9-0.1,2.6c-0.7,0.6-1.6,0.6-2.3,0.1l-0.2-0.1l-0.1-0.2c-12.3-15.5-35-23.6-62.2-22.2c-27.4,1.4-49,12.1-59.5,29.3
			l0,0.1l-0.1,0.1C225.9,215,225.4,215.2,224.8,215.2L224.8,215.2"/>
		<g style="clip-path:url(#SVGID_00000173125751095519627400000006053322976365243298_);">
			<defs>
				<polyline id="SVGID_00000147910542507131984470000015545967752681433774_" points="233.2,199.8 287.5,199.8 287.5,264 
					233.2,264 233.2,199.8 				"/>
			</defs>
			<clipPath id="SVGID_00000004533383759789009450000009520641815239148949_">
				<use xlink:href="#SVGID_00000147910542507131984470000015545967752681433774_"  style="overflow:visible;"/>
			</clipPath>
			<path style="clip-path:url(#SVGID_00000004533383759789009450000009520641815239148949_);fill:#9B8DA2;" d="M237.5,264
				C237.5,264,237.5,264,237.5,264L237.5,264C237.5,264,237.5,264,237.5,264 M284.6,199.8h-0.3c-7.6,0-27.3,3.4-41.4,15
				c-18,14.8-5.5,48.8-5.3,49.2c0-0.2,1.9-12,9.9-30.5c10.5-24.3,40.1-33,40.1-33C287.6,200.1,286.5,199.9,284.6,199.8"/>
		</g>
		<path style="clip-path:url(#SVGID_00000173125751095519627400000006053322976365243298_);fill:#371A45;" d="M362.5,381.6
			c0,0.3-0.1,0.6-0.2,0.9c-0.1,0.3-0.1,0.6-0.2,0.9c-0.1,0.6-0.3,1.2-0.4,1.9c-0.3,1.2-0.7,2.5-1,3.7c-0.3,1.2-0.7,2.5-1,3.7
			l-0.2,0.9c-0.1,0.3-0.2,0.6-0.2,0.9l-0.1,0.5l-0.1,0.2l-0.1,0.2c-0.1,0.3-0.1,0.6-0.2,1v0c0,0.1-0.1,0.2-0.3,0.2l-0.2-0.2
			c-0.1-0.7-0.2-1.3-0.3-2L358,394c0-0.2,0-0.3,0-0.5c0-0.3,0-0.7,0-1c0-1.3,0-2.7,0.1-4c0.1-1.3,0.3-2.6,0.5-3.9
			c0.1-0.7,0.3-1.3,0.5-1.9c0.1-0.3,0.2-0.6,0.3-1c0.1-0.3,0.2-0.6,0.4-0.9c0.3-0.8,1.2-1.1,2-0.8
			C362.2,380.2,362.6,380.8,362.5,381.6L362.5,381.6"/>
		<path style="clip-path:url(#SVGID_00000173125751095519627400000006053322976365243298_);fill:#371A45;" d="M220.1,380.7
			c0.1,0.3,0.2,0.6,0.4,0.9c0.1,0.3,0.2,0.6,0.3,1c0.2,0.6,0.3,1.3,0.5,1.9c0.2,1.3,0.4,2.6,0.5,3.9c0.1,1.3,0.2,2.7,0.1,4
			c0,0.3,0,0.7,0,1c0,0.2,0,0.3,0,0.5l-0.1,0.5c-0.1,0.7-0.2,1.3-0.3,2c0,0.1-0.1,0.2-0.3,0.2l-0.2-0.2v0c-0.1-0.3-0.2-0.6-0.2-1
			l-0.1-0.2l-0.1-0.2l-0.1-0.5c-0.1-0.3-0.1-0.6-0.2-0.9l-0.2-0.9c-0.3-1.3-0.7-2.5-1-3.7c-0.3-1.2-0.7-2.5-1-3.7
			c-0.2-0.6-0.3-1.2-0.5-1.9c-0.1-0.3-0.1-0.6-0.2-0.9c-0.1-0.3-0.1-0.6-0.2-0.9l0,0c-0.1-0.8,0.5-1.6,1.3-1.7
			C219.1,379.7,219.8,380.1,220.1,380.7L220.1,380.7"/>
		<path style="clip-path:url(#SVGID_00000173125751095519627400000006053322976365243298_);fill:#FF9ED5;" d="M350.7,430.9H229.5
			c-3.9,0-7.1-3.2-7.1-7.1c0-2.3,1.8-4.1,4.1-4.1h127.3c2.3,0,4.1,1.8,4.1,4.1C357.8,427.7,354.6,430.9,350.7,430.9L350.7,430.9
			L350.7,430.9"/>
		<g style="clip-path:url(#SVGID_00000173125751095519627400000006053322976365243298_);">
			<defs>
				<polyline id="SVGID_00000023267493066264706490000008861284894026487432_" points="222.4,419.7 357.8,419.7 357.8,426 
					222.4,426 222.4,419.7 				"/>
			</defs>
			<clipPath id="SVGID_00000013171154814662928760000007870305918967871646_">
				<use xlink:href="#SVGID_00000023267493066264706490000008861284894026487432_"  style="overflow:visible;"/>
			</clipPath>
			<path style="clip-path:url(#SVGID_00000013171154814662928760000007870305918967871646_);fill:#FFBBE2;" d="M353.7,421.5H226.4
				c-1.2,0-2.2,1-2.3,2.2c0.1,0.1,0.2,0.3,0.4,0.4c0.6-0.3,1.2-0.5,1.9-0.5h127.3c0,0,0,0,0,0c0.7,0,1.3,0.2,1.9,0.5
				c0.1-0.1,0.3-0.2,0.4-0.4C355.9,422.5,354.9,421.5,353.7,421.5"/>
		</g>
		<g style="clip-path:url(#SVGID_00000173125751095519627400000006053322976365243298_);">
			<defs>
				<polyline id="SVGID_00000126293522821561050960000007704890483091494277_" points="222.4,421.7 357.8,421.7 357.8,430.9 
					222.4,430.9 222.4,421.7 				"/>
			</defs>
			<clipPath id="SVGID_00000019639361971838178170000002381682749555823264_">
				<use xlink:href="#SVGID_00000126293522821561050960000007704890483091494277_"  style="overflow:visible;"/>
			</clipPath>
			<path style="clip-path:url(#SVGID_00000019639361971838178170000002381682749555823264_);fill:#B970A3;" d="M355.6,424.1
				c-1.3,1.2-3.1,2-4.9,2H229.5c0,0,0,0,0,0c-1.9,0-3.6-0.7-4.9-2c-0.1,0.1-0.2,0.1-0.4,0.2c0.2,2.7,2.5,4.8,5.3,4.8h121.2
				c2.8,0,5-2.1,5.3-4.8C355.9,424.2,355.7,424.1,355.6,424.1"/>
			<path style="clip-path:url(#SVGID_00000019639361971838178170000002381682749555823264_);fill:#B983AB;" d="M356,423.7
				c-0.1,0.1-0.2,0.3-0.4,0.4c0.1,0.1,0.2,0.1,0.3,0.2c0-0.2,0-0.3,0-0.5C356,423.8,356,423.7,356,423.7 M224.2,423.7
				c0,0,0,0.1,0,0.1c0,0.2,0,0.3,0,0.5c0.1-0.1,0.2-0.1,0.4-0.2C224.4,424,224.3,423.8,224.2,423.7"/>
		</g>
		<path style="clip-path:url(#SVGID_00000173125751095519627400000006053322976365243298_);fill:#371A45;" d="M350.7,432.7H229.5
			c-4.9,0-8.9-4-8.9-8.9c0-3.3,2.6-5.9,5.9-5.9h127.3c3.3,0,5.9,2.6,5.9,5.9C359.6,428.7,355.6,432.7,350.7,432.7L350.7,432.7
			 M226.4,421.5c-1.3,0-2.3,1-2.3,2.3c0,2.9,2.4,5.3,5.3,5.3h121.2c2.9,0,5.3-2.4,5.3-5.3c0-1.3-1-2.3-2.3-2.3H226.4"/>
		<path style="clip-path:url(#SVGID_00000173125751095519627400000006053322976365243298_);fill:#FF66AC;" d="M364.9,339.7l-11.9,80
			H227.1l-0.4-2.9l-11.4-77.1c-0.3-2.3,1.2-4.4,3.5-4.8c0.2,0,0.4,0,0.6,0h141.3c2.3,0,4.2,1.9,4.2,4.2
			C364.9,339.3,364.9,339.5,364.9,339.7L364.9,339.7"/>
		<path style="clip-path:url(#SVGID_00000173125751095519627400000006053322976365243298_);fill:#FF9ED5;" d="M365.1,340.1l-11.9,80
			H227.4l-0.4-2.9l-11.4-77.1c-0.3-2.3,1.2-4.4,3.5-4.8c0.2,0,0.4,0,0.6,0H361c2.3,0,4.2,1.9,4.2,4.2
			C365.2,339.7,365.2,339.9,365.1,340.1L365.1,340.1"/>
		<g style="clip-path:url(#SVGID_00000173125751095519627400000006053322976365243298_);">
			<defs>
				<polyline id="SVGID_00000170964434663434467630000003176903808172014775_" points="215.2,334.9 364.9,334.9 364.9,419.7 
					215.2,419.7 215.2,334.9 				"/>
			</defs>
			<clipPath id="SVGID_00000168808697940192676440000012161828093426790543_">
				<use xlink:href="#SVGID_00000170964434663434467630000003176903808172014775_"  style="overflow:visible;"/>
			</clipPath>
			<path style="clip-path:url(#SVGID_00000168808697940192676440000012161828093426790543_);fill:#FFCFEA;" d="M349.3,336.7H219.4
				c-1.3,0-2.4,1.1-2.4,2.4c0,0.1,0,0.2,0,0.3l11.5,77.4c0.6,0,1.2,0,1.9-0.1l-10.7-72.1c-0.3-2.3,1.2-4.4,3.5-4.8
				c0.2,0,0.4,0,0.6,0h126C349.7,338.7,349.5,337.7,349.3,336.7"/>
		</g>
		<g style="clip-path:url(#SVGID_00000173125751095519627400000006053322976365243298_);">
			<defs>
				<polyline id="SVGID_00000086667192565890927020000002264431931758520205_" points="228,334.9 363.1,334.9 363.1,419.7 
					228,419.7 228,334.9 				"/>
			</defs>
			<clipPath id="SVGID_00000132079802531741443860000014689263664294645943_">
				<use xlink:href="#SVGID_00000086667192565890927020000002264431931758520205_"  style="overflow:visible;"/>
			</clipPath>
			<path style="clip-path:url(#SVGID_00000132079802531741443860000014689263664294645943_);fill:#B970A3;" d="M340.3,381.8
				c-3.6,5.3-8.2,10.2-14.3,14.2c-29,19.2-80,20.2-95.6,20.7l0.2,1.2h120.8l5-33.5c-0.2,0-0.4,0-0.6,0c-0.7,0-1.5,0.1-2.3,0.2
				c-0.3,0-0.6,0.1-0.9,0.1c-0.7,0.1-1.5,0.2-2.2,0.3c0,0,0,0,0,0c0,0,0,0,0,0c-0.5,0-0.9,0.1-1.4,0.1c-2.1,0-4.5-0.5-7.2-2.2
				C341.2,382.6,340.8,382.2,340.3,381.8 M363,339.8h-13.2c0.1,0.7,0.2,1.4,0.2,2.1c1.2-0.2,2.4-0.3,3.6-0.3c3.7,0,6.9,0.9,8.8,1.5
				L363,339.8"/>
			<path style="clip-path:url(#SVGID_00000132079802531741443860000014689263664294645943_);fill:#B990B0;" d="M230.4,416.7
				c-0.7,0-1.3,0-1.9,0.1l0.2,1.1h1.9L230.4,416.7 M360.7,336.7h-11.4c0.2,1,0.4,2,0.6,3.2H363l0.1-0.4c0.2-1.3-0.7-2.5-2-2.7
				C361,336.7,360.8,336.7,360.7,336.7"/>
		</g>
		<path style="clip-path:url(#SVGID_00000173125751095519627400000006053322976365243298_);fill:#371A45;" d="M354.6,421.5h-129
			L213.5,340c-0.5-3.3,1.8-6.3,5.1-6.8c0.3,0,0.6-0.1,0.9-0.1h141.3c3.3,0,6,2.7,6,6c0,0.3,0,0.6-0.1,0.9L354.6,421.5 M228.7,417.9
			h122.8l11.6-78.5c0.2-1.3-0.7-2.5-2-2.7c-0.1,0-0.2,0-0.3,0H219.4c-1.3,0-2.4,1.1-2.4,2.4c0,0.1,0,0.2,0,0.3L228.7,417.9"/>
		<g style="clip-path:url(#SVGID_00000173125751095519627400000006053322976365243298_);">
			<defs>
				<polyline id="SVGID_00000075843900446590389080000001778434552141819017_" points="229.6,355.7 240.9,355.7 240.9,402.9 
					229.6,402.9 229.6,355.7 				"/>
			</defs>
			<clipPath id="SVGID_00000166637126626126749750000007233268934695398566_">
				<use xlink:href="#SVGID_00000075843900446590389080000001778434552141819017_"  style="overflow:visible;"/>
			</clipPath>
			<path style="clip-path:url(#SVGID_00000166637126626126749750000007233268934695398566_);fill:#FFBBE2;" d="M232.6,355.7
				c-1.4,0-2.6,2-2.9,6.3c-0.8,10.6,2.7,28.5,7.5,39.1v0c0.5,1.1,1.1,1.9,1.7,1.9h0.1c1,0,1.9-2.2,1.9-8.4v-0.7
				c0-5.4-0.7-13.6-2.4-25.7C237.4,360.1,234.7,355.7,232.6,355.7"/>
		</g>
		<path style="clip-path:url(#SVGID_00000173125751095519627400000006053322976365243298_);fill:#371A45;" d="M309.7,364.6
			c0.2-1.4,0.3-2.7,0.1-4.1c-0.1-0.1-0.2-0.3-0.3-0.5c-0.4-0.1-0.8-0.3-1.2-0.4c-2.8-0.8-5.8-1-8.7-0.8c-3.8,0.2-7.4,1.6-10.4,4
			c-1.1,0.9-2.1,1.9-3.1,2.8c-0.2,0.3-0.6,0.4-0.9,0.2c-0.9-0.4-1.9-0.6-2.9-0.6c-2.6-0.1-5.1,0.7-7.3,2.1c-2.3,1.6-4.4,3.5-6.2,5.7
			c-0.5,0.5-0.6,1.4-0.1,1.9c0.2,0.2,0.5,0.4,0.7,0.4c0.7,0.2,1.4,0.5,2.2,0.7c1.7,0.6,3.5,1.1,5.2,1.7l0,0.1l-0.1,0.1
			c-0.7,0.7-0.6,1.9,0.1,2.5l0.1,0.1c0.1,0.1,0.2,0.2,0.2,0.3c0.4,0.5,0.8,1.1,1.2,1.6c-0.6,0.4-1.1,0.8-1.6,1.3
			c-0.3,0.2-0.5,0.6-0.6,0.9c-0.1,0.5,0.1,1.1,0.6,1.4c0.5,0.3,1.1,0.3,1.5,0c0.6-0.4,1.2-0.9,1.8-1.3c0.6,0.8,1.1,1.5,1.7,2.2
			c0.4,0.7,1.3,1,2,0.7c0.2-0.1,0.3-0.1,0.6-0.1c0,0.2,0,0.4,0,0.5c0.1,2.5,0.2,5,0.4,7.5c-0.1,0.7,0.5,1.4,1.3,1.4
			c0.3,0,0.6-0.1,0.8-0.2c1-0.5,1.9-0.9,2.9-1.4c2.2-1.1,4.1-2.7,5.7-4.6c2.1-2.3,3-5.3,2.6-8.3c0-0.2,0.1-0.3,0.2-0.4
			c1-0.6,2-1.2,2.9-1.8c2.2-1.4,4-3.3,5.3-5.5C308.3,371.4,309.4,368.1,309.7,364.6 M278.3,375.4l-6.2-2c2.2-2.3,4.5-4.4,7.7-5.2
			c1.3-0.4,2.6-0.4,3.8,0C281.8,370.5,280.1,372.9,278.3,375.4 M295.1,385.6c-0.5,1.6-1.5,3-2.7,4.1c-1.5,1.4-3.2,2.6-5.1,3.5
			c-0.1-2.3-0.2-4.5-0.3-6.7c2.8-1.1,5.6-2.2,8.4-3.2C295.4,384.1,295.4,384.9,295.1,385.6 M305.5,370.3c-0.9,2.1-2.2,4.1-3.8,5.7
			c-1.3,1.2-2.8,2.3-4.4,3.1c-4.3,2.3-8.8,4.1-13.5,5.5c-0.2,0.1-0.4,0-0.5-0.2c-0.3-0.5-0.7-0.9-1-1.4l-0.1-0.2
			c0.1-0.1,0.2-0.2,0.4-0.3c2.7-2,5.3-4.1,8-6.1c0.6-0.4,0.8-1.2,0.4-1.9c-0.4-0.6-1.2-0.8-1.9-0.4l-0.1,0.1
			c-1.6,1.2-3.2,2.4-4.8,3.7c-1.2,0.9-2.4,1.8-3.6,2.8c-0.4-0.6-0.8-1.1-1.2-1.6c0-0.2,0-0.3,0.1-0.5c1.4-2.1,2.8-4.2,4.3-6.3
			c1.5-2.1,3.1-4,4.9-5.7c1.6-1.7,3.6-3.1,5.8-4c1.4-0.6,2.9-0.9,4.4-1.1c0.2,0,0.3,0.1,0.4,0.2c1.6,2,3.1,4,4.6,6
			c0.5,0.6,0.9,1.2,1.4,1.8C305.6,369.9,305.6,370.1,305.5,370.3 M306.5,367.5c-1.5-2-3-4-4.5-5.9l0-0.1c1.8,0.2,3.5,0.4,5.3,0.6
			C307.2,363.9,306.9,365.7,306.5,367.5"/>
		<path style="clip-path:url(#SVGID_00000173125751095519627400000006053322976365243298_);fill:#FFFFFF;" d="M305.5,369.7
			c-0.5-0.6-0.9-1.2-1.4-1.8c-1.5-2-3.1-4-4.6-6c-0.1-0.1-0.3-0.2-0.4-0.2c-1.5,0.2-3,0.5-4.4,1.1c-2.2,0.9-4.2,2.3-5.8,4
			c-1.8,1.7-3.5,3.7-4.9,5.7c-1.5,2.1-2.9,4.2-4.3,6.3c-0.1,0.1-0.1,0.3-0.1,0.5c0.4,0.5,0.8,1,1.2,1.6c1.2-0.9,2.4-1.9,3.6-2.8
			c1.6-1.2,3.2-2.4,4.8-3.7c0.6-0.5,1.4-0.4,1.9,0.1c0.5,0.6,0.4,1.4-0.1,1.9l-0.1,0.1c-2.7,2-5.3,4.1-8,6.1
			c-0.1,0.1-0.3,0.2-0.4,0.3l0.1,0.2c0.3,0.5,0.7,0.9,1,1.4c0.1,0.2,0.3,0.2,0.5,0.2c4.7-1.3,9.2-3.1,13.5-5.5
			c1.6-0.9,3-1.9,4.4-3.1c1.6-1.6,2.9-3.6,3.8-5.7C305.6,370.1,305.6,369.9,305.5,369.7 M300.8,372.8c-2,1.6-4.9,1.2-6.4-0.8
			s-1.2-4.9,0.8-6.4c2-1.6,4.9-1.2,6.4,0.8l0,0C303.1,368.4,302.8,371.2,300.8,372.8"/>
		<path style="clip-path:url(#SVGID_00000173125751095519627400000006053322976365243298_);fill:#DB2C2C;" d="M306.4,367.5
			c-1.5-2-3-4-4.5-5.9l0-0.1c1.8,0.2,3.5,0.4,5.3,0.6C307.2,363.8,306.9,365.7,306.4,367.5"/>
		<path style="clip-path:url(#SVGID_00000173125751095519627400000006053322976365243298_);fill:#DB2C2C;" d="M283.6,368.1l-5.3,7.2
			c-2-0.7-4.1-1.3-6.2-2c2.2-2.3,4.5-4.4,7.7-5.2C281,367.7,282.3,367.8,283.6,368.1"/>
		<path style="clip-path:url(#SVGID_00000173125751095519627400000006053322976365243298_);fill:#DB2C2C;" d="M292.4,389.7
			c-1.5,1.4-3.2,2.6-5.1,3.5c-0.1-2.3-0.2-4.5-0.3-6.7c2.8-1.1,5.6-2.2,8.4-3.2c0.1,0.8,0,1.6-0.3,2.4
			C294.6,387.2,293.6,388.6,292.4,389.7"/>
		<path style="clip-path:url(#SVGID_00000173125751095519627400000006053322976365243298_);fill:#371A45;" d="M301.6,366.4
			c-1.5-2-4.4-2.4-6.4-0.8c-2,1.5-2.4,4.4-0.8,6.4c1.5,2,4.4,2.4,6.4,0.8l0,0C302.8,371.3,303.1,368.4,301.6,366.4 M299.4,371.1
			c-1.1,0.8-2.6,0.6-3.4-0.5s-0.6-2.6,0.5-3.4c1.1-0.8,2.5-0.6,3.3,0.5C300.7,368.8,300.5,370.3,299.4,371.1L299.4,371.1"/>
		<path style="clip-path:url(#SVGID_00000173125751095519627400000006053322976365243298_);fill:#22A7F0;" d="M299.4,371.1
			c-1.1,0.8-2.6,0.6-3.4-0.5s-0.6-2.6,0.5-3.4c1.1-0.8,2.5-0.6,3.3,0.5C300.7,368.8,300.5,370.3,299.4,371.1L299.4,371.1"/>
		<path style="clip-path:url(#SVGID_00000173125751095519627400000006053322976365243298_);fill:#FFFFFF;" d="M364.2,343.9
			c0,0-9.8-4.6-18.9-0.5c-8.8,4-15,32.3-3.6,39.5c4.4,2.8,7.9,2.3,10.8,1.8c1.8-0.3,3.4-0.6,4.9-0.1
			C363.4,386.3,375.4,357.1,364.2,343.9"/>
		<g style="clip-path:url(#SVGID_00000173125751095519627400000006053322976365243298_);">
			<defs>
				<polyline id="SVGID_00000129912288716177498990000001988574841617008028_" points="335.6,362.3 368.7,362.3 368.7,385.1 
					335.6,385.1 335.6,362.3 				"/>
			</defs>
			<clipPath id="SVGID_00000023263291335560801310000014521124796217489060_">
				<use xlink:href="#SVGID_00000129912288716177498990000001988574841617008028_"  style="overflow:visible;"/>
			</clipPath>
			<path style="clip-path:url(#SVGID_00000023263291335560801310000014521124796217489060_);fill:#B9AFBE;" d="M368.7,362.3
				L368.7,362.3c-0.2,2.4-0.7,4.7-1.2,7c0,0,0,0,0,0C368,367.1,368.4,364.7,368.7,362.3L368.7,362.3"/>
			<path style="clip-path:url(#SVGID_00000023263291335560801310000014521124796217489060_);fill:#371A45;" d="M367.4,369.3
				C367.4,369.3,367.4,369.3,367.4,369.3c-1.2,4.7-3,8.8-4.9,11.6c0,0,0,0,0,0C364.4,378.1,366.2,374,367.4,369.3"/>
			<path style="clip-path:url(#SVGID_00000023263291335560801310000014521124796217489060_);fill:#371A45;" d="M362.5,380.9
				c-0.8,1.1-1.5,2.1-2.3,2.7l0,0C360.9,383,361.7,382.1,362.5,380.9C362.5,380.9,362.5,380.9,362.5,380.9"/>
			<path style="clip-path:url(#SVGID_00000023263291335560801310000014521124796217489060_);fill:#371A45;" d="M360.2,383.6
				c-0.5,0.4-1,0.7-1.5,0.9C359.2,384.4,359.7,384.1,360.2,383.6L360.2,383.6"/>
			<path style="clip-path:url(#SVGID_00000023263291335560801310000014521124796217489060_);fill:#8C5282;" d="M350.3,385
				C350.3,385,350.3,385,350.3,385C350.3,385,350.3,385,350.3,385 M353.5,384.6c-0.3,0-0.6,0.1-0.9,0.1c-0.7,0.1-1.5,0.2-2.2,0.3
				c0.8-0.1,1.5-0.2,2.2-0.3C352.9,384.7,353.2,384.6,353.5,384.6"/>
			<path style="clip-path:url(#SVGID_00000023263291335560801310000014521124796217489060_);fill:#B9AFBE;" d="M368.7,362.3
				c-2,7-6.1,12.5-11.2,13.4c-2.1,0.4-4.4,1.1-7.1,1.1c-2.5,0-5.3-0.6-8.7-2.8c-3.4-2.2-5.2-6.2-5.9-11c-1,8.1,0.5,16.4,5.9,19.8
				c2.7,1.7,5.1,2.2,7.2,2.2c0.5,0,1,0,1.4-0.1c0,0,0,0,0,0c0,0,0,0,0,0c0.8-0.1,1.5-0.2,2.2-0.3c0.3,0,0.6-0.1,0.9-0.1
				c0.8-0.1,1.6-0.2,2.3-0.2c0.6,0,1.2,0.1,1.7,0.2c0.2,0,0.3,0.1,0.5,0.1c0.2,0,0.5,0,0.7-0.1c0.5-0.2,1-0.5,1.5-0.9
				c0.8-0.6,1.5-1.5,2.3-2.7c1.9-2.8,3.7-7,4.9-11.6C368,367.1,368.4,364.7,368.7,362.3"/>
		</g>
		<path style="clip-path:url(#SVGID_00000173125751095519627400000006053322976365243298_);fill:#371A45;" d="M348.9,386.9
			c-2.9,0-5.7-0.8-8.2-2.4c-2.9-2-5-4.9-5.9-8.3c-1-3.6-1.4-7.4-1.1-11.2c0.3-4.9,1.5-9.7,3.4-14.2c1.4-3.2,3.8-7.4,7.4-9
			c9.8-4.4,20,0.3,20.4,0.5l0.4,0.2l0.3,0.3c5.1,6,5.4,14.4,4.8,20.3c-0.7,6.7-3.1,13.8-6.2,18.5s-5.6,5.2-7.3,4.7
			c-1.3-0.2-2.6-0.2-3.9,0.2C351.7,386.7,350.3,386.8,348.9,386.9 M353.7,343.5c-2.6,0-5.2,0.5-7.6,1.6c-1.9,0.9-3.9,3.5-5.5,7.2
			c-1.7,4.1-2.8,8.5-3.1,13c-0.5,7.8,1.4,13.7,5.2,16.2c3.9,2.5,6.9,2,9.8,1.5c1.8-0.4,3.7-0.5,5.5-0.1c0.2,0,1.7-0.5,3.8-4.2
			c4.9-8.6,8.1-24.7,1.3-33.2c-1.7-0.7-3.5-1.2-5.3-1.5C356.5,343.6,355.1,343.5,353.7,343.5"/>
		<path style="clip-path:url(#SVGID_00000173125751095519627400000006053322976365243298_);fill:#FF0068;" d="M391.5,240.8
			c-9.1-9.4-8.8-24.4,0.6-33.4c9.4-9.1,24.4-8.8,33.4,0.6c9.1,9.4,8.8,24.4-0.6,33.4c-6.4,6.1-15.6,8.2-24,5.4l-10.2,4.8
			L391.5,240.8"/>
		<g style="clip-path:url(#SVGID_00000173125751095519627400000006053322976365243298_);">
			<defs>
				<polyline id="SVGID_00000038379955666993195240000015677690903773706428_" points="384.8,200.2 432.2,200.2 432.2,229.2 
					384.8,229.2 384.8,200.2 				"/>
			</defs>
			<clipPath id="SVGID_00000141419935873467463140000015541441460529853580_">
				<use xlink:href="#SVGID_00000038379955666993195240000015677690903773706428_"  style="overflow:visible;"/>
			</clipPath>
			<path style="clip-path:url(#SVGID_00000141419935873467463140000015541441460529853580_);fill:#FF80B4;" d="M408.6,202.4
				c-0.9,0-1.7,0.1-2.6,0.2c-9.8,1.2-17.4,8.7-19,17.9c3-8,10.4-14.1,19.4-15.1h0c0.9-0.1,1.9-0.2,2.8-0.2c7.9,0,15.2,4,19.5,10.3
				C425.2,207.8,417.5,202.4,408.6,202.4L408.6,202.4"/>
		</g>
		<path style="clip-path:url(#SVGID_00000173125751095519627400000006053322976365243298_);fill:#371A45;" d="M390.8,253.4
			c-1,0-1.7-0.8-1.7-1.7l0-0.1l0.7-10c-9.4-10.4-8.6-26.4,1.8-35.9c10.4-9.4,26.4-8.6,35.9,1.8c9.4,10.4,8.6,26.4-1.8,35.9
			c-6.6,6-15.9,8.1-24.5,5.5l-9.5,4.5C391.3,253.3,391.1,253.4,390.8,253.4L390.8,253.4 M408.6,202.4c-0.9,0-1.7,0.1-2.6,0.2
			c-12,1.4-20.6,12.3-19.2,24.4c0.6,4.8,2.7,9.2,6,12.7c0.3,0.4,0.5,0.8,0.5,1.3l-0.5,7.8l7.5-3.5c0.4-0.2,0.9-0.2,1.3-0.1
			c3.1,1,6.4,1.4,9.6,1c12-1.4,20.6-12.3,19.2-24.4C429.1,210.8,419.7,202.4,408.6,202.4L408.6,202.4"/>
		<g style="clip-path:url(#SVGID_00000173125751095519627400000006053322976365243298_);">
			<defs>
				<polyline id="SVGID_00000137831733968153149370000016981771327949291936_" points="390.8,218 432.3,218 432.3,251.6 
					390.8,251.6 390.8,218 				"/>
			</defs>
			<clipPath id="SVGID_00000008848631391876647080000008187242800080531847_">
				<use xlink:href="#SVGID_00000137831733968153149370000016981771327949291936_"  style="overflow:visible;"/>
			</clipPath>
			<path style="clip-path:url(#SVGID_00000008848631391876647080000008187242800080531847_);fill:#C3085D;" d="M430.5,223.5
				c-0.5,2-1.3,3.8-2.2,5.6c-4.9,9.3-14.4,14.7-24.3,14.7c-3.6,0-7.3-0.7-10.8-2.2l-0.5,7.3l7.5-3.5c0.2-0.1,0.5-0.2,0.7-0.2
				c0.2,0,0.4,0,0.6,0.1c2.3,0.8,4.6,1.2,7,1.2c0.9,0,1.7-0.1,2.6-0.2C422.6,244.8,431,234.8,430.5,223.5"/>
			<path style="clip-path:url(#SVGID_00000008848631391876647080000008187242800080531847_);fill:#371A45;" d="M431.4,218L431.4,218
				c-0.1,1.9-0.4,3.7-0.9,5.5c0.5,11.4-7.9,21.3-19.4,22.7c-0.9,0.1-1.7,0.2-2.6,0.2c-2.4,0-4.7-0.4-7-1.2c-0.2-0.1-0.4-0.1-0.6-0.1
				c-0.3,0-0.5,0.1-0.7,0.2l-7.5,3.5l0.5-7.3c-0.6-0.3-1.3-0.6-1.9-0.9h0l0.2,0.2l-0.7,10.8l10.2-4.8c2.4,0.8,5,1.2,7.6,1.2
				c0.9,0,1.9-0.1,2.8-0.2c1.2-0.1,2.4-0.4,3.6-0.7c10.4-2.9,17.2-12.2,17.3-22.5V224C432.2,222,431.9,220,431.4,218"/>
		</g>
		<path style="clip-path:url(#SVGID_00000173125751095519627400000006053322976365243298_);fill:#FFFFFF;" d="M401.1,217.7
			L401.1,217.7c2.2-1.9,5.5-1.8,7.4,0.4l0.3,0.3l0.3-0.3c1.8-2.1,5.1-2.4,7.2-0.5c2.1,1.8,2.4,5.1,0.5,7.2c-0.1,0.1-0.2,0.3-0.4,0.4
			l-0.3,0.3l-6.4,6.4c-0.5,0.5-1.4,0.5-2,0l-6.4-6.4l-0.3-0.3C399,223.1,399,219.8,401.1,217.7L401.1,217.7"/>
	</g>
</g>
</svg>
