<?xml version="1.0" encoding="UTF-8"?><svg id="a" xmlns="http://www.w3.org/2000/svg" viewBox="0 0 2190.75 3424.43"><defs><style>.b{fill:#fff;}.c{fill:#111a28;}.d{opacity:.5;}.e{fill:#ff9ed5;}.f{opacity:.35;}.g{fill:#ec1f94;}.h{fill:#371a45;}</style></defs><rect class="b" x="1066.07" y="2003.41" width="767.49" height="829.59" rx="174.09" ry="174.09"/><path class="h" d="M1659.47,2003.41c95.75,0,174.09,78.34,174.09,174.09v481.41c0,95.75-78.34,174.09-174.09,174.09h-419.31c-95.75,0-174.09-78.34-174.09-174.09v-481.41c0-95.75,78.34-174.09,174.09-174.09h419.31m0-34.82h-419.31c-115.2,0-208.91,93.72-208.91,208.91v481.41c0,115.2,93.72,208.91,208.91,208.91h419.31c115.2,0,208.91-93.72,208.91-208.91v-481.41c0-115.2-93.72-208.91-208.91-208.91h0Z"/><path class="b" d="M1343.53,1913.81l-87.53,176.94-51.84,104.9-26.73,53.97s-14.97-12.54-38.65-36.82c-98.29-101.03-346.22-404.9-287.81-852.36,30.86-236.4,120.27-265.74,207.58-273.57,147.12-13.19,106.82,118.74,107.08,181.21,.13,30.17,12.58,123.62,35.48,233.27,30.47,145.82,79.39,320.28,142.42,412.47Z"/><path class="h" d="M1177.43,2267.04c-3.94,0-7.91-1.33-11.16-4.06-4.17-3.49-103.07-87.21-194.21-240.92-84.13-141.88-176.43-372.22-138.34-663.85,32.76-250.84,132.42-280.53,223.27-288.66,46.45-4.17,79.82,4.58,102.03,26.74,35.06,34.98,30.1,91.94,26.11,137.71-1.1,12.61-2.14,24.52-2.1,34.02,.3,76.5,68.66,480.52,174.87,635.99,5.42,7.94,3.38,18.77-4.56,24.2-7.93,5.42-18.77,3.39-24.2-4.56-109.91-160.88-180.63-576.86-180.94-655.5-.04-11.09,1.06-23.77,2.23-37.19,3.36-38.55,7.54-86.54-16.01-110.03-14.26-14.22-39.25-19.84-74.33-16.71-80.94,7.25-162.43,33.18-191.85,258.49-36.72,281.2,52.1,503.48,133.08,640.43,88.1,148.98,186.32,232.32,187.3,233.14,7.36,6.18,8.33,17.16,2.15,24.53-3.44,4.11-8.38,6.23-13.35,6.23Z"/><path class="b" d="M1766.79,2206.97c-26.81,28.08-44.22,42.66-44.22,42.66l-21.15-42.79-57.41-116.09-87.53-176.94c64.94-95.02,114.91-277.36,145.17-425.7,21.15-103.86,32.65-191.09,32.78-220.03,.22-62.46-40.09-194.4,107.04-181.21,87.32,7.84,176.72,37.17,207.58,273.57,57.33,439.15-180.42,740.02-282.24,846.53Z"/><path class="h" d="M1722.57,2267.04c-4.98,0-9.91-2.12-13.36-6.23-6.17-7.37-5.21-18.35,2.17-24.53,1.39-1.17,99.39-84.47,187.3-233.14,80.98-136.95,169.81-359.23,133.08-640.43-29.42-225.31-110.91-251.24-191.85-258.49-35.04-3.14-60.07,2.48-74.33,16.71-23.55,23.5-19.37,71.48-16.01,110.04,1.17,13.42,2.28,26.09,2.23,37.18-.31,78.64-71.04,494.62-180.94,655.5-5.42,7.94-16.26,9.98-24.2,4.56-7.94-5.42-9.98-16.26-4.56-24.2,106.22-155.47,174.57-559.5,174.87-635.99,.04-9.51-1-21.41-2.1-34.02-3.99-45.77-8.96-102.73,26.11-137.71,22.21-22.15,55.59-30.89,102.03-26.74,90.85,8.13,190.52,37.82,223.27,288.66,38.09,291.63-54.21,521.98-138.34,663.85-91.15,153.71-190.05,237.43-194.21,240.92-3.26,2.73-7.23,4.06-11.17,4.06Z"/><path class="b" d="M1833.13,2788.29c-11.58,183.51-77.91,335.43-77.91,335.43,0,0,30.82,89.71,14.58,179.55-9.53,52.84-35.34,96.68-93.24,102.73-148.08,15.5-188.17-134.81-197.66-235.7-9.45-100.42,33.73-245.45,28.51-363.24,0,0-24.07,2.79-53.97,2.79s-53.97-2.79-53.97-2.79c-5.22,117.79,37.91,262.82,28.51,363.24-9.49,100.9-49.58,251.2-197.66,235.7-57.89-6.05-83.7-49.88-93.24-102.68-16.24-89.84,14.58-179.6,14.58-179.6,0,0-66.34-151.91-77.96-335.43-11.14-176.24,29.21-409.34,65.07-575.48,4.7-21.85,9.36-42.57,13.8-61.81,5.09-22.16,9.92-42.35,14.28-60.24h573.18c5.09,20.98,10.84,45.18,16.93,71.86,3.22,14.1,6.53,28.95,9.84,44.35,36.22,166.49,77.65,402.98,66.34,581.32Z"/><g class="f"><path class="h" d="M1769.8,3303.27c-9.53,52.84-35.34,96.68-93.24,102.73-148.08,15.5-188.17-134.81-197.66-235.7-9.45-100.42,33.73-245.45,28.51-363.24,0,0-24.07,2.79-53.97,2.79s-53.97-2.79-53.97-2.79c-5.22,117.79,37.91,262.82,28.51,363.24-9.49,100.9-49.58,251.2-197.66,235.7-57.89-6.05-83.7-49.88-93.24-102.68,19.46,21.63,50.32,44.7,91.19,41.26,146.47-12.27,172.81-142.51,163.36-226.87-11.84-105.6-96.07-208.8-136.72-289.33-24.42-48.27-22.42-99.59-10.75-108.3,19.59-14.58,58.76,34.95,209.28,41.83,150.52-6.88,189.69-56.41,209.24-41.83,11.67,8.71,13.67,60.03-10.71,108.3-40.7,80.53-124.92,183.73-136.76,289.33-9.45,84.36,16.93,214.59,163.36,226.87,40.96,3.44,71.78-19.67,91.23-41.31Z"/></g><path class="h" d="M1766.09,2176.67c25.7,76.53,43.88,155.14,57.67,234.59,7.02,39.7,13.05,79.63,17.46,119.81,2.41,20.05,4.22,40.21,6.1,60.35,.91,10.08,1.47,20.2,2.18,30.3,.76,10.09,1.26,20.22,1.64,30.35,1.91,40.5,2.37,81.19,.25,122-2.08,40.8-6.71,81.44-13.55,121.59-6.87,40.16-15.98,79.87-27.02,119.02-5.4,19.61-11.6,39-18.01,58.32-6.61,19.38-13.43,38.21-21.63,57.68l.76-11.85c6.18,22.35,10.51,43.88,14,66.21,3.36,22.21,5.61,44.68,5.9,67.5,.36,22.78-1.21,45.96-6.54,69.15-1.12,5.8-3.16,11.56-4.78,17.32-2.25,5.69-3.99,11.48-6.9,17.03-5,11.28-12.24,22-20.83,31.57l-6.82,6.93c-2.44,2.14-5.06,4.1-7.61,6.14-1.29,.99-2.56,2.03-3.87,2.98l-4.18,2.52c-2.8,1.64-5.57,3.39-8.44,4.88l-8.87,3.83c-1.49,.6-2.96,1.31-4.46,1.82l-4.56,1.33-9.15,2.59c-3.06,.63-6.13,1.05-9.19,1.57-3.03,.42-6.21,1.13-9.13,1.28l-8.85,.64c-5.88,.55-11.91,.21-17.85,.32-11.97-.69-24.07-1.69-35.93-4.83-23.79-5.6-46.41-17.4-64.85-33.3-9.19-7.99-17.49-16.83-24.86-26.23-7.25-9.48-13.65-19.44-19.35-29.68-22.35-41.27-33.43-85.98-39.92-130.39-1.57-11.2-2.95-22.14-3.67-33.63-.3-5.74-.83-11.52-.91-17.22l-.08-17.06c.5-22.6,2.26-44.86,4.66-66.86,4.91-43.94,11.89-87.08,17.26-129.95,5.49-42.85,9.39-85.59,7.85-127.46l19.42,16.52c-9.71,1.06-18.72,1.7-28.08,2.2-9.28,.48-18.58,.73-27.93,.75-9.34-.01-18.64-.26-27.93-.75-9.36-.5-18.37-1.14-28.08-2.2l19.42-16.52c-1.54,41.88,2.36,84.62,7.85,127.46,5.38,42.87,12.36,86.01,17.26,129.95,2.4,22,4.16,44.27,4.66,66.86l-.08,17.06c-.08,5.7-.61,11.48-.91,17.22-.72,11.48-2.1,22.42-3.67,33.63-6.49,44.41-17.57,89.12-39.92,130.39-5.69,10.24-12.09,20.2-19.35,29.68-7.37,9.41-15.67,18.24-24.86,26.23-18.44,15.9-41.06,27.71-64.85,33.3-11.86,3.14-23.95,4.15-35.93,4.83-5.95-.11-11.98,.23-17.85-.32l-8.85-.64c-2.92-.15-6.1-.86-9.13-1.28-3.07-.52-6.13-.94-9.19-1.57l-9.15-2.59-4.56-1.33c-1.51-.51-2.98-1.21-4.46-1.82l-8.87-3.83c-2.87-1.48-5.63-3.24-8.44-4.88l-4.18-2.52c-1.32-.95-2.58-1.98-3.87-2.98-2.55-2.03-5.17-4-7.61-6.14l-6.82-6.93c-8.6-9.58-15.83-20.3-20.83-31.57-2.91-5.55-4.65-11.34-6.9-17.03-1.62-5.77-3.66-11.52-4.78-17.32-5.33-23.19-6.9-46.37-6.54-69.15,.28-22.81,2.53-45.29,5.9-67.5,3.49-22.32,7.82-43.86,14-66.21l.76,11.85c-8.22-19.5-15.04-38.36-21.66-57.77-6.42-19.35-12.63-38.77-18.03-58.41-11.05-39.21-20.17-78.98-27.04-119.21-6.86-40.21-11.46-80.93-13.31-121.8-1.17-20.45-1.05-40.82-1.14-61.2,.46-20.34,.84-40.68,2.09-60.93,.46-10.14,1.04-20.27,1.88-30.37,.79-10.1,1.43-20.23,2.34-30.31,1.96-20.15,3.73-40.33,6.02-60.42,4.52-40.2,9.29-80.35,15.6-120.25,6.2-39.92,13.98-79.55,23.39-118.8,9.5-39.22,20.49-78.11,35.28-116,1.18-3.02,4.58-4.51,7.6-3.34,2.45,.96,3.89,3.39,3.72,5.88-2.78,40.47-8.3,80.19-14.19,119.79-6.06,39.56-12.47,78.99-18.89,118.39-13.49,78.66-24.01,157.91-27.99,237.27-4.75,79.43-1.68,158.29,11.9,236.22,6.64,38.94,15.5,77.56,26.23,115.64,5.25,19.08,11.28,37.93,17.5,56.68,6.32,18.6,13.22,37.51,20.59,55.01l2.44,5.78-1.68,6.07c-5.45,19.68-9.8,40.96-13.01,61.71-3.17,20.89-5.25,41.91-5.5,62.71-.36,20.79,1.17,41.42,5.63,60.77,.92,4.93,2.63,9.46,3.9,14.19,1.81,4.42,3.15,9.15,5.38,13.25,3.8,8.69,9.07,16.18,14.95,22.81l4.63,4.75c1.66,1.43,3.45,2.7,5.14,4.09l2.57,2.04,2.85,1.66c1.91,1.09,3.73,2.31,5.69,3.34l6.16,2.61c1.03,.42,2.02,.94,3.09,1.3l3.3,.91,6.58,1.9c2.27,.45,4.62,.74,6.93,1.14,2.36,.31,4.52,.9,7.05,1.02l7.46,.53c4.99,.5,9.89,.14,14.83,.29,9.75-.61,19.52-1.35,28.78-3.86,18.67-4.42,35.78-13.37,50.39-25.88,7.25-6.33,13.96-13.42,20.05-21.17,5.99-7.85,11.41-16.26,16.32-25.07,19.36-35.6,29.96-76.91,35.98-118.56,1.46-10.38,2.8-21.1,3.42-31.37,.25-5.15,.75-10.23,.82-15.43l.07-15.65c-.47-21-2.12-42.24-4.46-63.59-4.77-42.74-11.71-85.74-17.2-129.4-5.56-43.6-9.75-88.02-8.09-133.37l.68-18.56,18.74,2.04c8.21,.89,17.19,1.56,25.83,2.01,8.72,.45,17.44,.68,26.12,.7,8.68-.01,17.41-.25,26.12-.7,8.64-.45,17.61-1.11,25.83-2.01l18.74-2.04,.68,18.56c1.66,45.36-2.53,89.77-8.09,133.37-5.49,43.66-12.43,86.65-17.2,129.4-2.34,21.34-3.99,42.59-4.46,63.59l.07,15.65c.07,5.2,.57,10.28,.82,15.43,.62,10.27,1.96,20.99,3.42,31.37,6.01,41.65,16.61,82.95,35.98,118.56,4.91,8.81,10.33,17.22,16.32,25.07,6.09,7.75,12.79,14.85,20.05,21.17,14.6,12.52,31.71,21.46,50.39,25.88,9.25,2.51,19.03,3.25,28.78,3.86,4.95-.15,9.85,.21,14.83-.29l7.46-.53c2.53-.12,4.69-.71,7.05-1.02,2.3-.4,4.65-.68,6.93-1.14l6.58-1.9,3.3-.91c1.07-.36,2.05-.88,3.09-1.3l6.16-2.61c1.95-1.03,3.78-2.25,5.69-3.34l2.85-1.66,2.57-2.04c1.69-1.39,3.48-2.66,5.14-4.09l4.63-4.75c5.88-6.64,11.15-14.12,14.95-22.81,2.23-4.1,3.57-8.84,5.38-13.25,1.27-4.74,2.98-9.27,3.89-14.19,4.46-19.34,5.99-39.98,5.63-60.77-.25-20.8-2.33-41.82-5.5-62.71-3.21-20.75-7.56-42.03-13.01-61.71l-1.68-6.07,2.44-5.78c7.37-17.48,14.25-36.36,20.56-54.93,6.21-18.73,12.24-37.54,17.48-56.59,10.72-38.02,19.57-76.58,26.22-115.46,13.64-77.8,16.5-156.57,11.18-235.79-2.45-39.55-5.93-79.13-10.63-118.63-1.13-9.88-2.25-19.76-3.62-29.62l-3.67-29.63c-2.8-19.72-5.29-39.48-8.24-59.2l-17.75-118.44c-5.68-39.59-11.62-79.19-16.03-119.24v-.04c-.36-3.2,1.95-6.09,5.16-6.44,2.78-.31,5.32,1.4,6.17,3.94Z"/><path class="h" d="M1398.21,2814.47c-12.88-.08-25.07-1.92-37.39-4.31-12.27-2.4-24.34-5.86-36.27-9.86-11.91-4.04-23.68-8.58-35.01-14.31-11.26-5.77-22.31-12.32-31.67-20.9-.74-.68-.79-1.82-.11-2.56,.51-.56,1.3-.73,1.97-.48l.05,.02c11.5,4.28,23.09,7.31,34.79,9.9,11.65,2.68,23.53,4.55,35.34,6.44,11.82,1.89,23.75,3.21,35.58,5.04,11.78,1.77,23.79,3.59,35.23,6.15l.32,.07c6.77,1.52,11.02,8.23,9.5,15-1.32,5.87-6.55,9.84-12.33,9.81Z"/><path class="h" d="M1505.96,2789.59c11.44-2.57,23.45-4.38,35.23-6.15,11.82-1.83,23.76-3.15,35.58-5.04,11.81-1.89,23.69-3.76,35.34-6.44,11.7-2.59,23.29-5.62,34.79-9.9l.04-.02c.94-.35,1.98,.13,2.33,1.07,.27,.71,.05,1.49-.47,1.97-9.36,8.57-20.42,15.12-31.67,20.9-11.33,5.73-23.1,10.26-35.01,14.31-11.92,4-24,7.46-36.27,9.86-12.32,2.39-24.51,4.23-37.39,4.31-6.93,.04-12.59-5.54-12.63-12.48-.04-6.01,4.16-11.07,9.8-12.33l.33-.07Z"/><g><g class="f"><path class="h" d="M1831.55,2612.37c-46.55,5.29-109.5,8.46-157.31-4.07v24.05c0,33.26-27.19,60.48-60.42,60.48h-330.08c-33.26,0-60.45-27.22-60.45-60.48v-19.19c-45.74,6.95-99.41,3.34-139.25-1.48-2.3-.29-4.54-.7-6.72-1.22,.7-5.44,1.42-10.93,2.18-16.49,4.16-31,9.01-63.36,14.68-96.77,36.61,1.69,86.45,2.73,129.1-.96v-43.12c0-33.24,27.19-60.45,60.45-60.45h330.08c26.55,0,49.26,17.39,57.31,41.32,2.01,6.02,3.11,12.44,3.11,19.13v40.42c42.34,6.14,97.73,5.84,140.3,4.19,5.64,33.24,10.47,65.42,14.6,96.22,.84,6.19,1.63,12.36,2.41,18.43Z"/></g><path class="b" d="M1283.8,2563.92c-46.26,18.73-117.84,14.81-166.65,8.9-29.27-3.54-49.82-30.55-45.51-59.72h0c3.93-26.62,27.36-45.97,54.24-44.71,45.65,2.14,114.12,3.14,157.48-6.48"/><g class="f"><path class="h" d="M1283.82,2563.91c-46.25,18.73-117.87,14.83-166.67,8.91-29.26-3.52-49.81-30.54-45.51-59.73,.91-6.2,2.88-12.02,5.76-17.27,7.79,14.42,22.21,24.96,39.75,27.09,48.73,5.89,120.21,9.82,166.46-8.84l.2,49.84Z"/></g><path class="h" d="M1191.79,2592.69c-26.88,0-53.57-2.21-76.43-4.98-18.18-2.2-34.32-11.43-45.44-26-11.14-14.59-15.79-32.64-13.11-50.8,5.09-34.41,35.02-59.16,69.78-57.5,67,3.13,121.53,.96,153.53-6.14,7.2-1.6,25.05-1.8,35.21,30.86,9.94,31.96,8.57,85.74-25.9,99.69-27.49,11.13-62.72,14.87-97.64,14.87Zm-68.39-109.36c-18.47,0-34.17,13.46-36.91,31.97-1.49,10.09,1.09,20.11,7.28,28.22,6.16,8.08,15.11,13.2,25.19,14.42,69.34,8.39,125.88,5.58,159.21-7.91h0c7.73-3.13,10.61-15.92,11.49-21.27,3.4-20.66-2.19-43.97-7.01-51.35-44.26,8.94-109.69,8.22-157.47,5.98-.6-.03-1.19-.04-1.79-.04Z"/><path class="b" d="M1637.61,2563.92c46.26,18.73,117.84,14.81,166.65,8.9,29.27-3.54,49.82-30.55,45.51-59.72h0c-3.93-26.62-27.36-45.97-54.24-44.71-45.65,2.14-114.12,3.14-157.48-6.48"/><g class="f"><path class="h" d="M1804.27,2572.81c-48.83,5.93-120.41,9.82-166.67-8.91l.2-49.74c46.25,18.66,117.7,14.73,166.46,8.84,17.54-2.13,32-12.73,39.79-27.16,2.81,5.21,4.81,11.04,5.72,17.24,4.3,29.19-16.25,56.21-45.51,59.73Z"/></g><path class="h" d="M1729.62,2592.69c-34.93,0-70.15-3.74-97.64-14.87-34.48-13.96-35.84-67.74-25.9-99.69,10.15-32.66,28.01-32.47,35.21-30.86,32,7.1,86.54,9.28,153.53,6.14,34.69-1.65,64.69,23.09,69.78,57.5,2.69,18.17-1.97,36.21-13.11,50.8-11.12,14.57-27.25,23.8-45.44,26-22.86,2.76-49.56,4.98-76.43,4.98Zm-90.86-115.3c-4.82,7.39-10.42,30.69-7.02,51.35,.88,5.35,3.76,18.14,11.49,21.27h0c33.33,13.49,89.87,16.3,159.21,7.91,10.08-1.22,19.03-6.34,25.19-14.42,6.18-8.1,8.77-18.12,7.28-28.22-2.82-19.1-19.51-32.77-38.7-31.92-47.78,2.23-113.21,2.95-157.47-5.98Z"/><path class="b" d="M1655.48,2428.19v163.48c0,30.34-24.82,55.16-55.13,55.16h-301.06c-30.34,0-55.13-24.82-55.13-55.16v-163.48c0-30.31,24.79-55.13,55.13-55.13h301.06c24.21,0,44.93,15.85,52.28,37.69,1.83,5.49,2.84,11.34,2.84,17.44Z"/><g class="f"><path class="h" d="M1655.48,2428.19v163.48c0,30.34-24.82,55.16-55.13,55.16h-301.06c-30.34,0-55.13-24.82-55.13-55.16v-55.02c51.94,28.75,173.56,76.1,229.45,47.94,35.31-17.79,35.31-74.65,35.31-74.65,0,0,73.96-54.34,92.38-9.7,36.3,87.94,46.46-72.28,51.33-89.49,1.83,5.49,2.84,11.34,2.84,17.44Z"/></g><path class="h" d="M1600.35,2661.82h-301.07c-38.67,0-70.13-31.46-70.13-70.13v-163.49c0-38.67,31.46-70.13,70.13-70.13h301.07c38.67,0,70.13,31.46,70.13,70.13v163.49c0,38.67-31.46,70.13-70.13,70.13Zm-301.07-273.75c-22.13,0-40.13,18-40.13,40.13v163.49c0,22.13,18,40.13,40.13,40.13h301.07c22.13,0,40.13-18,40.13-40.13v-163.49c0-22.13-18-40.13-40.13-40.13h-301.07Z"/><circle class="e" cx="1556.47" cy="2509.94" r="47.54" transform="translate(-842.03 786.69) rotate(-22.5)"/><g class="d"><path class="b" d="M1604.02,2509.94c0,4.01-.49,7.91-1.42,11.63-5.2-20.62-23.87-35.91-46.12-35.91s-40.91,15.29-46.12,35.91c-.93-3.72-1.42-7.62-1.42-11.63,0-26.26,21.28-47.54,47.54-47.54s47.54,21.28,47.54,47.54Z"/></g><g class="f"><path class="h" d="M1604.01,2509.93c0,26.28-21.3,47.54-47.54,47.54s-47.54-21.26-47.54-47.54c0-4.4,.61-8.7,1.73-12.73,5.59,20.05,24.01,34.78,45.81,34.78s40.23-14.73,45.81-34.78c1.12,4.03,1.73,8.33,1.73,12.73Z"/></g><path class="h" d="M1556.47,2569.99c-33.11,0-60.04-26.93-60.04-60.04s26.93-60.04,60.04-60.04,60.04,26.94,60.04,60.04-26.94,60.04-60.04,60.04Zm0-95.09c-19.32,0-35.04,15.72-35.04,35.04s15.72,35.04,35.04,35.04,35.04-15.72,35.04-35.04-15.72-35.04-35.04-35.04Z"/><path class="h" d="M1421.74,2659.32c-6.9,0-12.5-5.6-12.5-12.5v-78.89c0-19.69-9.39-38.52-25.12-50.36-21.97-16.54-35.09-42.83-35.09-70.33v-74.17c0-6.9,5.6-12.5,12.5-12.5s12.5,5.6,12.5,12.5v74.17c0,19.69,9.39,38.52,25.12,50.36,21.97,16.54,35.09,42.83,35.09,70.33v78.89c0,6.9-5.6,12.5-12.5,12.5Z"/></g><g><path class="e" d="M2171.34,969.73c-21.91,87.33-54.53,171.22-96.68,249.87-77.68,145.22-187.83,272.49-323.11,370.44-116.76,84.6-252.29,147.33-401.94,180.78C760.55,1902.82,176.05,1532.16,44.12,943.13-29.12,615.99,52.65,290.11,240.86,42.51c35.13-46.31,109-24.36,112.57,33.67,1.27,19.58,3.01,39.26,5.28,58.94,4.44,37.71,10.83,75.6,19.27,113.37,17.94,80.01,44.16,155.95,77.62,227.12,6.02,12.69,12.2,25.2,18.62,37.62,15.74,30.35,32.74,59.74,51.05,88.14,13.22,20.58,27.09,40.59,41.59,60.09,7.01,9.47,14.21,18.81,21.54,27.99,18.31,23.06,37.55,45.31,57.63,66.7,10.92,11.73,22.13,23.18,33.58,34.36,8.04,7.85,16.17,15.58,24.49,23.18,30.45,28.03,62.44,54.28,95.78,78.61,3.07,2.27,6.18,4.47,9.25,6.67,18.65,13.31,37.71,26.07,57.14,38.14,4.53,2.82,9.03,5.59,13.59,8.35,19.4,11.76,39.2,22.84,59.25,33.33,10.86,5.71,21.82,11.2,32.9,16.48,2.33,1.15,4.66,2.27,7.01,3.35,1.64,.78,3.26,1.55,4.93,2.33,3.57,1.68,7.17,3.29,10.74,4.9,19.06,8.63,38.36,16.73,57.88,24.24,5.87,2.3,11.76,4.47,17.69,6.61,6.36,2.33,12.76,4.62,19.18,6.83,16.85,5.8,33.98,11.23,51.15,16.2,26.75,7.85,53.85,14.56,81.22,20.3,28.09,5.83,56.45,10.61,85.07,14.21,37.99,4.84,76.44,7.67,115.14,8.44,36.34,.71,73.03-.37,109.87-3.41,7.51-.59,15.05-1.27,22.59-2.05,16.2-1.64,32.46-3.63,48.69-6.05,26.72-3.94,53.51-8.85,80.32-14.87,1.77-.4,3.54-.78,5.28-1.24,76.53-17.5,149.38-42.67,217.81-74.55,59.4-27.59,115.51-60.21,167.93-97.17,47.27-33.36,110.92,10.21,96.83,66.39Z"/><g class="f"><path class="h" d="M170.26,147.51C45.86,372.98,.07,643.02,60.75,914.06c131.91,589,716.44,959.63,1305.44,827.72,149.67-33.49,285.21-96.25,401.97-180.84,84.39-61.07,158.95-133.63,221.99-214.8-32.22,29.93-66.35,58-102.25,84-116.79,84.61-252.3,147.35-402,180.85-351.35,78.7-701.15-21.47-954.16-240.14,13.79-4.7,26.48-11.85,37.63-21.47-2.01,1.72-4.07,3.38-6.18,4.95-4.98-4.15-9.93-8.33-14.84-12.57,16.63-5.66,31.7-14.85,44.35-27.69,3.22-3.27,6.18-6.74,8.96-10.33,0,.02-.01,.03-.02,.05,26.15-64.87,3.15-157.67-62.26-228.7-80.25-87.18-194.02-108.53-254.02-47.66-4.39,4.45-8.37,9.2-11.92,14.25-40.85-80.13-72.42-166.62-92.97-258.41-60.61-270.72-15.11-540.45,108.95-765.73-17.84,.3-35.81,8.09-48.64,24.98-50.8,66.86-93.76,139.45-128.09,216.19,17.08-38.16,36.3-75.29,57.56-111.19Z"/></g><g class="f"><ellipse class="h" cx="1657.98" cy="1314.62" rx="123.13" ry="105.02" transform="translate(-14.47 18.46) rotate(-.64)"/></g><g class="f"><ellipse class="h" cx="1008.38" cy="1158.32" rx="91.06" ry="146.21" transform="translate(-296.56 1968.04) rotate(-80.78)"/></g><ellipse class="e" cx="1005.45" cy="1187.37" rx="57.37" ry="127.59" transform="translate(-327.7 1989.55) rotate(-80.78)"/><ellipse class="e" cx="1683.39" cy="1351.31" rx="92.51" ry="74.65" transform="translate(-325.42 561.06) rotate(-17.28)"/><path class="e" d="M1178.57,1544.87c.01,10.22-1.29,20.5-4.01,30.65-19.19,71.93-101.25,111.06-183.32,87.4-61.63-17.8-105.75-65.94-115.73-119.23l303.06,1.18Z"/><path class="h" d="M1182.41,1544.87c3.36,37.34-14.19,76.38-43.96,100.82-14.71,12.46-32.17,21.41-50.43,27.18-18.37,5.52-37.62,7.9-56.68,6.95-38.14-1.74-75.31-16.09-104.5-40.2-14.73-11.86-26.98-26.63-36.57-42.73-9.52-16.17-15.65-34.28-17.8-52.62-.2-1.7,1.02-3.24,2.72-3.44,1.54-.18,2.95,.8,3.35,2.25l.02,.06c9.48,34.01,31.19,62.93,58.8,83,27.66,19.98,61.12,31.9,94.92,33.05,16.85,.64,33.81-1.07,49.92-5.82,16.18-4.47,31.44-11.99,44.84-21.98,26.74-19.96,44.99-51.55,47.69-86.5,.16-2.12,2.02-3.71,4.14-3.55,1.9,.15,3.38,1.66,3.54,3.5v.04Z"/><path class="e" d="M397.57,930.95c-38.4-5.22-75.5,.67-107.22,19.36-57.47,33.86-80.94,99.85-74.99,176.92,3.9,50.56,21.84,104.98,54.33,156.09,82,129.02,225.63,188.16,320.81,132.08,35.42-20.87,59.13-54.75,70.73-95.71,19.57-69.13,1.42-156.29-50.07-237.3l-213.6-151.43Z"/><path class="h" d="M290.35,950.31c-14.94,10.47-27.69,23.53-37.64,38.2-9.92,14.71-17.23,30.95-21.76,47.92-4.63,16.95-6.9,34.48-7.26,52.05-.29,17.55,.69,35.25,3.55,52.55,2.73,17.34,7.24,34.37,12.58,51.08,5.59,16.65,12.34,32.92,20.37,48.55,15.86,31.34,35.85,60.72,59.68,86.44,23.49,25.99,50.78,48.64,81.06,65.91,30.07,17.55,63.47,29.45,97.78,32.78,17.16,1.79,34.43,.46,51.25-2.98,16.73-3.75,33-10.27,47.55-19.8,14.69-9.33,27.58-21.63,38.29-35.84,10.63-14.27,19.08-30.39,25.44-47.48-1.86,8.92-4.32,17.77-7.47,26.43-3.23,8.63-7.17,17.04-11.81,25.12-9.34,16.13-21.95,30.58-36.84,42.4-14.97,11.74-32.41,20.38-50.75,26.06-18.43,5.37-37.8,7.61-56.93,6.83-38.48-1.12-75.46-13.81-108.8-31.51-33.33-18.1-62.86-42.37-88.42-69.98-25.19-28-46.43-59.4-62.61-93.35-15.82-34.04-27.24-70.45-30.89-107.99-3.81-37.31-1.08-75.76,11.87-111.29,6.72-17.59,16.06-34.26,28.31-48.38,1.55-1.75,3.02-3.55,4.63-5.23l5-4.87c3.21-3.35,6.95-6.14,10.5-9.08,3.55-2.94,7.61-5.24,11.35-7.85,3.91-2.4,8.01-4.47,11.97-6.69Z"/><path class="h" d="M1655.67,1428.24c-26.55,1.22-53.85-5.07-77.58-18.7-11.75-6.97-22.64-15.68-31.82-26.15-9.03-10.57-16.46-22.77-21.06-36.22-9.56-26.87-6.3-57.71,6.88-82.87,6.58-12.65,15.82-23.65,26.24-33.02,10.49-9.29,22.24-17.17,34.97-22.82,12.74-5.62,26.14-9.5,39.78-11.76,13.7-1.99,27.56-2.24,41.28-.9,13.7,1.71,27.18,4.98,40.06,9.98,12.87,5.06,24.84,12.29,35.63,20.91,21.75,17.03,37.43,42.44,41.43,69.9,1.96,13.68,1.29,27.7-2.52,40.83-1.88,6.55-4.36,12.91-7.49,18.88-3.03,6.05-7.22,11.35-10.96,16.83-.96,1.41-2.89,1.77-4.3,.81-1.38-.94-1.75-2.8-.87-4.2l.12-.2c13.47-21.29,18.83-47.03,13.28-70.69-5.04-23.63-19.69-44.52-39.19-58.66-38.84-28.94-94.22-33.08-137.66-12.94-21.58,10.13-40.76,26.05-51.87,46.71-11.23,20.38-14.27,45.08-7.4,67.55,6.77,22.53,22.86,42.19,43.13,55.76,20.33,13.72,44.84,21.39,70.02,23.28,2.12,.15,3.72,1.98,3.58,4.1-.14,1.96-1.75,3.48-3.66,3.58Z"/><path class="h" d="M1819.23,1249.63c15.14,21.23,24.09,47.38,24.98,74.13,1.03,26.82-6.7,53.77-20.29,76.95-13.44,23.44-33.39,42.53-55.83,56.97-22.62,14.27-47.97,24.03-74.19,28.64-26.23,4.52-53.17,4.48-79.27-.58-26.08-5.01-51.25-15.1-73.27-29.97-22-14.78-41.11-34.3-53.89-57.56-12.62-23.28-18.94-49.95-17.06-75.91,.12-1.71,1.61-2.99,3.32-2.87,1.58,.11,2.8,1.4,2.87,2.95v.05c1.17,24.84,8.94,48.74,22,69.17,13.04,20.51,31.5,37.1,51.98,49.78,41.3,25.35,92.29,33.28,139.67,24.61,23.68-4.37,46.65-12.81,66.97-25.53,10.34-6.1,19.65-13.69,28.46-21.75,4.15-4.27,8.3-8.59,12.13-13.14l5.43-7.09c.9-1.19,1.86-2.33,2.71-3.55l2.34-3.79,4.71-7.59c1.46-2.59,2.6-5.34,3.93-8,2.86-5.26,4.55-10.97,6.57-16.57,1.16-2.77,1.72-5.69,2.39-8.6l2.04-8.73c.58-5.93,1.55-11.87,1.79-17.87,.97-24.04-5.28-48.33-17.04-70.09-1.01-1.87-.31-4.21,1.56-5.22,1.73-.93,3.86-.4,4.97,1.16Z"/><g class="f"><path class="h" d="M929.42,1543.32c5.56,31.48,32.96,59.38,71.97,69.01,51.96,12.8,104.87-11.67,118.19-54.65,1.89-6.07,2.88-12.18,3.02-18.25,3.21-67.52-54.71-97.75-102.8-98.79-54.34-1.17-99.77,32.98-90.4,102.68Z"/></g><path class="e" d="M934.74,1547.11c5.56,31.48,32.96,59.38,71.97,69.01,51.96,12.8,104.87-11.67,118.19-54.65,1.89-6.07,2.88-12.18,3.02-18.25-13.75-21.28-37.38-38.23-67.15-45.58-52.77-12.99-106.46,8.88-126.04,49.48Z"/><path class="h" d="M1049,1440.19c20.5,4.38,40.02,14.86,55.32,30.19,7.58,7.72,14.1,16.64,19.03,26.52,4.88,9.9,8.07,20.79,9.13,32.02,1.19,11.15,.04,22.86-3.67,33.61-3.45,10.85-9.09,21.09-16.5,29.8-15.15,17.21-36.3,28.06-58.21,31.84-44.02,7.47-90.62-11.69-115.86-47.95-12.54-17.94-19.37-40.45-16.88-62.37,2.35-21.84,14.09-42.16,31.09-54.63l.02-.02c1.38-1.01,3.32-.72,4.34,.67,.92,1.25,.76,2.97-.31,4.03-13.84,13.8-21.91,32.26-22.23,50.88-.57,18.62,6.55,36.74,17.77,51.34,22.81,29.21,62.61,44.23,98.49,37.69,17.83-3.27,34.71-11.69,46.47-24.91,11.68-13.12,18.2-30.76,17.23-48.69-.76-17.91-8.44-35.74-20.57-50.09-12.04-14.55-28.48-25.56-46.78-32.56l-.05-.02c-1.99-.76-2.98-2.99-2.22-4.97,.69-1.8,2.58-2.78,4.4-2.39Z"/><g class="f"><ellipse class="h" cx="441.21" cy="1181.86" rx="152.82" ry="210.27" transform="translate(-652.95 553.95) rotate(-39.68)"/></g><ellipse class="e" cx="422.82" cy="1224.16" rx="114.88" ry="182.19" transform="translate(-735.17 644.16) rotate(-44.34)"/><path class="h" d="M474.1,1369.46c18.95,1.6,38.02-.29,55.35-6.51,17.33-6.18,32.75-16.83,44.44-30.52,11.8-13.64,19.99-30.28,24.49-47.97,4.58-17.67,6.14-36.26,4.78-54.75-2.56-37.03-14.77-73.44-33.59-105.83-18.55-32.6-43.63-61.56-73.48-83.82-29.64-22.28-64.99-37.64-100.94-39.54-17.9-.96-35.77,2.08-51.75,9.36-15.98,7.3-30.06,18.6-40.51,33.07-10.56,14.4-17.47,31.64-21.33,49.69-3.92,18.08-4.57,37.03-2.89,55.84,3.14,37.83,16.53,74.76,35.53,108.46,1.09,1.91,.43,4.33-1.48,5.42-1.78,1.02-4.05,.47-5.22-1.16-22.91-32.56-38.93-70.5-45.27-110.75-3.06-20.13-3.24-40.89,.09-61.42,3.22-20.51,10.59-40.82,22.6-58.62,11.93-17.79,28.76-32.76,48.37-42.08,19.56-9.47,41.46-13.58,62.75-12.92,21.35,.56,42.2,5.43,61.58,13.14,19.45,7.65,37.56,18.06,54.23,30.24,33.31,24.52,60.28,56.62,80.43,92.25,19.79,35.81,32.93,75.97,34.31,117.52,.76,20.7-1.57,41.71-7.67,61.82-6.16,20.06-16.65,39.15-31.35,54.53-14.77,15.27-33.52,26.55-53.66,32.14-20.17,5.66-41.25,5.82-61.15,2.17-2.68-.49-4.45-3.06-3.96-5.74,.46-2.51,2.75-4.23,5.24-4.03h.05Z"/><path class="h" d="M893.25,1094.13c-12.64,11.56-21.59,26.6-21.92,42.43l-.15,5.86,.79,5.83c.12,1.94,.7,3.84,1.29,5.73,.62,1.88,.95,3.8,1.76,5.62,1.68,3.62,2.94,7.36,5.22,10.75,1.07,1.71,1.91,3.52,3.14,5.15l3.66,4.89c9.98,12.91,23.36,23.53,37.84,32.08,14.43,8.76,30.28,15.31,46.59,20.29,4.12,1.12,8.19,2.42,12.35,3.41l12.55,2.71,12.7,1.92c4.24,.53,8.5,.86,12.76,1.31,17.05,1.31,34.24,.55,50.98-2.37,16.67-3.06,33.09-8.39,47.01-17.64,7.24-4.29,13.14-10.18,18.51-16.49,5.15-6.53,8.66-14.15,10.99-22.35l.07-.26c.47-1.64,2.18-2.6,3.82-2.13,1.48,.42,2.4,1.84,2.23,3.32-1.05,9.36-3.81,18.78-8.86,27.04-5.13,8.08-11.54,15.55-19.13,21.32-14.97,12.01-32.82,19.52-51.04,23.9-18.25,4.55-37.08,5.93-55.72,5.23-18.68-.65-37.15-3.93-55.1-9.12-17.94-5.25-35.25-12.86-51.36-22.73-8.03-4.98-15.58-10.79-22.76-17.07-3.54-3.21-6.87-6.69-10.23-10.1l-4.62-5.6c-1.54-1.86-3.07-3.73-4.35-5.83l-4.02-6.11c-1.34-2.03-2.32-4.35-3.48-6.51-2.43-4.27-3.95-9.08-5.6-13.75-.79-2.35-1.1-4.9-1.65-7.33-.53-2.45-1.01-4.9-1.02-7.45l-.34-7.54,.79-7.52c1.26-9.97,5.35-19.44,10.94-27.4,5.63-8,12.84-14.48,20.67-19.57,1.78-1.16,4.17-.66,5.33,1.13,1.04,1.6,.73,3.71-.64,4.96Z"/><path class="h" d="M976.22,1292.72c21.68,6.74,43.82,9.2,65.76,7.99,21.91-1.27,43.61-6.12,63.96-14.2,20.36-8,39.51-19.32,55.39-34.05,15.81-14.71,27.87-33.61,30.39-55.88v-.06c.2-1.71,1.74-2.94,3.45-2.75,1.44,.16,2.54,1.29,2.74,2.66,1.72,12.1-.27,24.79-4.68,36.42-4.47,11.66-11.38,22.24-19.57,31.46-16.38,18.59-37.54,32.09-60.03,41.37-11.29,4.64-23.07,7.97-35,10.4-12,2.1-24.19,3.32-36.38,2.92-24.3-.55-48.79-6.69-69.25-19.31-1.82-1.12-2.38-3.51-1.26-5.32,.95-1.54,2.79-2.18,4.44-1.66l.05,.02Z"/><g class="d"><path class="b" d="M2166.54,926.34c-13.35-35.51-58.9-54.83-94.98-29.37-114.27,80.6-246,140.47-390.98,172.94-244.64,54.78-488.52,22.89-699.49-75.35,5.61,4.36,11.24,8.59,16.89,12.73-1.1-.49-2.21-.94-3.3-1.44-3.57-1.61-7.17-3.23-10.74-4.9-1.68-.78-3.29-1.55-4.94-2.33-2.36-1.09-4.69-2.2-7.02-3.35-8.38-3.99-16.68-8.15-24.93-12.39-2.65-1.36-5.32-2.7-7.96-4.09-18.78-9.82-37.32-20.19-55.53-31.12-1.24-.74-2.49-1.46-3.72-2.21-4.56-2.76-9.06-5.53-13.59-8.35-19.43-12.07-38.48-24.83-57.14-38.14-3.07-2.2-6.18-4.41-9.25-6.67-16.67-12.17-33-24.81-48.97-37.92-7.99-6.55-15.88-13.22-23.68-20.01s-15.51-13.68-23.12-20.69c-3.2-2.92-6.34-5.88-9.49-8.84-2.96-2.78-5.89-5.58-8.81-8.39-2.06-1.99-4.14-3.96-6.19-5.96-11.45-11.17-22.66-22.62-33.58-34.36-3.77-4.01-7.47-8.08-11.18-12.15-16.06-17.64-31.58-35.81-46.46-54.55-2.7-3.39-5.37-6.83-8.04-10.26-4.56-5.86-9.07-11.76-13.5-17.73-.97-1.3-1.91-2.62-2.87-3.92-7.12-9.66-14.09-19.45-20.9-29.38-6.06-8.83-12.02-17.74-17.82-26.78-18.31-28.4-35.32-57.79-51.05-88.14-4.13-7.99-8.14-16.04-12.09-24.13-2.19-4.48-4.39-8.96-6.53-13.48-33.46-71.17-59.68-147.11-77.62-227.12-3.16-14.16-5.95-28.35-8.54-42.53-4.32-23.64-7.96-47.28-10.73-70.85-.44-3.82-.77-7.63-1.17-11.45-1.66-15.85-3.08-31.7-4.11-47.48-.51-8.26-2.48-15.75-5.52-22.45-10.31-22.75-33.35-36.04-56.94-36.22-3.51-.03-7.04,.28-10.53,.84-2.19,.36-4.37,.83-6.52,1.42-2.52,.7-5.01,1.57-7.46,2.61-1.52,.64-3.01,1.35-4.49,2.12-1.64,.86-3.25,1.8-4.83,2.82-5.96,3.86-11.49,8.86-16.29,15.18-.68,.9-1.33,1.82-2.01,2.73,35.91-11.15,78.65,12.07,81.34,55.88,1.27,19.58,3.01,39.26,5.28,58.94,4.44,37.71,10.83,75.6,19.27,113.37,17.94,80.01,44.16,155.95,77.62,227.12,6.02,12.69,12.2,25.2,18.62,37.62,15.73,30.35,32.74,59.74,51.05,88.14,13.22,20.58,27.09,40.59,41.59,60.08,7.01,9.47,14.21,18.81,21.54,27.99,18.31,23.06,37.55,45.31,57.63,66.7,10.92,11.73,22.13,23.18,33.58,34.36,8.04,7.85,16.17,15.58,24.49,23.18,30.44,28.03,62.44,54.28,95.77,78.61,3.07,2.27,6.18,4.47,9.25,6.67,18.65,13.31,37.71,26.07,57.14,38.14,4.53,2.82,9.03,5.59,13.59,8.35,19.4,11.76,39.2,22.84,59.25,33.33,10.86,5.71,21.82,11.2,32.9,16.48,2.33,1.15,4.66,2.27,7.02,3.35,1.65,.78,3.26,1.55,4.94,2.33,3.57,1.68,7.17,3.29,10.74,4.9,19.06,8.63,38.36,16.73,57.88,24.24,5.87,2.3,11.76,4.47,17.69,6.61,6.36,2.33,12.76,4.62,19.18,6.83,16.85,5.8,33.98,11.23,51.15,16.2,20.75,6.09,41.71,11.47,62.84,16.27,414,155.85,861.52-115.98,919.75-105.39,36.69,6.69,28.65,62.37,11.94,115.36-17.17,45.92-37.37,90.56-60.45,133.63-71.78,134.17-171.31,252.97-292.74,347.53,.9-.65,1.83-1.28,2.73-1.93,.04-.03,.09-.06,.13-.09,2.7-1.96,5.33-4,8.01-5.98,9.2-6.79,18.28-13.73,27.24-20.79,11.38-8.97,22.6-18.12,33.58-27.51,25.18-21.52,49.35-44.08,72.36-67.68,14.43-14.79,28.41-29.98,41.95-45.53,13.54-15.55,26.63-31.48,39.25-47.75,6.31-8.13,12.51-16.36,18.59-24.66,30.39-41.53,57.84-85.16,82.12-130.54,5.27-9.83,10.39-19.74,15.35-29.73,2.49-5,4.93-10.01,7.34-15.05,31.31-65.44,56.18-134.13,73.98-205.09,4.01-16,1.64-30.93-4.79-43.39Z"/></g><path class="h" d="M1112.32,1814.74c-219.31,0-436.09-65.69-620.6-189.6-217.22-145.88-376.39-363.84-448.19-613.71-3.2-11.23-5.95-21.32-8.41-30.89-2.54-9.9-5-20.13-7.54-31.3-1.85-8.16-3.6-16.35-5.26-24.49-1.65-8.21-3.22-16.33-4.69-24.48-1.42-7.92-2.76-15.86-4.01-23.74-.68-4.27-1.33-8.59-1.97-12.92-.46-3.14-.89-6.22-1.32-9.32l-.36-2.59c-.57-4.27-1.1-8.42-1.61-12.6-.51-4.07-1.01-8.14-1.45-12.22-.45-4.06-.89-8.13-1.29-12.22-.41-3.97-.8-8.06-1.16-12.12-.39-4.37-.74-8.32-1.03-12.24l-.16-2.04c-.26-3.4-.53-6.77-.73-10.15-.1-1.33-.21-2.92-.31-4.52l-.55-9.3c-.24-3.92-.43-7.98-.6-12.08-.88-19.52-1.24-39.29-1.05-58.68l.09-8.77c.08-5.19,.21-10.25,.39-15.34,.08-2.85,.15-5.44,.27-8.05,.65-17.1,1.72-34.51,3.18-51.6l.82-9.26c.13-1.38,.25-2.76,.41-4.12,.31-3.56,.74-7.53,1.18-11.54,1.62-15.19,3.67-30.99,6.09-46.91,.56-3.84,1.18-7.79,1.84-11.72,4.96-30.62,11.36-61.61,19.01-92.02,1.83-7.28,3.73-14.53,5.7-21.78,4.31-15.67,8.82-30.87,13.41-45.21,.96-3.1,2.01-6.34,3.09-9.56,4.94-15,10.43-30.5,16.27-45.98,2.51-6.62,5.06-13.14,7.69-19.66,3.73-9.34,7.64-18.74,11.6-27.89,2.02-4.67,4.09-9.35,6.18-13.98,13.75-30.69,29.15-61.2,45.76-90.69,5.69-10.08,11.6-20.18,17.58-30.04,3.4-5.63,6.9-11.29,10.42-16.9,3.76-6.01,7.61-11.96,11.51-17.92,6.75-10.3,13.86-20.73,21.75-31.92,4.96-7,9.98-13.89,15.07-20.75,2.53-3.41,5.11-6.83,7.67-10.22,1.7-2.26,3.54-4.44,5.44-6.46,.33-.37,.81-.9,1.34-1.43,.76-.81,1.55-1.55,2.35-2.3,.47-.48,.97-.93,1.5-1.37,.42-.37,.84-.74,1.27-1.1l.7-.61c1-.84,1.67-1.35,2.35-1.86l.82-.62c.52-.41,1.03-.81,1.56-1.2l.62-.44C257.56,5.4,272.53,.46,288.26,.07c.09-.01,.54-.04,.99-.04l2.14-.03h.32c3.27,.05,6.67,.33,10.11,.84,36.34,5.23,63.92,33.03,68.59,69.15,.24,1.77,.41,3.66,.54,5.59,.34,5.58,.72,10.98,1.17,16.39,.25,3.52,.54,6.81,.84,10.15,.52,5.89,1.06,11.74,1.71,17.57,.37,3.82,.77,7.38,1.18,10.99,2.33,20.58,5.31,41.3,8.85,61.61,.59,3.59,1.2,7,1.84,10.42,.66,3.7,1.33,7.23,2.04,10.77,1.72,8.84,3.52,17.62,5.45,26.43l1.06,4.73c.69,3.08,1.38,6.15,2.11,9.22l.42,1.8c.94,4.02,1.84,7.83,2.81,11.64,.59,2.46,1.15,4.69,1.72,6.89,.87,3.47,1.73,6.77,2.61,10.08,.26,1.04,.42,1.7,.61,2.34l.17,.62c1.18,4.5,2.41,8.96,3.69,13.44,1.41,5.08,2.84,10.05,4.3,14.96,1.97,6.67,4.03,13.24,6.1,19.8,1.08,3.41,2.17,6.84,3.3,10.25l2.25,6.73c51.03,151.97,133.56,287.6,245.31,403.1,181.97,188.06,424.89,303.8,684.01,325.89,60.63,5.19,122.14,5.14,182.84-.15,2.43-.2,4.78-.42,7.14-.64l3.53-.33c1.77-.17,3.6-.37,5.43-.56,4.13-.39,8.01-.82,11.86-1.25,2.41-.27,4.76-.55,7.1-.84,6.67-.78,13.17-1.65,19.69-2.57,8.41-1.15,16.76-2.41,25.11-3.75,4.81-.82,9.79-1.66,14.78-2.54,5.19-.91,10.35-1.86,15.53-2.87l.9-.18c5.11-.99,10.22-2.01,15.33-3.08,4.85-1.03,9.73-2.06,14.65-3.15,26.38-5.86,53.02-12.85,79.16-20.76,4.38-1.34,8.62-2.64,12.86-3.98,4.39-1.37,8.63-2.77,12.88-4.17,4.15-1.34,8.19-2.73,12.2-4.1l.54-.19c78.77-27.11,154.36-63.45,224.63-107.99l3.23-2.06c2.56-1.63,5.12-3.25,7.65-4.91l8.71-5.76c4.57-3.01,9.07-6.04,13.53-9.12l10.87-7.6c9.36-6.6,19.79-11.09,30.8-13.23,1.79-.35,3.61-.63,5.43-.83,3.35-.44,6.8-.64,10.51-.58l4.56,.21c5.39,.39,10.74,1.34,15.96,2.83,11.1,3.21,21.63,8.84,30.49,16.31,12.02,10.21,20.67,23.34,25.09,38.03,3.39,11.35,4.14,23.15,2.24,35.09-.12,.97-.37,2.37-.65,3.71-.32,1.5-.58,2.67-.9,3.87-2.28,9.15-4.87,18.88-7.86,29.54-1.38,4.94-2.8,9.86-4.26,14.77-4.26,14.41-8.96,29.17-13.96,43.86-3.7,10.76-7.08,20.21-10.35,28.91-15.85,42.49-34.41,84.28-55.15,124.17-2.18,4.16-4.33,8.26-6.49,12.33-2.51,4.66-5.01,9.28-7.55,13.84-2.27,4.1-4.59,8.24-6.92,12.38-6.13,10.7-11.56,19.9-16.69,28.26-10.62,17.46-21.91,34.89-33.53,51.74-.73,1.06-1.43,2.09-2.17,3.09l-3.59,5.18c-1.14,1.64-2.3,3.26-3.45,4.9l-.38,.52c-.2,.31-.49,.71-.84,1.15l-1.77,2.5c-1.22,1.73-2.43,3.41-3.64,5.08l-2.81,3.83c-.7,1.02-1.47,2.04-2.23,3.02-1.3,1.81-2.65,3.63-3.99,5.44l-.41,.55c-.94,1.26-1.89,2.53-2.87,3.77-1.26,1.75-2.57,3.46-3.88,5.15l-3.3,4.28c-.76,1.06-1.55,2.08-2.38,3.06-.44,.6-.89,1.18-1.35,1.76-2.63,3.37-5.27,6.75-7.97,10.1-.32,.44-.74,.99-1.27,1.59-1.68,2.12-3.37,4.21-5.06,6.3l-.76,.93c-1.09,1.34-2.19,2.68-3.31,3.99-2.92,3.62-6.14,7.49-9.41,11.34-.52,.62-.81,.96-1.1,1.29-.56,.61-.98,1.13-1.4,1.64-1.34,1.61-2.67,3.14-3.99,4.66-1.27,1.5-2.69,3.17-4.17,4.81-.66,.79-1.34,1.58-2.03,2.36l-1.61,1.83c-1.96,2.23-3.87,4.41-5.83,6.58l-1.67,1.85c-2.23,2.49-4.64,5.12-7.02,7.72-.85,.98-1.73,1.94-2.6,2.88l-1.03,1.13c-2.05,2.21-3.95,4.25-5.88,6.27l-.22,.24c-.85,.92-1.71,1.86-2.58,2.76-1.45,1.56-3.15,3.34-4.86,5.14l-2.31,2.41c-1.69,1.75-3.4,3.51-5.11,5.24l-2.39,2.46c-2.77,2.85-5.59,5.65-8.41,8.46-.5,.52-.98,1.01-1.52,1.52l-6.96,6.84c-.59,.61-1.45,1.45-2.34,2.28l-5.57,5.36c-2.16,2.08-4.32,4.14-6.5,6.18-2.39,2.27-4.87,4.62-7.4,6.92-1.05,1.01-2.11,1.98-3.2,2.94-2.8,2.58-5.62,5.15-8.48,7.7-.97,.89-2.15,1.95-3.35,3.01l-.78,.69c-.61,.57-1.47,1.32-2.36,2.09l-.52,.45c-.91,.83-2.03,1.81-3.2,2.82-1.48,1.34-3.31,2.91-5.15,4.48l-.53,.45c-.36,.33-.73,.64-1.1,.95l-.87,.75c-3.04,2.62-6.09,5.24-9.19,7.82-.9,.78-2.08,1.76-3.25,2.7-2.48,2.09-5.23,4.35-7.99,6.62l-1.72,1.42c-.58,.5-1.15,.98-1.75,1.44-.83,.71-1.7,1.41-2.57,2.08-2.55,2.08-5.1,4.12-7.69,6.15l-.21,.24-3.81,2.94c-2.17,1.7-4.34,3.39-6.54,5.08-.9,.73-2.06,1.64-3.3,2.53-3.33,2.56-6.5,5-9.72,7.38-1.75,1.34-3.74,2.87-5.79,4.33-1.88,1.39-3.88,2.86-5.93,4.34l-.03,.06-13.68,9.82c-.46,.34-1.23,.88-2.01,1.41-2.43,1.71-4.94,3.44-7.46,5.18l-2.51,1.74c-6.5,4.52-13.52,9.22-22.05,14.79-9.89,6.45-19.01,12.19-27.87,17.55-3.03,1.89-6.31,3.87-9.61,5.8-.55,.37-1.1,.71-1.66,1.02-1.75,1.04-3.53,2.08-5.3,3.11-1.67,1.01-3.57,2.12-5.49,3.21-2.5,1.46-5.2,2.99-7.9,4.52l-2.19,1.24c-3.38,1.93-6.82,3.84-10.25,5.74-.66,.39-1.46,.81-2.25,1.21-2.75,1.52-5.51,3.03-8.33,4.52-2.94,1.6-6.1,3.27-9.29,4.93-2.25,1.18-4.35,2.29-6.47,3.37-.81,.44-1.61,.86-2.44,1.26-.91,.49-1.85,.96-2.77,1.41-2.36,1.24-4.74,2.42-7.11,3.61-4.24,2.13-8.55,4.26-12.88,6.35-6.36,3.08-12.82,6.13-19.3,9.09l-13.86,6.43-.14-.08c-.75,.34-1.5,.67-2.26,1.01l-10.1,4.5-.13-.06c-2.24,.96-4.47,1.9-6.68,2.82l-4.43,1.89c-2.14,.89-4.05,1.67-5.95,2.42-.74,.33-1.48,.64-2.26,.92-1.3,.55-2.62,1.08-3.95,1.62l-2.4,.95c-1.67,.66-3.34,1.33-5.02,1.97-.39,.18-.85,.37-1.35,.55l-2.69,1.07c-2.51,.98-4.71,1.84-6.93,2.65l-.71,.27c-.79,.31-1.58,.61-2.38,.9-.29,.11-.59,.22-.89,.33-1.49,.59-3.01,1.15-4.56,1.71-1.25,.5-2.52,.98-3.79,1.42-.7,.25-1.47,.53-2.26,.8-.64,.26-1.29,.5-1.96,.73-1.01,.38-2.01,.74-3.03,1.08-1.78,.67-3.6,1.32-5.44,1.96l-6.29-16.35,5.76,16.53-4.04,1.43c-1.02,.39-2.04,.73-3.1,1.06-1.99,.73-4.02,1.4-6.1,2.08l-4.68,1.6c-2.9,.98-5.9,1.96-8.9,2.94l-9.14,2.94c-3.02,.95-6.04,1.9-9.07,2.82-4.47,1.37-8.92,2.71-13.37,3.97-.77,.27-1.53,.5-2.29,.69-1.63,.47-3.26,.94-4.9,1.41l-.07,.13-15,4.06c-3.22,.88-6.51,1.75-9.8,2.61l-6.56,1.67c-1.72,.47-3.67,.96-5.66,1.42-1.25,.35-2.47,.65-3.74,.95-2.26,.55-4.45,1.07-6.6,1.57-1.15,.31-2.24,.57-3.34,.79-1.71,.42-3.42,.83-5.11,1.22l-.84,.21c-2.1,.48-4.2,.95-6.34,1.41-1.72,.41-3.74,.85-5.76,1.3l-2.36,.52c-1.65,.36-3.3,.73-4.96,1.07-1.22,.26-2.45,.52-3.69,.77l-.21,.39-8.74,1.43c-3.23,.67-6.44,1.28-9.64,1.89-2.12,.41-4.02,.76-5.92,1.11l-2.25,.41c-2.82,.53-5.7,1.04-8.54,1.54l-1.24,.21c-.61,.11-1.22,.22-1.84,.32-3.75,.67-7.89,1.35-12.01,2l-2.76,.44c-3.2,.51-6.38,1.02-9.57,1.47-2.56,.39-5.27,.78-7.98,1.16l-16.35,2.21c-4.11,.53-8.2,1.01-12.29,1.49-2.85,.33-5.72,.64-8.58,.95l-3.58,.39c-37.73,3.93-75.54,5.87-113.27,5.87ZM260.7,46.52l-.26,.24c-.59,.55-.95,.86-1.28,1.22l-1.23,1.32c-1.02,1.08-2.01,2.26-2.95,3.51-2.52,3.33-5.04,6.67-7.5,10-4.93,6.65-9.8,13.33-14.59,20.1-7.64,10.83-14.53,20.94-21.05,30.89-3.76,5.75-7.49,11.5-11.13,17.33-3.43,5.46-6.83,10.95-10.15,16.45-5.81,9.57-11.53,19.35-17.03,29.1-16.09,28.56-31,58.12-44.33,87.86l-.02,.04c-2.02,4.47-4.02,8.99-5.97,13.5-3.83,8.83-7.61,17.92-11.23,27-2.56,6.35-5.03,12.66-7.44,19.02-5.66,14.98-10.97,30-15.79,44.62-1.03,3.06-1.99,6.04-2.92,9.05-4.49,14.03-8.86,28.75-13.03,43.91-1.91,6.99-3.74,14.02-5.52,21.08-7.4,29.44-13.6,59.43-18.42,89.15-.63,3.78-1.22,7.5-1.76,11.2-2.36,15.51-4.34,30.8-5.91,45.54-.42,3.83-.82,7.57-1.16,11.33-.17,1.53-.27,2.63-.37,3.73l-.8,9.02c-1.42,16.59-2.46,33.44-3.09,50.12-.11,2.53-.18,4.92-.25,7.3v.51c-.19,4.86-.31,9.71-.39,14.54l-.09,8.67c-.18,18.78,.16,37.9,1.02,56.84,.16,3.93,.34,7.76,.58,11.63l.53,9.02c.1,1.46,.19,2.91,.3,4.36,.21,3.45,.46,6.63,.71,9.84l.17,2.13c.28,3.8,.62,7.57,.95,11.34,.39,4.33,.77,8.27,1.17,12.19,.39,4.02,.82,7.94,1.25,11.87,.43,3.92,.9,7.81,1.4,11.76,.5,4.09,1.01,8.1,1.55,12.12l.35,2.5c.42,3.01,.84,6.01,1.29,9.05,.62,4.17,1.24,8.36,1.9,12.53,1.22,7.69,2.52,15.39,3.89,23.05,1.43,7.9,2.96,15.81,4.55,23.74,1.59,7.84,3.29,15.77,5.09,23.68,2.46,10.84,4.85,20.77,7.31,30.34,2.38,9.26,5.05,19.06,8.15,29.96,133.62,465.02,557.29,778.12,1032.12,778.13,37.26,0,74.79-1.92,112.56-5.85l3.54-.39c2.75-.3,5.52-.6,8.27-.92,3.95-.46,7.9-.92,11.82-1.43l15.96-2.16c2.6-.37,5.19-.74,7.8-1.13,3.16-.45,6.15-.93,9.16-1.41l2.83-.45c3.91-.62,7.83-1.26,11.73-1.95l1.26-.22c.61-.11,1.23-.22,1.84-.32,2.36-.42,5.13-.91,7.86-1.42l2.38-.43c1.74-.32,3.49-.63,5.24-.98,.86-.16,1.7-.32,2.52-.48l.28-.53,9.64-1.43c3.1-.63,6.39-1.32,9.67-2.01,1.57-.32,3.06-.65,4.54-.98l2.44-.53c1.81-.4,3.68-.81,5.56-1.25,1.98-.43,3.71-.82,5.4-1.2l.89-.21c1.88-.44,3.77-.88,5.67-1.36l1.01-.22c.45-.08,.9-.2,1.37-.33l.69-.18c2.11-.49,4.28-1,6.41-1.52,1.15-.28,2.07-.5,3.02-.77l.83-.21c1.69-.4,3.36-.8,5.05-1.26l6.7-1.71c3.05-.81,6.25-1.65,9.46-2.53l7.6-2.08c4.04-1.13,8.11-2.28,12.14-3.46l1.46-.45c4.42-1.25,8.85-2.58,13.29-3.95,2.95-.91,5.9-1.83,8.83-2.75l8.73-2.8c2.92-.96,5.83-1.91,8.74-2.89l4.71-1.61c1.92-.63,3.72-1.22,5.48-1.88l1.03-.34c.44-.13,.86-.26,1.28-.42l4.14-1.47c.55-.21,1.13-.41,1.72-.6,1.41-.49,3.02-1.06,4.59-1.66l.69-.25c.74-.24,1.45-.5,2.18-.78l2.35-.88c.77-.25,1.56-.54,2.31-.81,.97-.34,1.87-.68,2.75-1.04l.58-.22c1.44-.52,2.84-1.03,4.22-1.58l1.35-.5c.61-.21,1.21-.45,1.81-.68l1.13-.43c2.19-.8,4.16-1.57,6.12-2.34l4.1-1.65c1.69-.65,3.38-1.32,5.06-1.99l2.34-.93c1.17-.48,2.49-1.01,3.78-1.56l2.33-.94c1.81-.7,3.61-1.44,5.41-2.18l4.46-1.9c2.75-1.14,5.26-2.2,7.74-3.27,1.52-.67,3.1-1.35,4.65-2.01l3.89-1.7c3.03-1.35,6.08-2.71,9.11-4.08l7.87-4.45,.83,.45c5.68-2.61,11.25-5.26,16.78-7.93,4.18-2.01,8.32-4.06,12.42-6.12,2.3-1.15,4.56-2.28,6.8-3.45l.59-.3c.63-.3,1.28-.63,1.9-.96l.86-.44c.41-.19,.8-.4,1.2-.62l.49-.26c2.08-1.06,4.13-2.14,6.17-3.22,3.32-1.72,6.3-3.31,9.25-4.9,2.93-1.55,5.61-3.02,8.3-4.5l1.55-.82c3.56-1.97,6.87-3.81,10.17-5.69l2.26-1.28c2.56-1.45,5.12-2.9,7.68-4.4,1.87-1.06,3.52-2.03,5.18-3.02,1.95-1.14,3.67-2.13,5.37-3.15l1.11-.69c3.22-1.88,6.42-3.81,9.56-5.77,8.72-5.28,17.51-10.81,27.07-17.05,8.24-5.37,14.99-9.9,21.24-14.24l2.58-1.78c2.44-1.68,4.87-3.35,7.29-5.05,.66-.45,1.04-.7,1.39-.97l10.58-7.6c3.17-2.3,6.18-4.49,9.16-6.69,1.96-1.4,3.63-2.69,5.3-3.97,3.36-2.49,6.43-4.85,9.5-7.21l.74-.55c.77-.54,1.48-1.11,2.21-1.7,2.44-1.88,4.52-3.51,6.61-5.14l3.33-2.64c2.68-2.09,5.33-4.2,7.97-6.36l.4-.31c.52-.4,1.06-.81,1.55-1.25l3.84-3.16c2.66-2.18,5.31-4.36,7.95-6.59,1.14-.92,2.01-1.64,2.86-2.37,3.22-2.68,6.12-5.18,9.02-7.68l2.58-2.22c1.61-1.37,3.21-2.74,4.77-4.14,1.26-1.09,2.18-1.9,3.1-2.73l.79-.69c.61-.53,1.22-1.05,1.81-1.6l1.06-.95c1.03-.91,2.05-1.81,3.05-2.74,2.98-2.67,5.72-5.16,8.43-7.66l.41-.37c.74-.64,1.45-1.29,2.15-1.98l.49-.46c2.41-2.18,4.77-4.42,7.13-6.66,2.16-2.02,4.19-3.96,6.24-5.93l5.85-5.63c.73-.68,1.17-1.12,1.62-1.58l8.5-8.38c2.68-2.66,5.35-5.32,7.97-8.02l2.5-2.58c1.74-1.76,3.35-3.43,4.94-5.08l2.17-2.26c1.62-1.7,3.23-3.38,4.83-5.1,.9-.93,1.54-1.63,2.17-2.31l.47-.51c2.03-2.12,3.79-4.02,5.58-5.95l1.06-1.16c.69-.75,1.39-1.51,2.07-2.3l.37-.41c2.35-2.56,4.72-5.15,7.06-7.76l1.72-1.9c1.68-1.87,3.48-3.92,5.29-5.97,.26-.31,.53-.6,.8-.89l.89-1.03c.53-.61,1.06-1.21,1.57-1.82l.56-.65c1.32-1.46,2.58-2.95,3.84-4.44,1.31-1.51,2.47-2.83,3.61-4.2,.76-.93,1.57-1.88,2.39-2.78,.08-.12,.37-.46,.67-.8,2.77-3.28,5.82-6.94,8.83-10.66,1.24-1.47,2.2-2.65,3.16-3.83l.73-.89c1.69-2.09,3.44-4.25,5.18-6.46l1.22-1.51c2.52-3.13,4.99-6.28,7.47-9.47,.28-.35,.53-.66,.77-1.01l1.2-1.54c.38-.43,.72-.89,1.06-1.36l3.85-5.01c1.15-1.49,2.3-2.99,3.4-4.53l.65-.85c.8-.99,1.56-2.02,2.32-3.04l.32-.43c1.36-1.83,2.68-3.62,3.95-5.39l.36-.48c.47-.6,.95-1.22,1.37-1.85l3.2-4.38c1.11-1.52,2.21-3.05,3.29-4.59l3.14-4.39c1.16-1.63,2.32-3.26,3.45-4.89l2.25-3.24,1.46-2.09c.71-.97,1.19-1.68,1.67-2.38,11.34-16.45,22.27-33.32,32.58-50.27,4.98-8.11,10.24-17.02,16.12-27.29,2.22-3.94,4.5-8.01,6.76-12.09,2.49-4.47,4.9-8.95,7.3-13.39,2.09-3.92,4.2-7.95,6.31-11.98,20.06-38.58,38.03-79.06,53.4-120.26,3.17-8.43,6.44-17.56,10.01-27.96,4.83-14.2,9.39-28.5,13.52-42.46,1.4-4.75,2.77-9.51,4.11-14.29,2.9-10.34,5.41-19.76,7.66-28.78,.24-.91,.38-1.59,.53-2.28,.11-.52,.22-1.11,.3-1.69,1.13-7.13,.72-13.71-1.14-19.96-2.46-8.18-7.36-15.57-14.17-21.35-5.08-4.28-11.17-7.54-17.55-9.39-3.66-1.05-7.49-1.61-11.33-1.67l-1.27-.02c-1.56,.02-2.98,.12-4.31,.3l-.64,.08c-.86,.09-1.72,.23-2.56,.39-6.14,1.19-12.03,3.75-17.52,7.62l-10.87,7.6c-4.71,3.27-9.44,6.44-14.18,9.57l-8.76,5.8c-2.74,1.8-5.45,3.52-8.15,5.24l-3.21,2.04c-72.62,46.04-150.68,83.56-232.06,111.57l-.57,.2c-4.19,1.43-8.42,2.88-12.65,4.25-4.33,1.43-8.76,2.89-13.24,4.29-4.26,1.35-8.63,2.69-13,4.03-27.2,8.23-54.69,15.44-81.92,21.5-5.04,1.12-10.04,2.18-15.05,3.24-5.37,1.12-10.71,2.19-16.04,3.22l-.91,.18c-5.34,1.04-10.64,2.02-15.97,2.94-5.04,.89-10.08,1.74-15.12,2.6-8.77,1.41-17.38,2.7-25.97,3.88-6.73,.95-13.5,1.85-20.3,2.65-2.48,.3-4.97,.61-7.44,.88-4,.46-8.12,.91-12.2,1.29-1.81,.2-3.75,.4-5.72,.59l-3.53,.33c-2.49,.23-4.99,.47-7.47,.67-62.61,5.45-126.14,5.5-188.77,.15-267.54-22.8-518.33-142.28-706.19-336.42-115.4-119.27-200.63-259.34-253.34-416.31l-2.32-6.95c-1.15-3.5-2.28-7.04-3.4-10.59-2.15-6.79-4.27-13.57-6.29-20.41-1.51-5.07-3-10.26-4.45-15.46-1.28-4.53-2.56-9.13-3.78-13.78-.31-1.08-.59-2.17-.86-3.26-.87-3.27-1.77-6.72-2.64-10.21-.6-2.28-1.21-4.74-1.8-7.19-.96-3.78-1.91-7.81-2.85-11.83l-.41-1.75c-.8-3.37-1.52-6.59-2.24-9.81l-1.17-5.28c-1.91-8.68-3.76-17.73-5.52-26.77-.74-3.72-1.45-7.48-2.13-11.26-.66-3.52-1.31-7.17-1.91-10.85-3.63-20.82-6.71-42.25-9.12-63.5-.43-3.8-.85-7.56-1.22-11.33-.65-5.85-1.22-11.97-1.76-18.07-.32-3.52-.62-7.03-.88-10.55-.46-5.47-.86-11.14-1.2-16.83-.07-1-.16-2.13-.31-3.26-3.05-23.62-21.75-36.64-38.92-39.12-1.9-.28-3.7-.43-5.39-.47l-2.19,.05c-8.87,.22-17.18,2.96-24.12,7.93l-4.39,3.53ZM1326.92,1776.65l.03,.02-.22-.94,.19,.93Zm227.37-92.29h0Zm432.93-356.77c-.06,.08-.11,.16-.17,.25l.17-.25ZM113.22,257.36h0Z"/><path class="e" d="M356.48,584.41c3.36-29.72,1.5-63.33-6.45-98.19-23.85-104.61-93.54-180.84-155.65-170.26-62.11,10.58-93.12,103.96-69.26,208.57,23.85,104.61,93.54,180.84,155.65,170.26l75.71-110.38Z"/><path class="h" d="M178.89,324.74c-15.53,10.73-26.89,26.44-34.65,43.61-7.77,17.26-12.2,36-14.74,54.94-2.5,18.97-2.91,38.27-1.96,57.42,.51,9.57,1.38,19.14,2.8,28.52,.72,4.68,1.52,9.34,2.63,13.75,1.46,4.57,2.75,9.18,4.25,13.71,11.9,36.22,28.18,71.08,51.23,100.68,5.69,7.43,11.86,14.45,18.55,20.88,6.57,6.55,13.75,12.43,21.39,17.5,7.62,5.12,15.84,9.27,24.52,12.17,8.71,2.72,17.89,4.17,27.33,3.77h.08c1.72-.08,3.17,1.25,3.24,2.97,.06,1.47-.91,2.76-2.28,3.13-9.93,2.75-20.68,3.22-31.06,1.52-10.41-1.65-20.37-5.39-29.67-10.12-9.29-4.8-17.83-10.83-25.79-17.41-7.85-6.72-15.06-14.1-21.74-21.88-26.39-31.47-43.54-69.42-52.64-108.58-1.22-4.88-2.11-9.84-2.99-14.78-1.09-5.14-1.84-10.18-2.46-15.2-1.25-10.05-1.88-20.05-2.14-30.06-.51-20.02,.76-40.07,4.03-59.89,3.3-19.78,8.78-39.42,17.93-57.6,9.02-18.13,22.47-34.67,39.93-45.47,1.8-1.12,4.17-.57,5.29,1.23,1.09,1.74,.59,4.03-1.08,5.19Z"/><g class="f"><path class="h" d="M166.79,486.49c3.47,31.98,14.11,62.34,28.82,86.37,17.26,28.18,40.11,47.79,63.58,51.32,43.49,6.58,72.65-44.38,65.11-113.82-7.16-66.28-45.17-125.44-86.47-136.44-1.96-.55-3.95-.96-5.93-1.25-43.49-6.58-72.65,44.38-65.11,113.82Z"/></g><ellipse class="e" cx="257.19" cy="552.87" rx="56.77" ry="101.87" transform="translate(-220.25 173.58) rotate(-26.59)"/><path class="e" d="M319.14,556.12c.82-22.12-2.07-44.22-8.39-65.22-5.97-21.07-15.2-41.11-27.39-58.7-6.29-8.62-13.2-16.69-21-23.41-7.77-6.7-16.53-12-25.51-14.41-8.93-2.53-17.98-1.92-25.8,1.89-7.87,3.75-14.42,10.82-19.4,19.31-4.98,8.54-8.3,18.45-10.42,28.68-2.13,10.25-3.1,20.91-3.03,31.62-.2,5.36,.41,10.73,.63,16.11,.74,5.35,1.05,10.76,2.18,16.07,1.68,10.71,4.54,21.22,7.72,31.61,3.55,10.26,7.71,20.32,12.74,29.94,5.12,9.55,11.06,18.65,17.94,26.94,6.94,8.21,14.98,15.45,24.08,20.8,9.08,5.28,19.46,8.46,30.03,7.46h.06c1.7-.17,3.22,1.09,3.38,2.79,.15,1.57-.9,2.97-2.4,3.31-11.93,2.72-24.68,.4-35.62-4.68-11.06-5.04-20.63-12.57-29.07-20.94-8.31-8.53-15.37-18.1-21.66-28.11-6.25-10.05-11.16-20.81-15.57-31.74-3.96-11.08-7.78-22.3-9.88-33.95-1.39-5.75-1.95-11.67-2.92-17.51-.45-5.92-1.27-11.82-1.25-17.8-.52-11.92,.44-23.98,2.78-35.92,2.35-11.93,6.07-23.85,12.38-35,6.2-11.09,15.67-21.49,28.34-27.54,12.59-6.14,27.59-6.74,40.35-2.91,12.87,3.82,23.64,11.11,32.78,19.35,9.15,8.31,16.81,17.78,23.33,27.83,6.37,10.13,11.71,20.76,16.19,31.68,4.07,11.07,7.77,22.25,10.04,33.75,4.85,22.85,6.05,46.61,1.99,69.56-.37,2.09-2.37,3.49-4.46,3.12-1.92-.34-3.25-2.04-3.18-3.93v-.05Z"/></g><g class="f"><path class="h" d="M1893.24,1852.61c-1.48,122.4-53.63,232.26-136.29,310.01-17.24,16.19-35.82,30.99-55.54,44.22-70.25,47.14-154.96,74.17-245.93,73.08-94.15-1.18-180.95-32.3-251.33-84.27-18.37-13.49-35.61-28.47-51.58-44.66-78.13-79.35-125.84-188.65-124.4-308.83,1.7-139.59,69.34-262.95,172.94-340.82,30.47,145.82,79.39,320.28,142.42,412.47l-87.53,176.94h388.01l-87.53-176.94c64.94-95.02,114.91-277.36,145.17-425.7,117.09,78.65,193.44,212.94,191.61,364.5Z"/></g><g><g><path class="b" d="M1879.83,1957.74h0c-4.92-.87-8.2-5.57-7.33-10.49l45.56-256.63c.87-4.92,5.57-8.2,10.49-7.33h0c51.62,9.16,86.04,58.44,76.87,110.06l-15.54,87.51c-9.16,51.62-58.44,86.04-110.06,76.87Z"/><path class="h" d="M1896.63,1962.35c-5.76,0-11.56-.51-17.35-1.54h0c-3.2-.57-5.99-2.35-7.86-5.02-1.86-2.67-2.57-5.9-2-9.1l45.56-256.63c1.17-6.61,7.51-11.05,14.12-9.86,25.79,4.58,48.25,18.92,63.25,40.4,15,21.47,20.74,47.5,16.16,73.29l-15.53,87.51c-4.58,25.79-18.92,48.25-40.4,63.25-16.65,11.63-36.05,17.7-55.94,17.7Zm-16.25-7.69c24.14,4.27,48.51-1.09,68.61-15.13,20.1-14.04,33.53-35.07,37.82-59.21l15.53-87.51c4.28-24.14-1.09-48.51-15.13-68.61-14.04-20.1-35.07-33.53-59.21-37.82-3.22-.56-6.29,1.58-6.87,4.79l-45.56,256.63c-.57,3.22,1.58,6.3,4.8,6.87h0Z"/></g><g class="f"><path class="h" d="M1997.17,1839.83l-7.28,41.04c-9.17,51.6-58.44,86.03-110.08,76.88-4.92-.87-8.19-5.59-7.33-10.51l12.09-68.22c.83,3.36,3.56,6.06,7.17,6.72l6.09,1.06c40.79,7.25,80.14-12.74,99.33-46.98Z"/></g><path class="h" d="M1896.66,1976.64c-6.6,0-13.24-.58-19.87-1.76h0c-6.96-1.24-13.02-5.11-17.07-10.9-4.05-5.8-5.6-12.82-4.36-19.78l45.56-256.63c1.24-6.96,5.11-13.02,10.9-17.07,5.79-4.05,12.81-5.6,19.78-4.36,29.54,5.24,55.28,21.68,72.46,46.28,17.19,24.6,23.76,54.42,18.51,83.96l-15.53,87.51c-5.24,29.55-21.68,55.28-46.28,72.46-19.08,13.33-41.3,20.27-64.09,20.27Zm-5.48-35.02c17.61,1.26,34.96-3.55,49.63-13.8,16.98-11.86,28.32-29.61,31.94-50l15.53-87.51c3.62-20.39-.92-40.96-12.77-57.94-10.25-14.67-24.9-25.13-41.85-30.04l-42.48,239.29Zm-8.31-1.03s.02,0,.03,0c0,0-.02,0-.03,0h0Z"/><g><path class="b" d="M1081.48,1532.92h0c4.92,.87,8.2,5.57,7.33,10.49l-45.56,256.63c-.87,4.92-5.57,8.2-10.49,7.33h0c-51.62-9.16-86.04-58.44-76.87-110.06l15.54-87.51c9.16-51.62,58.44-86.04,110.06-76.87Z"/><path class="h" d="M1034.35,1810.63c-.7,0-1.42-.06-2.13-.19-53.23-9.45-88.86-60.45-79.41-113.68l15.54-87.51c4.58-25.79,18.92-48.25,40.4-63.25,21.47-15,47.5-20.74,73.29-16.16h0c6.61,1.17,11.03,7.51,9.86,14.12l-45.56,256.63c-1.04,5.89-6.19,10.05-11.98,10.05Zm30.34-276.07c-18.63,0-36.78,5.67-52.37,16.56-20.1,14.04-33.53,35.07-37.82,59.21l-15.54,87.51c-4.28,24.14,1.09,48.51,15.13,68.61,14.04,20.1,35.07,33.53,59.21,37.82,3.23,.56,6.29-1.58,6.87-4.79l45.56-256.63c.57-3.21-1.58-6.29-4.79-6.87-5.42-.96-10.85-1.44-16.24-1.44Z"/></g><g class="f"><path class="h" d="M1055.91,1728.85l-12.65,71.19c-.87,4.92-5.59,8.19-10.51,7.33-27.09-4.82-49.47-20.68-63.28-42.15-12.47-19.39-17.93-43.38-13.58-67.89l6.54-36.87c8.91,34.95,37.56,63.29,75.4,70.01l9.37,1.66c3.42,.6,6.66-.77,8.71-3.27Z"/></g><path class="h" d="M1034.36,1824.92c-1.53,0-3.08-.13-4.64-.41-60.99-10.83-101.8-69.25-90.97-130.24l15.54-87.51c5.24-29.54,21.68-55.28,46.28-72.46,24.6-17.19,54.42-23.76,83.96-18.51h0c14.36,2.55,23.97,16.32,21.42,30.68l-45.56,256.63c-2.28,12.81-13.46,21.84-26.04,21.84Zm30.37-276.07c-15.73,0-31.06,4.79-44.22,13.99-16.98,11.86-28.32,29.61-31.93,50l-15.54,87.51c-6.98,39.3,17.12,77.06,54.62,87.97l42.48-239.28c-1.8-.13-3.61-.19-5.4-.19Z"/><g><circle class="b" cx="1480.71" cy="1745.34" r="444.15" transform="translate(-800.45 1558.22) rotate(-45)"/><path class="h" d="M1481.5,2192.8c-36.65,0-73.54-4.54-110.01-13.72-115.85-29.17-213.42-101.72-274.71-204.27-61.29-102.55-78.98-222.83-49.81-338.69,60.22-239.16,303.79-384.75,542.96-324.52,115.85,29.17,213.42,101.72,274.71,204.27,61.29,102.55,78.98,222.83,49.81,338.69h0c-29.17,115.85-101.72,213.42-204.27,274.71-70.27,42-148.89,63.53-228.68,63.53Zm-.75-888.53c-197.29,0-377.4,133.56-427.71,333.38-28.76,114.24-11.32,232.83,49.11,333.95,60.44,101.12,156.63,172.65,270.87,201.41,114.23,28.76,232.83,11.32,333.95-49.11,101.12-60.43,172.65-156.63,201.41-270.87,28.76-114.23,11.32-232.83-49.11-333.95-60.43-101.12-156.63-172.65-270.87-201.41-36-9.06-72.11-13.4-107.65-13.4Z"/></g><g class="f"><path class="h" d="M1922.3,1793.13c-2.16,20.17-5.78,40.42-10.88,60.67-59.93,237.86-301.31,382.13-539.18,322.26-237.86-59.93-382.13-301.31-322.26-539.18,1.72-6.84,3.6-13.65,5.63-20.31-23.76,216.97,115.49,423.7,333.13,478.51,231.03,58.16,465.33-76.25,533.55-301.95Z"/></g><path class="h" d="M1481.52,2207.09c-37.82,0-75.89-4.69-113.52-14.16-119.56-30.1-220.23-104.97-283.48-210.79-63.25-105.83-81.51-229.95-51.4-349.5,62.15-246.8,313.5-397.04,560.3-334.88,119.56,30.1,220.23,104.97,283.48,210.79,63.25,105.83,81.5,229.95,51.4,349.51-30.1,119.55-104.97,220.23-210.79,283.48-72.52,43.34-153.64,65.56-235.98,65.56Zm-.77-888.54c-190.9,0-365.17,129.24-413.86,322.58-57.46,228.18,81.44,460.57,309.61,518.02,110.53,27.83,225.29,10.95,323.14-47.52,97.84-58.48,167.06-151.56,194.89-262.09h0c27.83-110.54,10.96-225.3-47.52-323.14-58.48-97.84-151.56-167.06-262.09-194.89-34.83-8.77-69.78-12.97-104.17-12.97Z"/><path class="h" d="M1907.25,1864.51c-19.95,84.59-65.93,156.65-128.21,210.56-46.7,40.41-211.54,91.54-390.64,51-166.07-37.59-296.01-161.5-319.73-218.51-31.64-76.05-40.58-161.07-20.63-245.66,52.79-223.86,267-271.31,504.28-215.36,237.27,55.95,407.72,194.11,354.94,417.97Z"/><g class="d"><ellipse class="b" cx="1774.8" cy="1801.17" rx="78.6" ry="56.96" transform="translate(-585.3 2708.95) rotate(-66.46)"/></g><g class="d"><ellipse class="b" cx="1671.15" cy="1936.71" rx="36.08" ry="30.96" transform="translate(-853.2 2350.51) rotate(-58.52)"/></g><g class="f"><path class="c" d="M1872.94,1635.97c40.7,62.5,55.5,138.62,34.31,228.53-19.95,84.61-65.95,156.66-128.2,210.58-46.71,40.41-211.56,91.53-390.66,51.01-63.24-14.3-121.22-41.13-170.11-72.04,221.22,45.11,422.21-17.95,480.12-68.08,79.06-68.42,137.41-159.89,162.71-267.23,6.78-28.69,10.62-56.28,11.84-82.77Z"/></g><path class="h" d="M1916.56,1674.47c-4.48,0-8.91-2-11.86-5.84l-1.23-1.6-.81-1.93c-48.29-118.16-174.25-209.1-345.59-249.51-172.28-40.62-325.88-13.63-421.45,74.06l-1.47,1.19c-6.54,4.68-15.67,3.38-20.62-3.05-4.89-6.36-3.89-15.4,2.15-20.55,103.02-94.27,266.38-123.75,448.28-80.85,180.74,42.62,314.25,139.94,366.34,267.03,2.7,6.18,1,13.64-4.58,17.93-2.73,2.1-5.96,3.12-9.16,3.12Z"/><g class="d"><path class="b" d="M1113.12,1817.83s-17.26-237.19,122.51-297.13c139.77-59.94,310.92-19.21,304.32-9.17,0,0-200.39,1.19-309.9,133.56-84.45,102.08-116.94,172.73-116.94,172.73Z"/></g></g><path class="g" d="M1224.86,1074.78c21.43,25.6,40.24,110.24-11.83,141.8-73.95,44.83-303.02-21.27-313.43-134.18-6.83-74.1,41.17-75.72,85.23-78.1,44.05-2.38,187.5,7.75,240.03,70.48Z"/><path class="b" d="M1222,1054.43c17.53,26.7,26.03,109.21-26.95,133.44-75.24,34.41-285.6-53.77-282.99-162.23,1.72-71.18,47.52-67.39,89.64-64.78,42.13,2.62,177.32,28.14,220.29,93.57Z"/><g class="f"><path class="h" d="M912.87,1044.32c19.76,99.64,210.5,175.94,281.36,143.56,52.97-24.25,44.49-106.73,26.94-133.46-1.26-1.96-2.66-3.87-4.14-5.75-3.48,11.27-9.79,21.59-19.85,29.9-52.36,43.22-213.98,30.16-284.32-34.26Z"/></g><g><path class="b" d="M1676.6,1044.98c-15.6,27.87-18.23,110.78,36.33,131.2,77.48,29,281.08-73.85,270.79-181.85-6.75-70.88-52.17-63.86-94-58.27-41.84,5.59-174.89,40.61-213.12,108.92Z"/><g class="f"><path class="h" d="M1983.43,1013.08c-12.66,100.78-197.52,190.4-270.5,163.11-54.56-20.44-51.93-103.31-36.32-131.22,1.12-2.04,2.37-4.05,3.72-6.02,4.27,11,11.3,20.84,21.92,28.42,55.29,39.41,215.58,14.95,281.19-54.29Z"/></g><path class="h" d="M1744.63,1198.57c-13.84,0-26.64-1.91-37.8-6.09-22.93-8.58-40.02-26.67-49.42-52.31-13.38-36.52-8.47-81.4,4-103.69h0c43.94-78.5,189.44-112.79,226-117.68l1.6-.21c28.05-3.76,59.86-8.02,83.9,11.09,16.11,12.8,25.32,33.41,28.13,63.01,4.4,46.16-23.37,94.72-78.19,136.73-49.72,38.1-122.39,69.17-178.24,69.17Zm180.57-248.38c-9.84,0-20.79,1.46-31.56,2.91l-1.61,.22c-41.61,5.56-166.35,39.63-200.23,100.17h0c-7.18,12.83-11.91,46.81-1.69,74.71,5.88,16.04,15.61,26.69,28.93,31.68,38.91,14.55,122.55-12.05,182.66-58.11,44.29-33.94,67.87-72.49,64.7-105.78-1.85-19.4-6.94-32.53-15.13-39.04-6.41-5.1-15.61-6.75-26.06-6.75Zm-248.59,94.79h0Z"/></g><path class="h" d="M1153.41,1212.85c-54.15,0-122.34-24.64-171.08-56.78-57.65-38.02-88.79-84.49-87.67-130.85,.72-29.72,8.44-50.93,23.61-64.84,22.64-20.76,54.66-18.76,82.91-17l1.61,.1c36.82,2.29,184.38,26.2,233.76,101.39,14.02,21.35,22.09,65.77,11.33,103.15-7.56,26.24-23.32,45.5-45.59,55.68-13.82,6.32-30.54,9.14-48.88,9.14Zm-177.1-235.67c-14.13,0-26.79,1.79-34.5,8.87-7.71,7.07-11.86,20.53-12.33,40.01-.81,33.43,25.44,70.22,72.02,100.94,63.22,41.69,148.54,62.31,186.31,45.03,12.93-5.91,21.88-17.23,26.61-33.65,8.22-28.55,1.09-62.11-6.98-74.4-38.08-57.99-164.92-83.14-206.82-85.75l-1.62-.1c-7.64-.48-15.37-.96-22.7-.96Z"/><path class="h" d="M1669.52,2995.99c-86.07,0-170.28-33.92-176.17-36.35-6.38-2.62-9.43-9.92-6.81-16.31,2.62-6.38,9.92-9.43,16.31-6.82,2.26,.93,227.3,91.48,302.97-26.52,3.73-5.81,11.46-7.51,17.27-3.77,5.81,3.73,7.5,11.46,3.77,17.27-35.8,55.83-97.03,72.5-157.34,72.5Z"/><path class="h" d="M1237.47,2995.99c-60.31,0-121.53-16.66-157.34-72.5-3.73-5.81-2.04-13.55,3.77-17.27,5.82-3.73,13.54-2.04,17.27,3.77,75.67,118.01,300.71,27.45,302.97,26.52,6.39-2.61,13.69,.43,16.31,6.82,2.62,6.38-.43,13.68-6.81,16.31-5.9,2.42-90.11,36.35-176.18,36.35Z"/></svg>