<?xml version="1.0" encoding="utf-8"?>
<!-- Generator: Adobe Illustrator 26.2.1, SVG Export Plug-In . SVG Version: 6.00 Build 0)  -->
<svg version="1.1" id="Layer_1" xmlns="http://www.w3.org/2000/svg" xmlns:xlink="http://www.w3.org/1999/xlink" x="0px" y="0px"
	 viewBox="0 0 1366 311" style="enable-background:new 0 0 1366 311;" xml:space="preserve">
<style type="text/css">
	.st0{fill:none;stroke:#FFE9F5;stroke-width:16;stroke-linecap:round;stroke-linejoin:round;}
	.st1{fill:none;stroke:#FF9ED5;stroke-width:10;stroke-miterlimit:10;}
	.st2{fill:none;stroke:#FF9ED5;stroke-width:5;stroke-miterlimit:10;}
	.st3{fill:#FF9ED5;}
</style>
<g>
	<g>
		<line class="st0" x1="924" y1="155.5" x2="1162" y2="155.5"/>
		<line class="st0" x1="204" y1="155.5" x2="442" y2="155.5"/>
	</g>
	<g>
		<line class="st0" x1="924" y1="195.5" x2="1162" y2="195.5"/>
		<line class="st0" x1="204" y1="195.5" x2="442" y2="195.5"/>
	</g>
	<g>
		<g>
			<line class="st1" x1="693.8" y1="187.8" x2="672.2" y2="187.8"/>
			<path class="st1" d="M679.6,49.5c-12.9,10.3-55.9,51.5-18.3,116.6h43.3C741.4,101,699,59.9,686.3,49.5
				C684.4,47.9,681.6,47.9,679.6,49.5z"/>
			<path class="st1" d="M646.4,111.6l-21.3,25.5c-1.1,1.3-1.5,3-1.1,4.6l8.3,37.7c0.7,2.9,3.6,4.8,6.5,4.1c0.8-0.2,1.6-0.5,2.2-1.1
				l20.3-16.3"/>
			<path class="st1" d="M719.2,111l21.7,26c1.1,1.3,1.5,3,1.1,4.6l-8.3,37.7c-0.7,2.9-3.6,4.8-6.5,4.1c-0.8-0.2-1.6-0.5-2.2-1.1
				L704.7,166"/>
			<ellipse class="st2" cx="681.4" cy="99.6" rx="6.6" ry="6.6"/>
		</g>
		<path class="st3" d="M691.7,243.7L691.7,243.7L691.7,243.7L691.7,243.7z M666.3,244.2c0.2,0.2,0.4,0.3,0.6,0.4
			c1.2,0.7,2.8,0.3,3.5-0.9l0.1-0.1c0.9-1.7,2.1-3.3,3.6-4.5c-0.2,1.3-0.3,2.6-0.3,3.9c0,8,4.3,15.4,11.3,19.4
			c1.2,0.7,2.8,0.3,3.5-1c0.2-0.3,0.3-0.7,0.3-1.1c0.3-4.9,2.6-9.5,6.3-12.6l0.6-0.5c1.9-1.3,3.7-2.9,5.1-4.8
			c7.9-9.9,6.2-24.4-3.7-32.3c-1.7-1.4-3.6-2.5-5.6-3.3c-1.3-0.5-2.8,0.1-3.3,1.4c-0.1,0.3-0.2,0.6-0.2,1c0,0.3,0,0.5,0.1,0.8
			c0.6,2.2,0.7,4.4,0.5,6.6c-2.4-4.6-6.3-8.2-11-10.3c-0.6-0.3-1.2-0.3-1.8-0.1c-12.1,3.9-18.7,16.9-14.8,29
			C661.9,238.6,663.7,241.7,666.3,244.2z M676.3,211.4c4.5,2.3,7.8,6.4,9.2,11.3c0.2,0.8,0.4,1.6,0.5,2.5c0.1,1.1,1,2,2,2.2
			c0.2,0,0.3,0,0.5,0c0.9,0,1.8-0.5,2.2-1.3c2.1-3.7,3.2-7.8,3.1-12.1c7.8,6.1,9.2,17.3,3.1,25.1c0,0.1-0.1,0.1-0.1,0.2
			c-1.1,1.5-2.5,2.7-4,3.7c-0.1,0-0.1,0.1-0.2,0.1l-0.8,0.6c-3.6,3.1-6.2,7.2-7.4,11.9c-5.7-5.3-7.2-13.8-3.5-20.7
			c0.7-1.3,0.2-2.8-1.1-3.5c-0.6-0.3-1.3-0.4-1.9-0.2c-3.9,1.2-7.4,3.6-9.9,6.9c-5.5-8.2-3.4-19.3,4.8-24.9
			C673.8,212.5,675,211.9,676.3,211.4L676.3,211.4z"/>
	</g>
</g>
</svg>
