<?xml version="1.0" encoding="UTF-8"?><svg id="a" xmlns="http://www.w3.org/2000/svg" xmlns:xlink="http://www.w3.org/1999/xlink" viewBox="0 0 806 274"><defs><style>.v{fill:#fff;}.w{clip-path:url(#l);}.x{letter-spacing:0em;}.y{clip-path:url(#h);}.a`{fill:#5c5261;}.aa{fill:#b996ae;}.ab{fill:#ec1f94;}.ab,.ac,.ad{font-family:Oswald-SemiBold, Oswald;}.ab,.ad{font-size:99.84px;}.ae{clip-path:url(#n);}.af{fill:#ff7bac;}.ag{fill:#6b456a;}.ah,.ac,.ad{fill:#707070;}.ai{clip-path:url(#u);}.aj{fill:#8c7b94;}.ak{clip-path:url(#o);}.al{fill:#ffd8e6;}.ac{font-size:32px;}.am{fill:#d4d4d4;}.an{clip-path:url(#m);}.ao{clip-path:url(#b);}.ap{fill:#b9afbe;}.aq{clip-path:url(#c);}.ar{clip-path:url(#t);}.as{clip-path:url(#e);}.at{letter-spacing:-.01em;}.au{fill:#2a1a3b;}.av{clip-path:url(#d);}.aw{fill:#9b5c8d;}.ax{fill:none;}.ay{clip-path:url(#p);}.b`{clip-path:url(#f);}.ba{fill:#371a45;}.bb{clip-path:url(#j);}.bc{clip-path:url(#q);}.bd{clip-path:url(#s);}.be{clip-path:url(#r);}.bf{fill:#b95988;}.bg{clip-path:url(#i);}.bh{clip-path:url(#k);}.bi{clip-path:url(#g);}</style><clipPath id="b"><polyline class="ax" points="527.36 129.15 598.34 129.15 598.34 167.28 527.36 167.28 527.36 129.15"/></clipPath><clipPath id="c"><polyline class="ax" points="576.7 177.48 600.3 177.48 600.3 186.49 576.7 186.49 576.7 177.48"/></clipPath><clipPath id="d"><polyline class="ax" points="639.54 177.45 663.14 177.45 663.14 186.49 639.54 186.49 639.54 177.45"/></clipPath><clipPath id="e"><polyline class="ax" points="595.9 166.21 641.52 166.21 641.52 194.15 595.9 194.15 595.9 166.21"/></clipPath><clipPath id="f"><polyline class="ax" points="625.27 173.7 635.82 173.7 635.82 180.02 625.27 180.02 625.27 173.7"/></clipPath><clipPath id="g"><polyline class="ax" points="625.27 177.06 635.81 177.06 635.81 184.24 625.27 184.24 625.27 177.06"/></clipPath><clipPath id="h"><polyline class="ax" points="543.62 189.01 695.12 189.01 695.12 233.29 543.62 233.29 543.62 189.01"/></clipPath><clipPath id="i"><polyline class="ax" points="681.65 188.77 697.05 188.77 697.05 199.49 681.65 199.49 681.65 188.77"/></clipPath><clipPath id="j"><polyline class="ax" points="676.77 214.38 693.76 214.38 693.76 232.74 676.77 232.74 676.77 214.38"/></clipPath><clipPath id="k"><polyline class="ax" points="541.68 188.77 557.08 188.77 557.08 199.49 541.68 199.49 541.68 188.77"/></clipPath><clipPath id="l"><polyline class="ax" points="544.98 214.38 561.96 214.38 561.96 232.74 544.98 232.74 544.98 214.38"/></clipPath><clipPath id="m"><polyline class="ax" points="584.57 107.65 653.23 107.65 653.23 149.68 584.57 149.68 584.57 107.65"/></clipPath><clipPath id="n"><polyline class="ax" points="667.92 83.68 679.78 83.68 679.78 100.63 667.92 100.63 667.92 83.68"/></clipPath><clipPath id="o"><polyline class="ax" points="558.06 97.19 571.59 97.19 571.59 111.36 558.06 111.36 558.06 97.19"/></clipPath><clipPath id="p"><polyline class="ax" points="567.02 80.9 670.13 80.9 670.13 141.43 567.02 141.43 567.02 80.9"/></clipPath><clipPath id="q"><polyline class="ax" points="646.5 77.48 659.83 77.48 659.83 95.66 646.5 95.66 646.5 77.48"/></clipPath><clipPath id="r"><polyline class="ax" points="642.36 100.88 649.64 100.88 649.64 109.18 642.36 109.18 642.36 100.88"/></clipPath><clipPath id="s"><polyline class="ax" points="599.32 64.98 670.04 64.98 670.04 135.4 599.32 135.4 599.32 64.98"/></clipPath><clipPath id="t"><polyline class="ax" points="576.66 61.43 617.61 61.43 617.61 109.85 576.66 109.85 576.66 61.43"/></clipPath><clipPath id="u"><polyline class="ax" points="653.88 183.99 678.84 183.99 678.84 201.13 653.88 201.13 653.88 183.99"/></clipPath></defs><path class="v" d="M646.01,209.82h-53.2c-9.15-.03-16.56-7.44-16.59-16.59v-47c.03-9.15,7.44-16.56,16.59-16.59h53.2c9.15,.03,16.56,7.44,16.59,16.59v47c-.03,9.15-7.44,16.56-16.59,16.59h0"/><path class="ba" d="M646.01,129.64c9.15,.03,16.56,7.44,16.59,16.59v47c-.03,9.15-7.44,16.56-16.59,16.59h-53.2c-9.15-.03-16.56-7.44-16.59-16.59v-47c.03-9.15,7.44-16.56,16.59-16.59h53.2m0-2.62h-53.2c-2.57,0-5.11,.51-7.47,1.52-4.6,1.96-8.27,5.63-10.23,10.23-1.01,2.36-1.52,4.9-1.52,7.47v47c0,2.57,.51,5.11,1.52,7.47,1.96,4.6,5.63,8.27,10.23,10.23,2.36,1.01,4.9,1.52,7.47,1.52h53.2c2.57,0,5.11-.51,7.47-1.52,4.6-1.96,8.27-5.62,10.23-10.23,1.01-2.36,1.52-4.9,1.52-7.47v-47c0-2.57-.51-5.11-1.52-7.47-1.96-4.6-5.63-8.27-10.23-10.23-2.36-1.01-4.9-1.52-7.47-1.52"/><path class="v" d="M661.41,180.76c-8.28,.97-16.54,1.21-16.54,1.21,0,0-4.2-20.96-5.37-37.4-.86-12.18-.05-21.87,5.37-18.71,2.49,1.45,5.37,4.19,8.36,7.67,11.23,13.04,24.13,36.45,24.85,41.31,.46,3.12-8.12,4.92-16.67,5.93h0"/><path class="ba" d="M643.76,183.36l-.23-1.13c-.03-.13-2.6-13.01-4.26-26.35-.88-6.4-1.35-12.84-1.43-19.3,.05-6.75,1.03-10.58,3.08-12.04,.91-.64,2.44-1.15,4.63,.13,7.21,4.21,16.37,17.61,21.18,25.22,3.21,5.08,6.29,10.42,8.66,15.03,1.67,3.25,3.73,7.57,4.04,9.7,.13,.91-.16,1.83-.77,2.51-1.16,1.38-3.57,2.46-7.58,3.4-3.7,.81-7.45,1.4-11.23,1.76-7.64,.81-14.87,1.03-14.94,1.03l-1.15,.03m-.77-56.75c-.17,0-.34,.05-.48,.15-.89,.64-3.56,4.59-.54,28.77,1.37,10.95,3.35,21.6,4.01,25.03,2.33-.09,7.84-.36,13.59-.97,13.35-1.42,16.33-3.41,16.99-4.2,.18-.22,.17-.32,.16-.36-.39-2.65-5.42-12.79-12.3-23.67-7.97-12.6-15.34-21.47-20.25-24.32-.35-.24-.77-.39-1.19-.42h0"/><path class="v" d="M602.73,125.08l-1.68,12.68-.95,7.21-2.04,15.39c-3.09,1.93-6.42,3.45-9.9,4.53-2.58,.84-5.23,1.46-7.91,1.86-5.44,.83-10.98,.69-16.37-.42-15.47-3.17-24.75-14.66-28.78-20.44-7.77-11.15-8.96-14.17-6.8-18.86,1.65-3.6,4.47-4.26,4.47-4.26,0,0-.14-2.88,2.14-3.9,6.82-3.06,15.61,5.12,15.61,5.12,0,0,.33-8.8,5.04-6.77,3.24,1.4,3.98,10.98,3.98,10.98,0,0,4.35,5.59,11.27,6.34,3.61,.39,8.62-.66,13.58-2.19l.17-.05c2.65-.82,5.28-1.76,7.69-2.7,1.08-.42,2.12-.84,3.09-1.24,4.34-1.8,7.38-3.29,7.38-3.29h0"/><g class="ao"><path class="ap" d="M528.77,131.65c.35,2.6,2.38,6.16,7.47,13.46,7.52,10.81,17.18,17.68,27.93,19.88,3.01,.6,6.06,.9,9.1,.9,1.97,0,3.93-.12,5.89-.37l.07-.32c.07-.29,.14-.59,.22-.88,.07-.29,.15-.59,.21-.88,.14-.59,.28-1.17,.41-1.76,.13-.59,.27-1.18,.41-1.76,.14-.59,.3-1.17,.47-1.75s.36-1.15,.55-1.72c.06-.18,.12-.36,.19-.54-.43,.2-.91,.38-1.43,.52-3.85,1.07-7.55,1.53-11.05,1.53-13.49,0-23.89-6.71-27.77-10.04-6.79-5.82-8.56-9.48-9.51-10.99-1.16-1.7-2.21-3.46-3.16-5.28"/></g><path class="ba" d="M573.23,168.64c-3.23,0-6.45-.33-9.61-.97-7.13-1.51-13.76-4.79-19.28-9.53-3.94-3.35-7.41-7.2-10.34-11.46-3.78-5.43-6.18-9.17-7.28-12.16-1.06-2.61-.93-5.55,.36-8.05,.87-2.02,2.43-3.67,4.4-4.64,.17-1.8,1.26-3.39,2.89-4.18,5.55-2.49,11.95,1.36,15.11,3.74,.03-.16,.06-.33,.1-.49,.53-2.36,1.43-3.95,2.69-4.75,1.16-.71,2.62-.77,3.83-.15,1.79,.77,3.09,3.05,3.99,6.96,.35,1.56,.6,3.13,.76,4.72,.96,1.09,4.73,4.96,10.1,5.53,9.8,1.05,30.95-9.24,31.17-9.34,.68-.33,1.49-.05,1.82,.62,.12,.24,.16,.51,.13,.78l-4.66,35.28c-.05,.38-.26,.73-.58,.95-3.15,1.98-6.55,3.55-10.11,4.66-3.61,1.18-7.35,1.96-11.13,2.3-1.45,.13-2.91,.2-4.36,.2h0m-40.12-44.54c-.18,.05-2.26,.67-3.55,3.5-1.75,3.81-1.32,6.02,6.69,17.52,7.52,10.81,17.18,17.68,27.93,19.88,7.9,1.57,16.07,1.07,23.71-1.45,3.11-.99,6.11-2.34,8.92-4l4.25-32.18c-2.22,1.01-5.85,2.61-9.93,4.14-9.08,3.4-15.96,4.88-20.45,4.4-7.41-.79-12.01-6.61-12.2-6.85-.16-.21-.26-.47-.28-.73-.15-1.61-.4-3.21-.75-4.79-.95-4.12-2.08-4.9-2.41-5.04-.81-.35-1.17-.13-1.3-.05-1.14,.72-1.77,3.72-1.84,5.61-.03,.75-.66,1.34-1.41,1.31-.33-.01-.64-.14-.88-.36-.08-.08-8.21-7.52-14.12-4.87-1.36,.61-1.34,2.46-1.33,2.59,.05,.66-.4,1.26-1.05,1.39h0"/><path class="ba" d="M551.65,124c.02,.35-.01,.7-.1,1.03-.04,.16-.09,.29-.13,.43-.05,.14-.1,.26-.15,.38-.2,.44-.42,.86-.67,1.27-.22,.39-.44,.75-.63,1.12l-.14,.28c-.05,.09-.09,.18-.14,.28l-.13,.28-.12,.29-.11,.29-.1,.29c-.04,.1-.06,.2-.09,.3s-.06,.2-.08,.3c-.11,.41-.19,.83-.24,1.26-.06,.44-.09,.88-.1,1.32-.01,.23,0,.45,0,.68,0,.12,0,.23,0,.35,0,.12,0,.23,0,.35h0c0,.1-.07,.17-.17,.17l-.14-.09c-.22-.43-.41-.87-.57-1.32-.49-1.43-.61-2.96-.34-4.45l.08-.38c.03-.12,.06-.25,.09-.37,.03-.12,.07-.25,.1-.37,.03-.12,.08-.24,.12-.36,.16-.47,.36-.92,.58-1.36,.21-.43,.43-.83,.61-1.18,.14-.26,.26-.52,.36-.8l.13-.32c.23-.56,.88-.83,1.44-.59,.38,.16,.64,.51,.67,.92"/><path class="ba" d="M562.39,167.28c-.52,0-.94-.42-.94-.94,0-.35,.2-.68,.52-.84,3.78-1.88,6.36-7.75,7.47-16.96,.52-4.6,.69-9.23,.5-13.85-.04-.52,.34-.97,.85-1.01,.52-.04,.97,.34,1.01,.85v.06c.2,4.72,.03,9.46-.5,14.16-.38,3.72-1.22,7.38-2.51,10.9-1.48,3.77-3.5,6.3-5.99,7.54-.13,.06-.27,.1-.42,.1"/><path class="v" d="M664.35,204.55h-89.96s.55-15.53,5.87-37.79c2.38-10,5.38-19.84,8.98-29.47,.95-2.53,1.96-5.08,3.03-7.67,3.11-7.51,6.63-14.84,10.55-21.96h33.12c3.36,6.1,6.33,12.2,8.95,18.21,1.69,3.88,3.24,7.72,4.65,11.5,5.25,14.08,9.22,28.61,11.89,43.4,1.49,7.86,2.47,15.8,2.94,23.79h0"/><path class="ba" d="M652,148.93c1.74,1.94,2.53,4.2,3.27,6.47,.37,1.14,.73,2.27,1.08,3.41,.17,.57,.35,1.14,.51,1.72,.16,.58,.31,1.15,.47,1.73l.45,1.73c.15,.58,.3,1.15,.44,1.73l.83,3.48c.13,.58,.28,1.16,.41,1.74l.39,1.75,.4,1.74c.14,.58,.28,1.16,.4,1.74l.78,3.49c.13,.58,.25,1.17,.37,1.75l.37,1.75,.18,.88,.09,.44,.09,.44,.34,1.76c.11,.59,.23,1.17,.36,1.75,.12,.59,.24,1.17,.36,1.75,.53,2.33,.89,4.7,1.06,7.09,.02,.3,.04,.6,.06,.9l.04,.9c.02,.6,.04,1.2,.03,1.8,0,.6-.02,1.21-.06,1.81-.04,.6-.09,1.21-.18,1.82-.02,.12-.13,.2-.25,.18l-.17-.14c-.43-1.14-.78-2.29-1.11-3.44-.16-.57-.32-1.15-.47-1.72l-.22-.86c-.07-.29-.14-.58-.21-.86-.28-1.15-.53-2.31-.75-3.47-.11-.58-.2-1.16-.29-1.75-.1-.58-.18-1.17-.27-1.75s-.18-1.17-.28-1.75c-.09-.58-.21-1.16-.33-1.74l-.34-1.74-.09-.44-.09-.43-.18-.87-.36-1.73c-.12-.58-.24-1.16-.37-1.73l-.77-3.46c-.12-.58-.27-1.15-.41-1.73l-.42-1.72-.43-1.72c-.07-.29-.15-.57-.23-.86l-.23-.86-.94-3.42c-.32-1.14-.65-2.27-.97-3.41-.16-.57-.31-1.14-.47-1.71l-.11-.43-.12-.43-.24-.85c-.32-1.14-.62-2.28-.91-3.43l-.22-.86c-.08-.29-.15-.57-.23-.86-.15-.57-.28-1.15-.38-1.74-.1-.6-.16-1.2-.19-1.8-.01-.31-.01-.62,0-.93,0-.32,.04-.64,.09-.96h0c.02-.14,.13-.22,.26-.2l.14,.08h0"/><path class="ba" d="M574.18,204.54c-.13-.3-.24-.61-.32-.92-.09-.31-.16-.61-.22-.92-.11-.61-.19-1.22-.22-1.83-.02-.3-.03-.61-.03-.91,0-.3,.01-.6,.03-.91l.05-.91c.02-.3,.03-.6,.06-.91,.09-1.21,.18-2.41,.33-3.61,.06-.6,.13-1.2,.21-1.8,.03-.3,.08-.6,.12-.9l.13-.9,.26-1.79c.09-.6,.2-1.19,.3-1.78,.21-1.19,.4-2.38,.64-3.56,.24-1.18,.44-2.37,.67-3.55,.23-1.18,.47-2.36,.7-3.54,.06-.3,.11-.59,.17-.89l.19-.88,.38-1.77,.38-1.77c.03-.15,.06-.29,.1-.44l.1-.44,.21-.88,.83-3.52c.07-.29,.14-.59,.22-.88,.07-.29,.15-.59,.21-.88,.14-.59,.28-1.17,.41-1.76,.13-.59,.27-1.18,.41-1.76,.14-.59,.3-1.17,.47-1.75s.36-1.15,.55-1.72c.19-.57,.4-1.14,.6-1.71l.32-.85c.05-.14,.11-.28,.17-.42,.06-.14,.12-.28,.18-.42,.24-.56,.49-1.11,.75-1.66,.26-.55,.53-1.1,.81-1.64,.28-.54,.58-1.08,.9-1.6,.06-.1,.19-.13,.3-.07l.1,.2c-.19,2.41-.54,4.81-1.06,7.18-.12,.59-.24,1.17-.37,1.76-.13,.58-.27,1.16-.43,1.73-.32,1.15-.63,2.3-.96,3.44-.17,.57-.33,1.15-.49,1.72-.08,.29-.16,.58-.23,.86-.08,.29-.15,.58-.22,.87l-.82,3.48-.2,.87-.1,.44c-.03,.15-.06,.29-.09,.44l-.37,1.75-.37,1.75-.19,.87c-.06,.29-.11,.59-.17,.88-.96,4.68-1.6,9.4-2.23,14.12l-.24,1.77c-.08,.59-.15,1.18-.23,1.77l-.48,3.54c-.09,.59-.16,1.18-.24,1.77-.04,.29-.08,.59-.14,.88-.06,.29-.11,.59-.17,.88-.13,.59-.29,1.17-.49,1.75-.1,.29-.21,.58-.33,.87-.12,.3-.26,.59-.41,.87-.06,.11-.21,.15-.32,.09l-.1-.11h0"/><path class="v" d="M600.3,184.96c-5.13,2.08-13.07,1.64-18.48,.99-3.19-.39-5.46-3.29-5.07-6.48,.37-3.02,3-5.24,6.03-5.1,5.06,.24,12.66,.35,17.47-.72l.05,11.32"/><g class="aq"><path class="ap" d="M578.29,178.77c-.15,.44-.22,.91-.22,1.4,0,2.25,1.68,4.14,3.92,4.41,2.91,.35,5.63,.53,8.08,.53,1.61,0,3.11-.08,4.48-.23v-4.01c-1.44,.15-2.94,.22-4.43,.22-2.95,0-5.88-.25-8.3-.54-1.36-.16-2.61-.8-3.53-1.78"/></g><path class="ba" d="M590.1,187.85c-2.82-.02-5.64-.2-8.45-.55-3.94-.48-6.74-4.06-6.26-8,.45-3.73,3.7-6.47,7.45-6.3,7.46,.35,13.54,.1,17.11-.69,.72-.16,2.5-.16,3.55,3.22,1.07,3.44,.95,9.21-2.7,10.69-3.01,1.22-6.87,1.63-10.71,1.63h0m-7.59-12.13c-2.46,0-4.45,2-4.45,4.46,0,2.25,1.68,4.14,3.92,4.41,7.74,.94,14.07,.62,17.81-.9,1.11-.45,1.43-2.25,1.52-3.01,.3-2.64-.5-5.07-1.01-5.66-4.88,1.02-12.23,.95-17.58,.7h-.21"/><path class="v" d="M639.54,184.96c5.13,2.08,13.07,1.64,18.49,.99,3.19-.39,5.46-3.29,5.07-6.48-.37-3.02-3-5.24-6.03-5.1-5.06,.24-12.66,.35-17.47-.72l-.05,11.32"/><g class="av"><path class="ap" d="M642.89,180.48v4.04c1.95,.4,4.27,.6,6.9,.6,1.34,0,2.76-.05,4.25-.16,.15-1.39,.39-2.78,.7-4.12-1.6,.13-3.3,.21-5.01,.21-2.34,0-4.7-.16-6.85-.57"/></g><path class="ba" d="M649.74,187.85c-3.84,0-7.7-.41-10.71-1.63-3.65-1.48-3.77-7.25-2.7-10.69,1.05-3.38,2.84-3.38,3.55-3.22,3.58,.79,9.65,1.04,17.11,.69,3.96-.18,7.32,2.88,7.5,6.85,.17,3.75-2.58,7-6.3,7.45-2.8,.35-5.62,.53-8.45,.55h0m-10.2-12.82c-.5,.59-1.3,3.03-1.01,5.66,.09,.75,.41,2.56,1.52,3.01,3.74,1.52,10.07,1.83,17.81,.9,2.44-.3,4.18-2.52,3.88-4.96-.28-2.31-2.3-4.01-4.62-3.91-5.35,.25-12.7,.33-17.58-.7"/><path class="v" d="M641.53,169.91v18.13c-.01,3.37-2.74,6.11-6.12,6.12h-33.39c-3.37-.01-6.1-2.75-6.11-6.12v-18.13c.01-3.37,2.74-6.1,6.11-6.11h33.39c3.37,0,6.11,2.74,6.12,6.11"/><g class="as"><path class="ap" d="M639.8,168.09c-.66,4.15-.3,11.61-4.01,16.2-.09-.88-.39-1.69-.86-2.39-.95,1.41-2.56,2.35-4.39,2.35s-3.44-.93-4.39-2.35c-.48,.71-.78,1.55-.87,2.46v.09c-.17,2.9-2.56,5.17-5.47,5.18-8.29-.04-17.26-2.74-22.56-7.12v5.53c0,2.62,2.13,4.75,4.75,4.75h33.4c2.62,0,4.75-2.13,4.75-4.75v-18.13c0-.64-.13-1.26-.36-1.82"/></g><path class="ba" d="M635.41,195.52h-33.4c-4.13,0-7.47-3.35-7.48-7.48v-18.14c0-4.13,3.35-7.47,7.48-7.48h33.4c4.13,0,7.47,3.35,7.48,7.48v18.14c0,4.13-3.35,7.47-7.48,7.48h0m-33.4-30.37c-2.62,0-4.75,2.13-4.75,4.75v18.13c0,2.62,2.13,4.75,4.75,4.75h33.4c2.62,0,4.75-2.13,4.75-4.75v-18.13c0-2.62-2.13-4.75-4.75-4.75h-33.4"/><path class="af" d="M635.82,178.97c0,2.91-2.36,5.27-5.27,5.27s-5.27-2.36-5.27-5.27,2.36-5.27,5.27-5.27,5.27,2.36,5.27,5.27"/><g class="b`"><path class="v" d="M635.82,178.97c0,.36-.04,.71-.1,1.05h0c.07-.34,.1-.69,.1-1.05m0,0h0m-10.53-.45c-.01,.15-.02,.3-.02,.45,0,.35,.03,.71,.1,1.05h0c-.07-.35-.1-.7-.1-1.05v-.05h0c0-.14,0-.28,.02-.41m0-.02h0"/><path class="al" d="M625.27,178.92v.05c0,.36,.04,.71,.1,1.04h0c-.06-.32-.1-.66-.1-1v-.1m.1-.98h0m5.17-4.23c-2.55,0-4.68,1.81-5.17,4.23,.06-.3,.15-.59,.26-.87h0c.15,.38,.33,.73,.55,1.05,.76-1.11,1.93-1.91,3.3-2.2,.36-.07,.71-.11,1.07-.11,1.76,0,3.38,.88,4.36,2.3,.22-.32,.41-.68,.55-1.05h0c.24,.61,.36,1.25,.36,1.91h0c0,.36-.04,.71-.1,1.04h0c.07-.33,.1-.68,.1-1.04h0c0-2.9-2.36-5.26-5.26-5.26h-.01"/></g><g class="bi"><path class="ap" d="M625.29,178.5h0m.02-.2c0,.06-.02,.13-.02,.19,0-.04,0-.08,.01-.12v-.07"/><path class="bf" d="M634.9,178.11c-.59,.88-1.45,1.56-2.45,1.95-.63,.24-1.27,.36-1.91,.36-1.73,0-3.38-.86-4.36-2.31-.39,.56-.66,1.21-.81,1.9,.49,2.41,2.61,4.23,5.17,4.23s4.68-1.82,5.17-4.23c-.15-.7-.43-1.35-.81-1.9m-9.53-.16c-.02,.12-.04,.24-.06,.36v.07c0-.15,.03-.29,.06-.43m0-.01h0"/><path class="ap" d="M625.3,178.38s0,.08-.01,.12h0v.02c-.01,.13-.02,.26-.02,.39h0c0-.17,.01-.35,.03-.53"/><path class="aa" d="M625.63,177.06h0c-.11,.28-.2,.58-.26,.87h0c-.03,.15-.05,.3-.07,.44-.02,.18-.03,.36-.03,.54v.1c0,.34,.04,.67,.1,1,.14-.7,.42-1.34,.81-1.9-.22-.32-.4-.67-.55-1.05m9.82,0h0c-.14,.37-.33,.72-.55,1.05,.38,.56,.66,1.2,.81,1.9,.07-.34,.1-.69,.1-1.04h0c0-.65-.12-1.3-.36-1.91"/></g><path class="ba" d="M630.54,185.27c-3.48,0-6.3-2.82-6.3-6.3s2.82-6.3,6.3-6.3,6.3,2.82,6.3,6.3c0,3.48-2.82,6.29-6.3,6.3m0-10.55c-2.35,0-4.25,1.9-4.25,4.25,0,2.35,1.9,4.25,4.25,4.25,2.35,0,4.25-1.9,4.25-4.25h0c0-2.35-1.9-4.25-4.25-4.25"/><path class="ba" d="M615.6,195.18c-.56,0-1.02-.46-1.02-1.02v-12.42l-6.68-5.03v-12.92c0-.56,.45-1.02,1.02-1.03,.56,0,1.02,.45,1.03,1.02h0v11.91l6.68,5.03v13.44c0,.56-.46,1.02-1.02,1.02"/><path class="v" d="M619.37,203.92c5.9-.02,11.6-2.18,16.03-6.09,6.15-5.4,16.49-11.85,27.91-7.71,4.1,1.5,7.56,4.34,9.84,8.06,5.49-12.71,17-13.47,21.98-6.27,0,0-8.37,39.95-11.1,40.84-3.91,1.27-13.3-.07-13.3-.07,0,0-32.68-4.42-51.34-4.42s-51.34,4.42-51.34,4.42c0,0-9.39,1.34-13.3,.07-2.73-.89-11.1-40.84-11.1-40.84,4.98-7.21,16.49-6.44,21.98,6.27,2.27-3.72,5.74-6.57,9.84-8.06,11.42-4.13,21.77,2.31,27.91,7.71,4.42,3.91,10.12,6.08,16.02,6.09"/><g class="y"><path class="ap" d="M652.64,212.2c-.95,6.12-.13,11.89,2.47,17.23,8.97,.98,15.63,1.88,15.78,1.9h0c1.6,.23,5.06,.6,8.14,.6,.24,0,.47,0,.7,0-1.54-1.16-2.41-3.33-2.77-6.08v-.03c-.1-.76-.16-1.56-.19-2.4h-.12c-.62-.07-1.07-.61-1.02-1.23,.05-.58,.54-1.02,1.12-1.02h.02c.04-1.31,.15-2.68,.31-4.09-3.35-.14-6.4-.57-6.4-.57,0,0-7.85-2.13-18.06-4.3m-33.28-4.55c-18.66,0-51.34,8.85-51.34,8.85,0,0-3.05,.43-6.39,.57,.16,1.4,.27,2.78,.31,4.09h.02c.57,0,1.07,.44,1.12,1.02,.06,.62-.4,1.16-1.02,1.22h-.12c-.13,3.91-.98,7.04-2.96,8.52,.23,0,.46,0,.7,0,3.08,0,6.55-.37,8.14-.6h0c.33-.04,32.99-4.44,51.53-4.44,9.5,0,22.71,1.15,33.38,2.28-1.85-4.26-2.7-8.89-2.47-13.55,.07-1.29,.21-2.57,.4-3.85-10.23-2.11-22.38-4.14-31.31-4.14"/></g><path class="ba" d="M559.76,234.65c-1.84,.06-3.68-.15-5.46-.61-.96-.31-1.77-1.38-3.28-6.1-.89-2.76-1.95-6.61-3.16-11.44-2.18-8.69-4.31-18.43-5.12-22.22-.43-1.96,.21-4,1.7-5.35,2.82-2.53,6.7-3.53,10.39-2.67,2.51,.59,4.82,1.83,6.7,3.59,1.74,1.62,3.19,3.53,4.3,5.64,2.35-3.05,5.53-5.36,9.15-6.67,4.11-1.49,8.56-1.8,12.83-.88,3.81,.85,7.44,2.38,10.71,4.53,.64,.4,.82,1.25,.42,1.88-.4,.63-1.25,.82-1.88,.42-7.33-4.67-14.45-5.81-21.15-3.38-3.81,1.39-7.04,4.04-9.15,7.51-.4,.64-1.24,.83-1.88,.42-.23-.15-.41-.36-.52-.61-2.29-5.31-5.98-8.88-10.11-9.79-2.84-.66-5.82,.1-7.99,2.04-.75,.7-1.08,1.75-.85,2.75,.77,3.57,2.78,12.79,4.87,21.22,1.15,4.63,2.17,8.4,3.03,11.2,1.21,3.92,1.84,5.07,2.06,5.39,3.08,.86,10,.17,12.47-.18h0c.33-.04,32.99-4.44,51.53-4.44s51.2,4.39,51.53,4.44h0c2.47,.35,9.39,1.05,12.47,.18,.22-.31,.83-1.43,2-5.19,.84-2.71,1.84-6.36,2.96-10.86,2-8.01,3.92-16.73,4.89-21.21,.33-1.44-.22-2.94-1.4-3.84-2.24-1.65-5.11-2.16-7.78-1.38-4,1.08-7.42,4.52-9.65,9.68-.3,.69-1.1,1.01-1.79,.71-.25-.11-.46-.29-.61-.52-2.11-3.47-5.33-6.12-9.15-7.51-6.76-2.45-13.94-1.27-21.34,3.5-.63,.41-1.48,.23-1.88-.41-.41-.63-.23-1.48,.41-1.88,3.28-2.18,6.94-3.75,10.78-4.62,4.31-.95,8.81-.65,12.96,.86,3.62,1.3,6.8,3.62,9.15,6.67,2.56-4.76,6.2-7.95,10.41-9.09,3.47-.98,7.2-.31,10.11,1.82,2.04,1.53,3,4.11,2.45,6.6-1.02,4.75-3.05,13.95-5.14,22.21-1.18,4.68-2.22,8.42-3.09,11.09-1.48,4.56-2.27,5.6-3.22,5.91-4.14,1.35-13.44,.06-13.91-.01-.51-.07-32.86-4.41-51.16-4.41s-50.64,4.34-51.16,4.41c-2.8,.38-5.62,.59-8.45,.62h0"/><path class="ah" d="M681.58,232.74h2.43c2.85,0,5.43-1.67,6.59-4.27,3.63-8.14,10.26-26.01,4.05-36.92-.18-.32-.37-.62-.58-.92-.31-.44-5.96-5.42-10.24,2.25-4,7.16-12.39,37.78-2.26,39.87h0"/><g class="bg"><path class="v" d="M682.87,194.87c-.45,1.01-.86,2.05-1.22,3.1h0c.42-1.16,.83-2.2,1.22-3.1m5.22-6.02c-1.41,.44-2.9,1.6-4.25,4.02v0c1.35-2.42,2.83-3.58,4.25-4.02"/><path class="v" d="M696.27,195.38c.37,1.28,.63,2.62,.77,4-.12-1.36-.38-2.7-.77-4"/><path class="am" d="M690.74,188.77h-2.34c-.1,.03-.21,.05-.31,.09-1.41,.44-2.9,1.6-4.24,4.02v.02c-.35,.65-.67,1.31-.97,1.98-.39,.9-.8,1.94-1.22,3.09,.11-.17,.21-.33,.31-.48,2.18-3.18,4.71-4.11,6.93-4.11,3.14,0,5.65,1.86,5.65,1.86,.25,.29,.49,.6,.71,.92,.72,1.04,1.32,2.15,1.78,3.33h0v-.11c-.16-1.38-.41-2.72-.78-4-.4-1.33-.94-2.62-1.61-3.84-.18-.32-.37-.62-.58-.92-.15-.21-1.5-1.44-3.34-1.86"/></g><path class="ba" d="M697.02,200.31l-.19-.02-14.89-2.49c-.61-.11-1.01-.7-.9-1.31,.11-.6,.67-1,1.27-.91l14.89,2.49c.61,.1,1.03,.68,.92,1.29-.09,.54-.56,.94-1.11,.94"/><path class="ba" d="M696.92,208.36h-.15l-17.42-2.35c-.62-.08-1.05-.64-.98-1.25,.08-.62,.64-1.05,1.25-.98h.02l17.42,2.34c.62,.08,1.05,.65,.97,1.26-.07,.56-.55,.98-1.12,.98"/><path class="ba" d="M695.39,216.24h-.14l-17.68-2.17c-.62-.08-1.05-.64-.98-1.25,.08-.62,.64-1.05,1.25-.98l17.68,2.16c.62,.08,1.05,.64,.98,1.25-.07,.56-.55,.99-1.11,.99"/><path class="ba" d="M692.58,224.83h-.1l-15.81-1.43c-.62-.06-1.07-.6-1.02-1.22,.06-.62,.6-1.07,1.22-1.02l15.81,1.43c.62,.06,1.07,.6,1.02,1.22-.05,.58-.54,1.02-1.12,1.02"/><g class="bb"><path class="ap" d="M677.47,214.38h0c-.14,.9-.26,1.8-.36,2.68h0c.1-.88,.22-1.78,.36-2.68"/><path class="aj" d="M677.1,217.07c-.16,1.4-.27,2.78-.31,4.09h0c.04-1.31,.15-2.68,.31-4.09h0"/><path class="a`" d="M693.76,220.47c-.52,.79-1.16,1.47-1.88,2.04l.81,.07c.1,0,.2,.03,.3,.07,.26-.7,.52-1.43,.78-2.18h0m-16.29-6.09h0c-.14,.9-.26,1.8-.36,2.68-.16,1.4-.27,2.78-.31,4.09,.03,0,.05,0,.08,0l2.06,.19c-.99-1.78-1.43-4.2-1.46-6.96"/><path class="aj" d="M676.98,225.82v0m-.19-2.41c.03,.84,.09,1.64,.19,2.4-.1-.76-.16-1.56-.19-2.4h0"/><path class="ap" d="M689.05,230.7c-.86,.84-1.92,1.45-3.09,1.77h0c1.16-.32,2.23-.94,3.09-1.77"/><path class="ba" d="M685.96,232.48c-.62,.17-1.27,.27-1.94,.27h0c.67,0,1.32-.09,1.94-.26h0"/><path class="a`" d="M676.79,223.41c.03,.84,.09,1.64,.19,2.4v.03c.49,3.7,1.88,6.33,4.61,6.9h2.43c.67,0,1.32-.09,1.94-.26,1.16-.33,2.23-.94,3.09-1.77,.65-.63,1.18-1.38,1.56-2.23,.48-1.07,1-2.31,1.55-3.67l-4.74-.43c-.35,.04-.7,.06-1.05,.06-.09,0-.18,0-.27,0h-2.89c-.67-.12-1.27-.32-1.81-.6l-4.6-.41"/><path class="ba" d="M691.87,222.51c-1.28,1.01-2.82,1.66-4.46,1.85l4.74,.43c.27-.68,.55-1.4,.82-2.14-.09-.04-.19-.06-.3-.07l-.81-.07m-15.08-1.36c-.01,.34-.02,.69-.02,1.02v.35c0,.3,0,.59,.02,.88h0l4.6,.41c-1.05-.55-1.85-1.4-2.46-2.48l-2.06-.19s-.05,0-.08,0h0"/></g><path class="ba" d="M684.01,233.87h-2.43l-.23-.02c-2.01-.44-3.66-1.86-4.41-3.78-2.27-4.96-1.17-13.6,.16-19.98,1.62-7.79,4.12-14.83,5.75-17.76,1.5-2.69,3.39-4.24,5.62-4.6,3.42-.56,6.24,1.96,6.35,2.07l.17,.19c.23,.32,.44,.66,.63,1.01,2.84,4.99,3.44,11.81,1.79,20.27-1.28,6.08-3.22,12.01-5.79,17.67-1.34,3-4.33,4.94-7.62,4.94m-2.31-2.25h2.31c2.4,0,4.59-1.41,5.57-3.61,2.5-5.5,4.39-11.26,5.64-17.18,1.54-7.92,1.03-14.22-1.54-18.73-.14-.25-.29-.49-.44-.71-.42-.34-2.33-1.79-4.41-1.44-1.51,.25-2.86,1.42-4.01,3.48-1.51,2.71-3.96,9.63-5.51,17.12-1.78,8.55-1.89,15.15-.32,18.59,.45,1.22,1.46,2.15,2.72,2.49"/><path class="ah" d="M557.15,232.74h-2.43c-2.85,0-5.43-1.67-6.59-4.27-3.63-8.14-10.26-26.01-4.05-36.92,.18-.32,.37-.62,.58-.92,.31-.44,5.96-5.42,10.24,2.25,4,7.16,12.39,37.78,2.26,39.87h0"/><g class="bh"><path class="v" d="M555.89,194.94c.38,.88,.78,1.9,1.19,3.03h0c-.35-1.02-.75-2.04-1.19-3.03"/><path class="v" d="M542.49,195.32c-.41,1.33-.68,2.71-.8,4.11,.15-1.42,.41-2.79,.8-4.11"/><path class="am" d="M550.33,188.77h-2.34c-1.84,.42-3.19,1.65-3.34,1.86-.21,.29-.4,.6-.58,.92-.66,1.2-1.19,2.47-1.59,3.78-.39,1.32-.65,2.69-.8,4.11v.07h0c.46-1.18,1.06-2.29,1.78-3.33,.22-.32,.46-.62,.71-.92,0,0,2.51-1.86,5.65-1.86,2.22,0,4.76,.93,6.93,4.11,.1,.15,.21,.31,.32,.48-.41-1.13-.81-2.15-1.19-3.03-.31-.7-.65-1.39-1-2.07-1.45-2.6-3.06-3.74-4.56-4.11"/></g><path class="ba" d="M541.71,200.31c-.62,0-1.12-.5-1.12-1.12,0-.55,.4-1.02,.94-1.11l14.89-2.49c.61-.09,1.19,.33,1.28,.94,.09,.6-.31,1.17-.91,1.27l-14.89,2.49-.19,.02"/><path class="ba" d="M541.81,208.36c-.62,0-1.13-.5-1.13-1.12,0-.56,.42-1.04,.98-1.12l17.42-2.34c.62-.08,1.18,.36,1.25,.98,.08,.61-.35,1.16-.95,1.25l-17.42,2.34h-.15"/><path class="ba" d="M543.35,216.24c-.62,0-1.12-.5-1.12-1.13,0-.57,.42-1.05,.99-1.11l17.68-2.16c.62-.08,1.18,.36,1.25,.98,.08,.62-.36,1.18-.98,1.25l-17.68,2.16h-.14"/><path class="ba" d="M546.15,224.83c-.62,0-1.12-.5-1.12-1.12,0-.58,.44-1.07,1.02-1.12l15.81-1.43c.62-.06,1.16,.4,1.22,1.02,.06,.62-.4,1.16-1.02,1.22l-15.81,1.43h-.1"/><g class="w"><path class="a`" d="M561.26,214.38h0c-.03,2.76-.47,5.18-1.46,6.96l2.06-.19s.05,0,.08,0c-.07-2.14-.31-4.44-.68-6.77"/><path class="ap" d="M544.98,220.48h0c.26,.75,.51,1.48,.77,2.18h0c-.26-.7-.52-1.43-.78-2.18h0"/><path class="a`" d="M544.98,220.48c.26,.75,.52,1.47,.78,2.18,.09-.04,.19-.06,.3-.07l.81-.07c-.72-.57-1.36-1.25-1.88-2.04"/><path class="ap" d="M546.58,224.8h0c.54,1.37,1.07,2.6,1.55,3.67,.89,1.99,2.61,3.44,4.65,4.01h0c-2.04-.57-3.76-2.02-4.65-4.01-.48-1.07-1.01-2.31-1.55-3.67"/><path class="ba" d="M552.77,232.48h0c.62,.18,1.27,.27,1.94,.27h0c-.67,0-1.32-.09-1.94-.27"/><path class="a`" d="M561.94,223.41l-4.6,.41c-.54,.28-1.14,.49-1.81,.6h-2.89c-.09,0-.18,0-.27,0-.35,0-.7-.02-1.05-.06l-4.74,.43c.54,1.37,1.07,2.6,1.55,3.67,.89,1.99,2.61,3.44,4.65,4.01,.62,.17,1.28,.27,1.94,.27h2.43c3.3-.68,4.63-4.39,4.8-9.33"/><path class="ba" d="M546.86,222.51l-.81,.07c-.1,0-.2,.03-.3,.07h0c.28,.74,.55,1.46,.82,2.14h0l4.74-.43c-1.64-.19-3.18-.84-4.46-1.85m15.08-1.36s-.05,0-.08,0l-2.06,.19c-.6,1.08-1.41,1.93-2.46,2.48l4.6-.41c.02-.73,.02-1.48,0-2.25"/></g><path class="ba" d="M557.14,233.87h-2.43c-3.29,0-6.27-1.94-7.62-4.94-2.57-5.66-4.51-11.58-5.79-17.66-1.65-8.46-1.05-15.28,1.79-20.27,.2-.35,.41-.69,.63-1.01l.17-.19c.12-.11,2.94-2.63,6.35-2.07,2.23,.36,4.12,1.91,5.62,4.6,1.63,2.92,4.13,9.96,5.75,17.76,1.33,6.38,2.43,15.02,.16,19.98-.74,1.92-2.4,3.34-4.41,3.78l-.23,.02m-11.65-42.48c-.15,.23-.3,.47-.44,.71-2.56,4.51-3.08,10.81-1.54,18.73,1.25,5.92,3.14,11.68,5.64,17.18,.98,2.2,3.16,3.61,5.57,3.61h2.3c1.26-.34,2.27-1.27,2.72-2.49,1.57-3.44,1.46-10.04-.32-18.59-1.56-7.49-4-14.41-5.51-17.12-1.15-2.05-2.5-3.22-4.01-3.48-2.07-.34-3.98,1.09-4.41,1.44"/><path class="ba" d="M584.55,231.72c-.56,0-1.02-.46-1.02-1.02,0-.16,.04-.33,.12-.47,4.27-8.15,4.33-17.32,.19-27.26-1.92-4.57-4.49-8.84-7.65-12.67-.37-.43-.33-1.07,.1-1.44,.42-.37,1.06-.33,1.43,.09,3.3,3.97,5.99,8.41,7.98,13.18,1.85,4.28,2.93,8.86,3.19,13.51,.27,5.39-.92,10.76-3.43,15.54-.18,.34-.52,.55-.91,.55"/><path class="ba" d="M654.6,231.72c-.38,0-.73-.21-.91-.55-2.51-4.78-3.7-10.14-3.43-15.54,.26-4.66,1.34-9.23,3.19-13.51,1.99-4.76,4.68-9.2,7.97-13.18,.38-.42,1.02-.46,1.44-.08,.42,.37,.46,1.01,.09,1.43-3.15,3.83-5.73,8.09-7.65,12.67-4.14,9.93-4.08,19.1,.19,27.26,.26,.5,.07,1.12-.43,1.38-.15,.08-.31,.12-.47,.12h0"/><g class="an"><path class="ap" d="M650.33,132.32c-.71,.53-1.42,1.04-2.15,1.53,.46,1.17,.91,2.34,1.34,3.51h0c.97-.9,1.9-1.84,2.8-2.81-.68-.79-1.34-1.53-1.99-2.22"/><path class="ba" d="M651.42,131.49c-.36,.28-.72,.56-1.08,.83,.64,.69,1.31,1.43,1.99,2.22,.31-.34,.61-.68,.91-1.02h0c-.61-.71-1.22-1.39-1.81-2.03"/><path class="ap" d="M587.47,132.8c-.66,.22-1.3,.43-1.94,.63,1.17,1.34,2.41,2.62,3.7,3.84h0c.32-.86,.65-1.73,.99-2.6-.94-.6-1.86-1.22-2.76-1.87"/><path class="ba" d="M586.14,131.81c-.52,.17-1.04,.34-1.57,.5h0c.31,.38,.63,.76,.96,1.13,.63-.2,1.28-.41,1.94-.63-.45-.32-.89-.66-1.33-.99"/><path class="ap" d="M648.18,133.85c-8.15,5.48-17.72,8.63-27.69,8.98-.65,.02-1.31,.04-1.96,.04h0c-10.41,0-20.11-3.01-28.3-8.19-.34,.87-.67,1.74-.99,2.6,3.25,3.06,6.9,5.65,10.86,7.69,6.06,3.14,12.69,4.71,19.32,4.71s13.83-1.71,20.08-5.12c3.64-1.96,7-4.38,10.02-7.21h0c-.43-1.17-.88-2.33-1.34-3.51"/></g><path class="v" d="M669.94,100.62c-.58,.06-1.09-.35-1.16-.93h0l-3.23-30.08c-.06-.58,.35-1.09,.93-1.16h0c6.05-.65,11.48,3.73,12.13,9.78l1.1,10.26c.65,6.05-3.73,11.48-9.78,12.13h0"/><path class="ba" d="M669.83,100.89c-.67,0-1.23-.51-1.3-1.17l-3.23-30.08c-.08-.72,.44-1.36,1.16-1.44,6.19-.66,11.75,3.82,12.42,10.01l1.1,10.26c.67,6.19-3.82,11.75-10.01,12.42l-.03-.26,.03,.26h-.14m-2.16-32.23c-.39,0-.77,.02-1.16,.06-.43,.05-.75,.44-.7,.87l3.23,30.08c.05,.43,.44,.75,.87,.7h0c5.91-.64,10.18-5.94,9.55-11.85l-1.1-10.26c-.59-5.46-5.2-9.6-10.69-9.61h0"/><g class="ae"><path class="ap" d="M678.07,86.6c-1.4,2.48-3.72,4.34-6.49,5.15-.09,2.43-.34,4.86-.76,7.26,4.73-1.04,7.99-5.49,7.46-10.38l-.22-2.04"/></g><path class="ba" d="M669.82,102.07c-1.27,0-2.34-.96-2.47-2.23l-3.23-30.08c-.15-1.37,.84-2.59,2.21-2.74h0c6.84-.73,12.98,4.22,13.72,11.06l1.1,10.26c.74,6.84-4.21,12.98-11.06,13.72h0c-.09,0-.18,.01-.27,.01h0m-2.8-32.22l3.15,29.29c5.08-.76,8.66-5.39,8.11-10.5l-1.1-10.26c-.55-5.1-5.03-8.87-10.16-8.53h0"/><path class="v" d="M567.2,79.12c.58-.06,1.09,.36,1.16,.93l3.23,30.08c.06,.58-.36,1.09-.93,1.16-6.05,.65-11.48-3.73-12.13-9.78l-1.1-10.26c-.65-6.05,3.73-11.48,9.78-12.13"/><path class="ba" d="M569.47,111.61c-5.76-.01-10.58-4.35-11.2-10.07l-1.1-10.26c-.66-6.19,3.82-11.75,10.01-12.42l.03,.26-.03-.26c.72-.08,1.36,.44,1.44,1.16l3.23,30.08c.08,.72-.44,1.36-1.16,1.44-.4,.04-.81,.07-1.21,.07h0m-2.16-32.24h-.09c-5.9,.65-10.18,5.95-9.55,11.85l1.1,10.26c.64,5.9,5.94,10.18,11.85,9.55,.43-.05,.75-.44,.7-.87l-3.23-30.08c-.04-.4-.38-.71-.79-.71h0"/><g class="ak"><path class="ap" d="M559.74,99.37l.21,1.99c.53,4.89,4.67,8.55,9.52,8.55-.96-2.36-1.76-4.8-2.38-7.31-2.78-.12-5.41-1.28-7.35-3.24"/></g><path class="ba" d="M569.47,112.8c-6.36-.01-11.69-4.81-12.38-11.13l-1.1-10.26c-.73-6.84,4.22-12.98,11.06-13.72,1.37-.15,2.59,.84,2.74,2.21l3.23,30.08c.15,1.37-.84,2.6-2.21,2.74-.45,.05-.89,.07-1.34,.08h0m-2.5-32.19c-5.08,.76-8.65,5.39-8.11,10.5l1.1,10.26c.55,5.1,5.03,8.87,10.16,8.53l-3.15-29.29"/><path class="v" d="M670.1,88.01c1.03,28.45-21.21,52.35-49.66,53.38-28.45,1.03-52.35-21.21-53.38-49.66-1.03-28.45,21.21-52.35,49.66-53.38,28.45-1.03,52.35,21.21,53.38,49.66h0"/><path class="ba" d="M618.52,141.68c-28.62-.05-51.79-23.29-51.74-51.91,.03-20.11,11.7-38.38,29.92-46.88,25.95-12.08,56.78-.84,68.86,25.11,12.08,25.95,.84,56.78-25.11,68.86-6.28,2.93-13.08,4.56-20.01,4.8-.64,.02-1.28,.03-1.92,.03h0m.08-103.11c-.62,0-1.25,.01-1.87,.03-28.31,1.04-50.42,24.83-49.38,53.15,1.01,27.55,23.61,49.37,51.18,49.41,.63,0,1.26-.01,1.9-.03,28.31-1.02,50.44-24.8,49.42-53.11-.99-27.59-23.64-49.44-51.24-49.45h0"/><g class="ay"><path class="ap" d="M652.87,126.4c-1.38,.83-2.83,1.63-4.35,2.39-8.69,4.34-18.16,6.89-27.85,7.5-1.15,.07-2.29,.1-3.41,.1h-.07c-8.22-.07-16.35-1.64-24-4.63-1.88-.73-3.7-1.53-5.41-2.37,8.5,6.63,19.18,10.58,30.76,10.59,.62,0,1.23-.01,1.85-.03,12.61-.46,23.96-5.54,32.48-13.55"/></g><path class="ba" d="M618.52,142.87c-29.26,0-52.97-23.73-52.97-52.99,0-13.4,5.08-26.3,14.22-36.1,19.93-21.45,53.47-22.68,74.92-2.75,21.45,19.93,22.68,53.47,2.75,74.92-9.59,10.32-22.88,16.39-36.95,16.89-.65,.02-1.31,.04-1.96,.04h0m.08-103.11c-.61,0-1.22,.01-1.83,.03-27.66,1.01-49.26,24.24-48.26,51.9,.98,26.93,23.08,48.26,50.02,48.29,.62,0,1.23-.01,1.85-.03,27.66-1.01,49.26-24.25,48.26-51.9-.98-26.93-23.09-48.27-50.04-48.29h0"/><path class="ba" d="M669.98,89.34c.49,9.77-2.12,19.44-7.47,27.62-3.9,6.02-20.61,17.05-41.89,18.34-19.73,1.19-38.22-8.42-42.71-14-6.16-7.6-9.75-16.95-10.26-26.71-1.37-26.66,20.98-38.89,49.24-40.34,28.26-1.45,51.73,8.43,53.1,35.09h0"/><path class="ba" d="M617.19,136.39c-8.22-.07-16.35-1.64-24-4.63-7.17-2.77-13.47-6.63-16.06-9.85-6.29-7.76-9.96-17.31-10.47-27.28-.43-6.12,.68-12.25,3.24-17.82,2.45-5.04,6.12-9.39,10.67-12.65,8.66-6.36,21.2-10.13,36.26-10.9,15.06-.77,27.92,1.7,37.19,7.14,4.87,2.78,8.96,6.73,11.91,11.49,3.11,5.29,4.84,11.27,5.04,17.4,.51,9.97-2.17,19.85-7.63,28.21-2.29,3.53-7.96,7.86-14.82,11.29-8.69,4.34-18.16,6.89-27.85,7.5-1.18,.07-2.34,.11-3.48,.1h0m4.95-81.29c-1.71,0-3.44,.05-5.22,.14-14.67,.75-26.84,4.39-35.19,10.52-9.32,6.85-13.73,16.53-13.11,28.77,.49,9.56,4.01,18.71,10.04,26.14,1.81,2.25,6.88,6.02,15.23,9.24,8.48,3.33,17.56,4.83,26.66,4.4,9.42-.59,18.63-3.07,27.08-7.29,7.84-3.93,12.47-8.17,14.04-10.6,5.24-8.01,7.8-17.47,7.32-27.03-.63-12.25-6-21.43-15.98-27.29-7.85-4.61-18.45-7.01-30.87-7.01h0"/><g class="bc"><path class="aw" d="M653.71,77.48c-3.39,0-6.49,3.53-7.1,8.24-.64,5,1.77,9.43,5.39,9.89,.21,.03,.42,.04,.62,.04,2.37,0,4.61-1.73,5.94-4.39,.53-2.2,.93-4.43,1.2-6.67-.38-3.75-2.52-6.7-5.43-7.07-.21-.03-.41-.04-.62-.04"/></g><g class="be"><path class="aw" d="M646.28,100.88c-1.65,0-3.22,1.29-3.75,3.2-.61,2.23,.45,4.46,2.36,4.99,.26,.07,.52,.11,.78,.11h.1c1.63-.02,3.18-1.31,3.7-3.2,.11-.39,.16-.78,.17-1.15v-.24c-.04-1.7-1.02-3.18-2.53-3.6-.27-.07-.55-.11-.82-.11"/></g><g class="bd"><polyline class="au" points="658.76 64.98 658.75 64.98 658.76 64.98 658.76 64.98"/><path class="au" d="M659.12,66.63c.53,2.62,.87,5.28,.99,7.95,.17,3.36,.05,6.71-.35,10.01,.09,.9,.08,1.85-.04,2.82-.18,1.41-.59,2.72-1.16,3.85-1.56,6.49-4.23,12.71-7.93,18.37-4.66,7.2-23.77,20.05-48.56,22.87,5.04,1.24,10.22,1.87,15.42,1.87,1.02,0,2.04-.02,3.06-.07,9.42-.59,18.63-3.07,27.08-7.29,7.84-3.93,12.47-8.17,14.04-10.6,5.24-8.01,7.8-17.47,7.32-27.03-.48-9.45-3.79-17.07-9.86-22.76"/><path class="au" d="M658.76,64.98c.13,.55,.25,1.1,.36,1.65,6.07,5.68,9.38,13.3,9.86,22.76,.48,9.56-2.08,19.02-7.32,27.03-1.57,2.43-6.2,6.67-14.04,10.6-8.45,4.22-17.65,6.7-27.08,7.29-1.02,.05-2.04,.07-3.06,.07-5.2,0-10.38-.63-15.42-1.87-.91,.1-1.83,.19-2.75,.27,5.86,1.73,11.92,2.61,18.02,2.61,1.09,0,2.19-.03,3.28-.08,21.28-1.28,38-12.32,41.89-18.34,5.35-8.19,7.96-17.86,7.47-27.62-.55-10.71-4.66-18.71-11.22-24.36"/><path class="ag" d="M659.76,84.6c-.27,2.25-.67,4.48-1.2,6.67,.57-1.14,.98-2.44,1.16-3.85,.12-.97,.13-1.92,.04-2.82"/></g><path class="ba" d="M570.34,73.04c-.77,0-1.39-.62-1.39-1.39,0-.27,.08-.54,.23-.76,2.2-3.58,4.94-6.8,8.12-9.55,3.31-2.84,6.99-5.24,10.93-7.12,4.21-2.01,8.62-3.56,13.16-4.62,4.88-1.14,9.85-1.84,14.86-2.08,4.95-.27,9.91-.09,14.83,.52,4.61,.57,9.15,1.62,13.54,3.13,4.12,1.41,8.04,3.35,11.67,5.75,3.45,2.29,6.53,5.1,9.13,8.33,.51,.57,.46,1.45-.11,1.96-.49,.44-1.23,.47-1.76,.07l-.15-.11-.11-.14c-9.28-11.7-26.37-17.8-46.9-16.75-20.64,1.06-36.99,9.1-44.86,22.07l-.04,.06-.05,.06c-.26,.35-.67,.55-1.11,.55h0"/><g class="ar"><path class="aw" d="M579.95,109.85h0m35.51-48.42h-.21c-5.71,.03-20.57,2.54-31.27,11.33-13.56,11.14-4.14,36.8-4.03,37.08,.03-.17,1.39-9.06,7.44-23.04,7.92-18.3,30.22-24.92,30.22-24.92,.08-.27-.71-.45-2.15-.46"/></g><path class="ba" d="M674.22,198.48c-.03,.23-.08,.47-.12,.71-.04,.23-.1,.47-.15,.71-.1,.47-.22,.94-.34,1.41-.24,.94-.52,1.86-.78,2.79-.26,.93-.52,1.87-.76,2.81l-.18,.71c-.06,.24-.12,.47-.18,.71l-.09,.36-.04,.18-.04,.18c-.05,.24-.11,.48-.17,.73h0l-.2,.13-.12-.13c-.1-.5-.18-1-.23-1.5l-.04-.38c-.01-.13-.02-.25-.02-.38-.01-.25-.03-.5-.03-.75-.02-1.01,.01-2.01,.1-3.02,.08-1,.21-1.99,.4-2.98,.1-.49,.21-.98,.34-1.46,.07-.24,.14-.48,.22-.72,.08-.24,.16-.47,.27-.72,.24-.58,.9-.85,1.48-.61,.47,.2,.75,.69,.69,1.19v.02"/><path class="ba" d="M566.77,197.86c.1,.25,.19,.48,.27,.72,.08,.24,.15,.48,.22,.72,.13,.48,.25,.97,.34,1.46,.19,.98,.32,1.98,.4,2.98,.08,1,.11,2.01,.1,3.02,0,.25-.02,.51-.03,.75,0,.13-.01,.25-.02,.38l-.04,.38c-.05,.5-.12,1-.23,1.5l-.19,.13-.13-.12h0c-.06-.25-.12-.49-.17-.73l-.04-.18-.04-.18-.09-.36c-.06-.24-.11-.48-.18-.71l-.18-.71c-.25-.94-.5-1.88-.76-2.81-.26-.93-.54-1.86-.78-2.79-.12-.47-.24-.94-.34-1.41-.05-.24-.1-.47-.15-.71-.04-.24-.09-.48-.12-.71v-.03c-.09-.62,.35-1.19,.97-1.27,.51-.07,1,.21,1.19,.69"/><path class="ba" d="M628.28,187.05c-1.16-1.51-3.32-1.79-4.83-.63-1.51,1.16-1.79,3.32-.63,4.83,1.16,1.51,3.32,1.79,4.83,.63h0c1.5-1.17,1.78-3.33,.62-4.83m-1.65,3.55c-.81,.59-1.95,.42-2.54-.39s-.42-1.95,.39-2.54c.8-.59,1.92-.42,2.52,.37,.61,.81,.44,1.95-.37,2.56h0"/><path class="v" d="M675.52,170.09s-7.36-3.49-14.27-.36c-6.62,3-11.3,24.35-2.73,29.76,3.29,2.08,5.93,1.72,8.18,1.36,1.36-.22,2.58-.43,3.71-.11,4.44,1.28,13.55-20.7,5.11-30.66"/><g class="ai"><path class="ap" d="M678.84,183.99c-.17,1.79-.5,3.57-.94,5.26h0c.44-1.69,.77-3.47,.94-5.26h0"/><path class="ba" d="M677.9,189.25h0c-.91,3.51-2.28,6.65-3.71,8.77h0c1.43-2.12,2.8-5.26,3.71-8.77"/><path class="ba" d="M671.54,200.64h0m2.66-2.62c-.9,1.33-1.81,2.26-2.65,2.62,.84-.36,1.76-1.29,2.65-2.62h0"/><path class="ap" d="M678.84,183.99c-1.53,5.28-4.63,9.43-8.42,10.09-1.59,.28-3.31,.83-5.33,.83-1.87,0-4.01-.47-6.56-2.08-2.58-1.62-3.96-4.69-4.44-8.26-.72,6.13,.35,12.35,4.44,14.93,2.03,1.28,3.81,1.64,5.41,1.64,.99,0,1.91-.14,2.77-.27,.86-.14,1.66-.27,2.42-.27,.44,0,.87,.05,1.29,.17,.13,.04,.25,.05,.39,.05,.23,0,.48-.06,.73-.16h.01c.84-.37,1.76-1.29,2.65-2.62,1.43-2.12,2.8-5.26,3.71-8.77,.44-1.69,.77-3.47,.94-5.26h0"/></g><path class="ba" d="M663.96,202.49c-2.19,0-4.33-.64-6.15-1.84-2.19-1.48-3.76-3.7-4.42-6.25-.77-2.74-1.04-5.59-.79-8.43,.25-3.68,1.11-7.29,2.56-10.68,1.07-2.44,2.9-5.59,5.55-6.8,7.4-3.35,15.09,.22,15.41,.37l.27,.13,.19,.23c3.86,4.56,4.09,10.85,3.59,15.33-.56,5.04-2.34,10.4-4.65,13.97-2.31,3.57-4.25,3.91-5.47,3.55-.98-.16-1.98-.12-2.95,.12-1.04,.19-2.08,.3-3.14,.31m3.6-32.7c-1.97-.02-3.93,.38-5.73,1.19-1.43,.65-2.96,2.62-4.18,5.41-1.31,3.11-2.1,6.41-2.34,9.77-.41,5.9,1.03,10.35,3.95,12.19,2.94,1.86,5.21,1.49,7.4,1.14,1.36-.33,2.77-.34,4.13-.04,.16,.03,1.29-.41,2.89-3.18,3.73-6.46,6.1-18.66,.99-25.05-1.29-.52-2.64-.91-4.01-1.14-1.03-.18-2.07-.28-3.11-.28"/><text class="ab" transform="translate(102.96 187.2)"><tspan x="0" y="0">Pink</tspan></text><text class="ad" transform="translate(285.96 186.64)"><tspan class="at" x="0" y="0">P</tspan><tspan class="x" x="53.91" y="0">anda</tspan></text><text class="ac" transform="translate(335.96 216.58)"><tspan x="0" y="0">Ltd Liability Co</tspan></text></svg>