<?xml version="1.0" encoding="utf-8"?>
<!-- Generator: Adobe Illustrator 26.2.1, SVG Export Plug-In . SVG Version: 6.00 Build 0)  -->
<svg version="1.1" id="Layer_1" xmlns="http://www.w3.org/2000/svg" xmlns:xlink="http://www.w3.org/1999/xlink" x="0px" y="0px"
	 viewBox="0 0 1366 768" style="enable-background:new 0 0 1366 768;" xml:space="preserve">
<style type="text/css">
	.st0{fill:none;stroke:#FFE9F5;stroke-width:16;stroke-linecap:round;stroke-linejoin:round;}
	.st1{fill:none;stroke:#FF9ED5;stroke-width:10;stroke-miterlimit:10;}
	.st2{fill:none;stroke:#FF9ED5;stroke-width:5;stroke-miterlimit:10;}
	.st3{fill:#FF9ED5;}
</style>
<g>
	<line class="st0" x1="900" y1="409" x2="1138" y2="409"/>
	<line class="st0" x1="180" y1="409" x2="418" y2="409"/>
</g>
<g>
	<line class="st0" x1="900" y1="449" x2="1138" y2="449"/>
	<line class="st0" x1="180" y1="449" x2="418" y2="449"/>
</g>
<g>
	<g>
		<line class="st1" x1="669.8" y1="441.3" x2="648.2" y2="441.3"/>
		<path class="st1" d="M655.6,303c-12.9,10.3-55.9,51.5-18.3,116.6h43.3c36.8-65.1-5.6-106.2-18.3-116.6
			C660.4,301.4,657.6,301.4,655.6,303z"/>
		<path class="st1" d="M622.4,365.1l-21.3,25.5c-1.1,1.3-1.5,3-1.1,4.6l8.3,37.7c0.7,2.9,3.6,4.8,6.5,4.1c0.8-0.2,1.6-0.5,2.2-1.1
			l20.3-16.3"/>
		<path class="st1" d="M695.2,364.5l21.7,26c1.1,1.3,1.5,3,1.1,4.6l-8.3,37.7c-0.7,2.9-3.6,4.8-6.5,4.1c-0.8-0.2-1.6-0.5-2.2-1.1
			l-20.3-16.3"/>
		<ellipse class="st2" cx="657.4" cy="353.1" rx="6.6" ry="6.6"/>
	</g>
	<path class="st3" d="M667.7,497.2L667.7,497.2L667.7,497.2L667.7,497.2z M642.3,497.7c0.2,0.2,0.4,0.3,0.6,0.4
		c1.2,0.7,2.8,0.3,3.5-0.9c0,0,0.1-0.1,0.1-0.1c0.9-1.7,2.1-3.3,3.6-4.5c-0.2,1.3-0.3,2.6-0.3,3.9c0,8,4.3,15.4,11.3,19.4
		c1.2,0.7,2.8,0.3,3.5-1c0.2-0.3,0.3-0.7,0.3-1.1c0.3-4.9,2.6-9.5,6.3-12.6l0.6-0.5c1.9-1.3,3.7-2.9,5.1-4.8
		c7.9-9.9,6.2-24.4-3.7-32.3c-1.7-1.4-3.6-2.5-5.6-3.3c-1.3-0.5-2.8,0.1-3.3,1.4c-0.1,0.3-0.2,0.6-0.2,1c0,0.3,0,0.5,0.1,0.8
		c0.6,2.2,0.7,4.4,0.5,6.6c-2.4-4.6-6.3-8.2-11-10.3c-0.6-0.3-1.2-0.3-1.8-0.1c-12.1,3.9-18.7,16.9-14.8,29
		C637.9,492.1,639.7,495.2,642.3,497.7z M652.3,464.9c4.5,2.3,7.8,6.4,9.2,11.3c0.2,0.8,0.4,1.6,0.5,2.5c0.1,1.1,1,2,2,2.2
		c0.2,0,0.3,0,0.5,0c0.9,0,1.8-0.5,2.2-1.3c2.1-3.7,3.2-7.8,3.1-12.1c7.8,6.1,9.2,17.3,3.1,25.1c0,0.1-0.1,0.1-0.1,0.2
		c-1.1,1.5-2.5,2.7-4,3.7c-0.1,0-0.1,0.1-0.2,0.1c0,0-0.8,0.6-0.8,0.6c-3.6,3.1-6.2,7.2-7.4,11.9c-5.7-5.3-7.2-13.8-3.5-20.7
		c0.7-1.3,0.2-2.8-1.1-3.5c-0.6-0.3-1.3-0.4-1.9-0.2c-3.9,1.2-7.4,3.6-9.9,6.9c-5.5-8.2-3.4-19.3,4.8-24.9
		C649.8,466,651,465.4,652.3,464.9L652.3,464.9z"/>
</g>
</svg>
