<?xml version="1.0" encoding="UTF-8"?><svg id="a" xmlns="http://www.w3.org/2000/svg" xmlns:xlink="http://www.w3.org/1999/xlink" viewBox="0 0 974 433"><defs><style>.ap{fill:#fff;}.aq,.ar{stroke-miterlimit:10;}.aq,.ar,.as,.at,.au{fill:none;}.aq,.ar,.as,.au{stroke:#c8c8c8;}.ar{stroke-width:.5px;}.av{clip-path:url(#n);}.aw{fill:#333;}.ax{fill:#e6e6e6;}.as{stroke-linejoin:round;}.ay{clip-path:url(#b);}.b`{fill:#c8c8c8;}.au{stroke-miterlimit:10;stroke-width:.5px;}.ba{fill:#666;}</style><clipPath id="b"><rect class="at" width="974" height="433"/></clipPath><clipPath id="n"><rect class="at" width="974" height="433"/></clipPath></defs><g class="ay"><g id="c"><rect id="d" class="ba" x="183.63" y=".65" width="506.72" height="354.05" rx="15" ry="15"/><rect id="e" class="aq" x="183.63" y=".65" width="506.72" height="354.05" rx="15" ry="15"/><path id="f" class="ba" d="M500.44,410.8c-3.21-3.86-6.57-33.73-8.92-56.11h-108.06c-2.35,22.38-5.7,52.24-8.92,56.11-6.21,7.46-17.18,9.58-17.18,12.4,0,1.98,.42,3.88,4.06,5.19h152.13c3.64-1.32,4.06-3.21,4.06-5.19,0-2.82-10.97-4.94-17.18-12.4"/><path id="g" class="aq" d="M500.44,410.8c-3.21-3.86-6.57-33.73-8.92-56.11h-108.06c-2.35,22.38-5.7,52.24-8.92,56.11-6.21,7.46-17.18,9.58-17.18,12.4,0,1.98,.42,3.88,4.06,5.19h152.13c3.64-1.32,4.06-3.21,4.06-5.19,0-2.82-10.98-4.93-17.18-12.4Z"/><rect id="h" class="ax" x="205" y="22" width="465" height="284"/><path id="i" class="ar" d="M440.31,11.06c0,1.56-1.27,2.82-2.82,2.82s-2.82-1.27-2.82-2.82c0-1.56,1.26-2.82,2.82-2.82,1.56,0,2.82,1.26,2.82,2.82h0Z"/><path id="j" class="b`" d="M438.68,11.06c0,.66-.54,1.19-1.19,1.19s-1.19-.54-1.19-1.19c0-.66,.53-1.19,1.19-1.19,.66,0,1.19,.53,1.19,1.19"/><path id="k" class="aw" d="M442.44,316.02s-4.36,.55-4.17,4.8c4.3-.15,4.23-4.61,4.17-4.8"/><path id="l" class="aw" d="M443.56,326.89c0-1.6,.96-3.06,2.48-3.77-.41-.62-.93-1.18-1.52-1.65-2.84-1.44-4.99,.41-6.22,.47s-.01,0-.01,0c-2.36,0-3.28-1.85-6.12-.41-1.9,1.3-3.02,3.4-2.98,5.63,.14,2.98,1.48,5.8,3.75,7.87,1.54,1.78,4.23-.18,5.35-.18h.02c0,.07,0,.14,.01,.22,1.11,0,3.8,1.87,5.34,.09,1.3-1.22,2.31-2.69,2.96-4.32-1.81-.54-3.05-2.14-3.05-3.94"/></g></g><g id="m" transform="translate(0.355 -0.034)"><g class="av"><g id="o"><path id="p" class="ba" d="M912.78,412.61V181.89c0-6.23-3.06-11.45-9.29-11.45h-335.55c-6.23,0-11.84,5.22-11.84,11.45v230.72h356.68Z"/><path id="q" class="aq" d="M912.78,412.61V181.89c0-6.23-3.06-11.45-9.29-11.45h-335.55c-6.23,0-11.84,5.22-11.84,11.45v230.72h356.68Z"/><rect id="r" class="ba" x="491.61" y="412.61" width="481.71" height="11.85"/><rect id="s" class="aq" x="491.61" y="412.61" width="481.71" height="11.85"/><path id="t" class="ba" d="M944.4,432.35h-423.48l-28.77-7.9h481.03l-28.77,7.9Z"/><path id="u" class="as" d="M944.4,432.35h-423.48l-28.77-7.9h481.03l-28.77,7.9Z"/><rect id="v" class="ax" x="569" y="185" width="334" height="212"/><path id="w" class="b`" d="M702.06,413.27c.42,1.32,3.62,5.27,7.47,5.27h52.67c3.85,0,7.05-3.95,7.47-5.27h-67.61Z"/><path id="x" class="ar" d="M738.69,179.57c0,1.56-1.26,2.82-2.82,2.82s-2.82-1.26-2.82-2.82c0-1.56,1.26-2.82,2.82-2.82,1.56,0,2.82,1.26,2.82,2.82Z"/><path id="y" class="b`" d="M737.06,179.57c0,.66-.53,1.19-1.19,1.19s-1.19-.53-1.19-1.19,.53-1.19,1.19-1.19c.66,0,1.19,.53,1.19,1.19"/><path id="a`" class="ba" d="M105.33,161.22h189.49c4.74,0,8.57,3.84,8.57,8.57v248.71c0,4.74-3.84,8.58-8.57,8.58H105.33c-4.74,0-8.57-3.84-8.57-8.57h0V169.8c0-4.74,3.84-8.57,8.57-8.57Z"/><path id="aa" class="aq" d="M105.33,161.22h189.49c4.74,0,8.57,3.84,8.57,8.57v248.71c0,4.74-3.84,8.58-8.57,8.58H105.33c-4.74,0-8.57-3.84-8.57-8.57h0V169.8c0-4.74,3.84-8.57,8.57-8.57Z"/><rect id="ab" class="ax" x="119" y="185" width="161" height="215"/><circle id="ac" class="au" cx="199.81" cy="413.75" r="6.14"/><path id="ad" class="ar" d="M199.81,416.46c-1.5,0-2.71-1.22-2.71-2.71,0-1.5,1.22-2.71,2.71-2.71,1.5,0,2.71,1.22,2.71,2.71h0c0,1.5-1.21,2.71-2.71,2.71h0Z"/><path id="ae" class="ap" d="M202.64,172.44c0,1.56-1.26,2.82-2.82,2.82-1.56,0-2.82-1.26-2.82-2.82,0-1.56,1.26-2.82,2.82-2.82,1.56,0,2.82,1.26,2.82,2.82h0"/><path id="af" class="ar" d="M202.64,172.44c0,1.56-1.26,2.82-2.82,2.82-1.56,0-2.82-1.26-2.82-2.82,0-1.56,1.26-2.82,2.82-2.82,1.56,0,2.82,1.26,2.82,2.82h0Z"/><path id="ag" class="b`" d="M201,172.43c0,.66-.53,1.19-1.19,1.19s-1.19-.53-1.19-1.19,.53-1.19,1.19-1.19c.66,0,1.19,.53,1.19,1.19h0"/><path id="ah" class="ba" d="M69.27,261.25h-1.47v-1.32h-13.16v1.32H13.6c-6.33,.06-11.47,5.14-11.6,11.47v12.22H.68v5.26H2v10.53H.68v5.26H2v9.21H.68v5.26H2v96.69c.16,6.28,5.32,11.28,11.6,11.23h55.68c6.23,0,11.69-5,11.69-11.23v-144.45c-.18-6.34-5.34-11.41-11.69-11.47"/><path id="ai" class="aq" d="M69.27,261.25h-1.47v-1.32h-13.16v1.32H13.6c-6.33,.06-11.47,5.14-11.6,11.47v12.22H.68v5.26H2v10.53H.68v5.26H2v9.21H.68v5.26H2v96.69c.16,6.28,5.32,11.28,11.6,11.23h55.68c6.23,0,11.69-5,11.69-11.23v-144.45c-.18-6.34-5.34-11.41-11.69-11.47Z"/><rect id="aj" class="ax" x="8" y="284" width="67" height="120"/><path id="ak" class="ap" d="M43.04,269.05c0,.88-.72,1.6-1.6,1.6s-1.6-.72-1.6-1.6c0-.88,.72-1.6,1.6-1.6s1.6,.72,1.6,1.6h0"/><path id="al" class="ar" d="M43.04,269.05c0,.88-.72,1.6-1.6,1.6s-1.6-.72-1.6-1.6c0-.88,.72-1.6,1.6-1.6s1.6,.72,1.6,1.6h0Z"/><path id="am" class="ar" d="M41.62,422.69c-3.39,0-6.14-2.75-6.14-6.14s2.75-6.14,6.14-6.14,6.14,2.75,6.14,6.14c0,3.39-2.75,6.15-6.14,6.15Z"/><path id="an" class="ar" d="M41.62,419.26c-1.5,0-2.71-1.22-2.71-2.71,0-1.5,1.22-2.71,2.71-2.71,1.5,0,2.71,1.21,2.71,2.71,0,1.5-1.21,2.71-2.71,2.71h0Z"/><path id="ao" class="b`" d="M47.4,276.38c0,.73-.59,1.32-1.32,1.32h-10.53c-.73,0-1.32-.59-1.32-1.32s.59-1.32,1.32-1.32h10.53c.73,0,1.32,.59,1.32,1.32"/></g></g></g></svg>