<?xml version="1.0" encoding="UTF-8"?><svg id="a" xmlns="http://www.w3.org/2000/svg" viewBox="0 0 1366 768"><defs><style>.b{fill:#ff9ed5;}.c{fill:#ec1f94;}</style></defs><g><rect class="b" x=".5" y=".5" width="1365" height="767"/><path d="M1365,1V767H1V1H1365m1-1H0V768H1366V0h0Z"/></g><g><path class="c" d="M656.27,425.29c-1.02-1.23-1.75-2.23-2.59-3.1-8.11-8.43-16.25-16.82-24.36-25.25-3.9-4.06-8.26-7.48-13.53-9.58-14.82-5.89-28.33-3.53-40.53,6.62-1.45,1.21-2.74,2.61-4.07,3.96-23.82,24.22-47.63,48.44-71.45,72.66-.91,.93-1.74,1.97-2.76,2.59-.79-.32-.6-.84-.62-1.24-.04-.78-.01-1.56-.01-2.34,0-69.38,.01-138.77-.02-208.15,0-7.29,.88-14.43,3-21.4,6.77-22.25,25.51-41.82,52.46-47.24,4.27-.86,8.61-1.09,12.95-1.19,1.34-.03,2.67-.01,4.01-.01,76.4,0,152.8,0,229.2,0,2.89,0,5.79,.07,8.68,.23,12.78,.7,24.4,4.86,34.78,12.27,15.31,10.92,24.65,25.75,28.07,44.23,.62,3.37,.78,6.85,.91,10.3,.15,3.89,.05,7.79,.05,11.69,0,57.8,0,115.6,0,173.4,0,1.28,.16,2.6-.29,4.23-.88-.79-1.54-1.32-2.13-1.92-8.43-8.43-16.84-16.86-25.26-25.29-20.85-20.88-41.71-41.76-62.55-62.66-3.09-3.09-6.41-5.84-10.29-7.9-14.6-7.76-32-5.25-43.81,5.46-1.15,1.05-2.25,2.16-3.35,3.26-21.11,21.1-42.22,42.2-63.33,63.3-.86,.86-1.73,1.7-3.14,3.09Zm-44.76-105.52c14.07,.4,27.65-11.15,27.75-27.38,.09-16.29-13.27-27.7-27.37-27.84-14.06-.14-27.89,11.01-27.91,27.64-.02,16.74,13.95,27.92,27.53,27.58Z"/><path class="c" d="M759.61,575.88c-1.89,0-2.88,0-3.87,0-63.35,0-126.7,.02-190.04-.01-15.99,0-30.49-4.68-43.09-14.64-14.05-11.11-22.49-25.6-25.48-43.26-.05-.32,0-.66,0-1.15,.69-.74,1.43-1.57,2.2-2.35,31.23-31.75,62.45-63.5,93.68-95.25,.78-.79,1.54-1.62,2.37-2.35,3.33-2.96,7.68-2.83,10.86,.13,.57,.53,1.1,1.1,1.64,1.66,49.76,51.47,99.51,102.94,149.26,154.41,.67,.7,1.28,1.46,2.46,2.82Z"/><path class="c" d="M677.84,447.13c.87-.95,1.5-1.71,2.19-2.4,21.64-21.66,43.29-43.31,64.93-64.97,.47-.47,.97-.92,1.43-1.4,2.76-2.82,8.17-2.81,10.92-.02,.62,.63,1.28,1.24,1.9,1.87,36.18,36.25,72.36,72.49,108.54,108.74,.86,.86,1.7,1.75,2.67,2.75,0,1.72,0,3.5,0,5.27,0,3.67-.01,7.35,0,11.02,.05,25.73-15.43,50.79-40.77,61.99-6.97,3.08-14.25,5.02-21.88,5.51-1.22,.08-2.44,.21-3.66,.33-1.19,.12-2.18-.21-2.99-1.12-.51-.58-1.09-1.12-1.63-1.68-39.62-40.99-79.23-81.97-118.85-122.96-.85-.88-1.68-1.77-2.81-2.95Z"/></g></svg>